{
.appVersion = "1247";
copyright = "Copyright (c) 2008-2019 by Jens Kutilek. All rights reserved.";
customParameters = (
{
name = openTypeOS2Selection;
value = (
);
},
{
name = openTypeOS2StrikeoutPosition;
value = 448;
},
{
name = openTypeOS2StrikeoutSize;
value = 128;
},
{
name = openTypeOS2SubscriptXOffset;
value = 0;
},
{
name = openTypeOS2SubscriptXSize;
value = 717;
},
{
name = openTypeOS2SubscriptYOffset;
value = 143;
},
{
name = openTypeOS2SubscriptYSize;
value = 666;
},
{
name = openTypeOS2SuperscriptXOffset;
value = 0;
},
{
name = openTypeOS2SuperscriptXSize;
value = 717;
},
{
name = openTypeOS2SuperscriptYOffset;
value = 488;
},
{
name = openTypeOS2SuperscriptYSize;
value = 666;
},
{
name = postscriptIsFixedPitch;
value = 1;
},
{
name = Axes;
value = (
{
Name = Weight;
Tag = wght;
},
{
Name = Width;
Tag = wdth;
},
{
Hidden = 1;
Name = Production;
Tag = PROD;
}
);
}
);
date = "2008-09-07 06:16:00 +0000";
designer = "Jens Kutilek";
designerURL = "https://www.kutilek.de/";
disablesAutomaticAlignment = 1;
familyName = Workbench;
fontMaster = (
{
ascender = 896;
capHeight = 896;
custom = Hatch;
customValue = 50;
customParameters = (
{
name = typoAscender;
value = 896;
},
{
name = typoDescender;
value = -128;
},
{
name = typoLineGap;
value = 0;
},
{
name = hheaAscender;
value = 896;
},
{
name = hheaDescender;
value = -128;
},
{
name = hheaLineGap;
value = 0;
},
{
name = winAscent;
value = 896;
},
{
name = winDescent;
value = 128;
},
{
name = underlineThickness;
value = 128;
},
{
name = underlinePosition;
value = -128;
}
);
descender = -128;
id = master01;
visible = 1;
xHeight = 640;
},
{
ascender = 896;
capHeight = 896;
customValue = 100;
customParameters = (
{
name = "Link Metrics With First Master";
value = 1;
},
{
name = typoAscender;
value = 896;
},
{
name = typoDescender;
value = -128;
},
{
name = typoLineGap;
value = 0;
},
{
name = hheaAscender;
value = 896;
},
{
name = hheaDescender;
value = -128;
},
{
name = hheaLineGap;
value = 0;
},
{

glyphs = (
{
glyphname = A;
lastChange = "2019-07-27 13:35:41 +0000";
layers = (
{
background = {
paths = (
{
closed = 1;
nodes = (
"61 259 LINE",
"61 515 LINE",
"125 515 LINE",
"125 771 LINE",
"189 771 LINE",
"189 899 LINE",
"323 899 LINE",
"323 771 LINE",
"387 771 LINE",
"387 515 LINE",
"451 515 LINE",
"451 259 LINE",
"515 259 LINE",
"515 -3 LINE",
"381 -3 LINE",
"381 253 LINE",
"131 253 LINE",
"131 -3 LINE",
"-3 -3 LINE",
"-3 259 LINE"
);
},
{
closed = 1;
nodes = (
"317 387 LINE",
"317 509 LINE",
"195 509 LINE",
"195 387 LINE"
);
}
);
};
layerId = master01;
paths = (
{
closed = 0;
nodes = (
"-3 64 LINE",
"131 64 LINE"
);
},
{
closed = 0;
nodes = (
"381 64 LINE",
"515 64 LINE"
);
},
{
closed = 0;
nodes = (
"-3 192 LINE",
"131 192 LINE"
);
},
{
closed = 0;
nodes = (
"381 192 LINE",
"515 192 LINE"
);
},
{
closed = 0;
nodes = (
"61 320 LINE",
"451 320 LINE"
);
},
{
closed = 0;
nodes = (
"61 448 LINE",
"195 448 LINE"
);
},
{
closed = 0;
nodes = (
"317 448 LINE",
"451 448 LINE"
);
},
{
closed = 0;
nodes = (
"125 576 LINE",
"387 576 LINE"
);
},
{
closed = 0;
nodes = (
"125 704 LINE",
"387 704 LINE"
);
},
{
closed = 0;
nodes = (
"189 832 LINE",
"323 832 LINE"
);
}
);
userData = {
com.typemytype.robofont.mark = (
0.656,
1,
0.6,
1
);
};
width = 512;
},
{
layerId = "968AADD4-6AAB-4A21-B439-CFC52095EED4";
paths = (
{
closed = 1;
nodes = (
"61 259 LINE",
"61 515 LINE",
"125 515 LINE",
"125 771 LINE",
"189 771 LINE",
"189 899 LINE",
"323 899 LINE",
"323 771 LINE",
"387 771 LINE",
"387 515 LINE",
"451 515 LINE",
"451 259 LINE",
"515 259 LINE",
"515 -3 LINE",
"381 -3 LINE",
"381 253 LINE",
"131 253 LINE",
"131 -3 LINE",
"-3 -3 LINE",
"-3 259 LINE"
);
},
{
closed = 1;
nodes = (
"317 387 LINE",
"317 509 LINE",
"195 509 LINE",
"195 387 LINE"
);
}
);
userData = {
com.typemytype.robofont.mark = (
0.656,
1,
0.6,
1
);
};
width = 512;
},
{
components = (
{
name = pixel.2;
transform = "{1, 0, 0, 1, -5, 54}";
},
{
name = pixel.2;
transform = "{1, 0, 0, 1, 379, 54}";
},
{
name = pixel.2;
transform = "{1, 0, 0, 1, -5, 182}";
},
{
name = pixel.2;
transform = "{1, 0, 0, 1, 379, 182}";
},
{
name = pixel.6;
transform = "{1, 0, 0, 1, 59, 310}";
},
{
name = pixel.2;
transform = "{1, 0, 0, 1, 59, 438}";
},
{
name = pixel.2;
transform = "{1, 0, 0, 1, 315, 438}";
},
{
name = pixel.4;
transform = "{1, 0, 0, 1, 123, 566}";
},
{
name = pixel.4;
transform = "{1, 0, 0, 1, 123, 694}";
},
{
name = pixel.2;
transform = "{1, 0, 0, 1, 187, 822}";
}
);
layerId = "EF047752-ED93-49D3-A4D1-D66A6AAE90C7";
width = 512;
},
{
components = (
{
name = pixel.2;
transform = "{1, 0, 0, 1, -63, -61}";
},
{
name = pixel.2;
transform = "{1, 0, 0, 1, 321, -61}";
},
{
name = pixel.2;
transform = "{1, 0, 0, 1, -63, 67}";
},
{
name = pixel.2;
transform = "{1, 0, 0, 1, 321, 67}";
},
{
name = pixel.6;
transform = "{1, 0, 0, 1, 1, 195}";
},
{
name = pixel.2;
transform = "{1, 0, 0, 1, 1, 323}";
},
{
name = pixel.2;
transform = "{1, 0, 0, 1, 257, 323}";
},
{
name = pixel.4;
transform = "{1, 0, 0, 1, 65, 451}";
},
{
name = pixel.4;
transform = "{1, 0, 0, 1, 65, 579}";
},
{
name = pixel.2;
transform = "{1, 0, 0, 1, 129, 707}";
}
);
layerId = "164C8123-3F0E-4C99-877D-0E85C432A9CE";
width = 512;
},
{
components = (
{
name = pixel.2;
transform = "{1, 0, 0, 1, -93, 54}";
},
{
name = pixel.2;
transform = "{1, 0, 0, 1, 291, 54}";
},
{
name = pixel.2;
transform = "{1, 0, 0, 1, -93, 182}";
},
{
name = pixel.2;
transform = "{1, 0, 0, 1, 291, 182}";
},
{
name = pixel.6;
transform = "{1, 0, 0, 1, -29, 310}";
},
{
name = pixel.2;
transform = "{1, 0, 0, 1, -29, 438}";
},
{
name = pixel.2;
transform = "{1, 0, 0, 1, 227, 438}";
},
{
name = pixel.4;
transform = "{1, 0, 0, 1, 35, 566}";
},
{
name = pixel.4;
transform = "{1, 0, 0, 1, 35, 694}";
},
{
name = pixel.2;
transform = "{1, 0, 0, 1, 99, 822}";
}
);
layerId = "EDC3ADDC-530C-4ECE-AAC6-732B149A8D4A";
width = 512;
},
{
components = (
{
name = pixel.2;
transform = "{1, 0, 0, 1, -125, -61}";
},
{
name = pixel.2;
transform = "{1, 0, 0, 1, 259, -61}";
},
{
name = pixel.2;
transform = "{1, 0, 0, 1, -125, 67}";
},
{
name = pixel.2;
transform = "{1, 0, 0, 1, 259, 67}";
},
{
name = pixel.6;
transform = "{1, 0, 0, 1, -61, 195}";
},
{
name = pixel.2;
transform = "{1, 0, 0, 1, -61, 323}";
},
{
name = pixel.2;
transform = "{1, 0, 0, 1, 195, 323}";
},
{
name = pixel.4;
transform = "{1, 0, 0, 1, 3, 451}";
},
{
name = pixel.4;
transform = "{1, 0, 0, 1, 3, 579}";
},
{
name = pixel.2;
transform = "{1, 0, 0, 1, 67, 707}";
}
);
layerId = "38088322-78A3-4F4F-B46E-F8355B0BCD96";
width = 512;
}
);
unicode = 0041;
},
{
color = 6;
glyphname = Aacute;
lastChange = "2019-07-27 11:38:00 +0000";
layers = (
{
components = (
{
name = A.case;
},
{
name = acute;
transform = "{1, 0, 0, 1, 64, 0}";
}
);
layerId = master01;
width = 512;
},
{
components = (
{
name = A.case;
},
{
name = acute;
transform = "{1, 0, 0, 1, 64, 0}";
}
);
layerId = "EF047752-ED93-49D3-A4D1-D66A6AAE90C7";
width = 512;
},
{
components = (
{
name = A.case;
},
{
name = acute;
transform = "{1, 0, 0, 1, 64, 0}";
}
);
layerId = "164C8123-3F0E-4C99-877D-0E85C432A9CE";
width = 512;
},
{
components = (
{
name = A.case;
},
{
name = acute;
transform = "{1, 0, 0, 1, 64, 0}";
}
);
layerId = "EDC3ADDC-530C-4ECE-AAC6-732B149A8D4A";
width = 512;
},
{
components = (
{
name = A.case;
},
{
name = acute;
transform = "{1, 0, 0, 1, 64, 0}";
}
);
layerId = "38088322-78A3-4F4F-B46E-F8355B0BCD96";
width = 512;
},
{
background = {
paths = (
{
closed = 1;
nodes = (
"128 512 LINE",
"64 512 LINE",
"64 256 LINE",
"0 256 LINE",
"0 0 LINE",
"128 0 LINE",
"128 256 LINE",
"384 256 LINE",
"384 0 LINE",
"512 0 LINE",
"512 256 LINE",
"448 256 LINE",
"448 512 LINE",
"384 512 LINE",
"384 640 LINE",
"256 640 LINE",
"256 768 LINE",
"192 768 LINE",
"192 640 LINE",
"128 640 LINE"
);
},
{
closed = 1;
nodes = (
"256 768 LINE",
"384 768 LINE",
"384 896 LINE",
"256 896 LINE"
);
},
{
closed = 1;
nodes = (
"320 384 LINE",
"192 384 LINE",
"192 512 LINE",
"320 512 LINE"
);
}
);
};
components = (
{
name = A.case;
},
{
name = acute;
transform = "{1, 0, 0, 1, 64, 0}";
}
);
layerId = "968AADD4-6AAB-4A21-B439-CFC52095EED4";
width = 512;
}
);
unicode = 00C1;
},
{
color = 6;
glyphname = Acircumflex;
lastChange = "2019-07-27 11:38:00 +0000";
layers = (
{
components = (
{
name = A.case;
},
{
name = circumflex;
}
);
layerId = master01;
width = 512;
},
{
components = (
{
name = A.case;
},
{
name = circumflex;
}
);
layerId = "EF047752-ED93-49D3-A4D1-D66A6AAE90C7";
width = 512;
},
{
components = (
{
name = A.case;
},
{
name = circumflex;
}
);
layerId = "164C8123-3F0E-4C99-877D-0E85C432A9CE";
width = 512;
},
{
components = (
{
name = A.case;
},
{
name = circumflex;
}
);
layerId = "EDC3ADDC-530C-4ECE-AAC6-732B149A8D4A";
width = 512;
},
{
components = (
{
name = A.case;
},
{
name = circumflex;
}
);
layerId = "38088322-78A3-4F4F-B46E-F8355B0BCD96";
width = 512;
},
{
background = {
paths = (
{
closed = 1;
nodes = (
"192 768 LINE",
"128 768 LINE",
"128 512 LINE",
"64 512 LINE",
"64 256 LINE",
"0 256 LINE",
"0 0 LINE",
"128 0 LINE",
"128 256 LINE",
"384 256 LINE",
"384 0 LINE",
"512 0 LINE",
"512 256 LINE",
"448 256 LINE",
"448 512 LINE",
"384 512 LINE",
"384 768 LINE",
"320 768 LINE",
"320 896 LINE",
"192 896 LINE"
);
},
{
closed = 1;
nodes = (
"320 384 LINE",
"192 384 LINE",
"192 512 LINE",
"320 512 LINE"
);
},
{
closed = 1;
nodes = (
"192 768 LINE",
"320 768 LINE",
"320 640 LINE",
"192 640 LINE"
);
}
);
};
components = (
{
name = A.case;
},
{
name = circumflex;
}
);
layerId = "968AADD4-6AAB-4A21-B439-CFC52095EED4";
width = 512;
}
);
unicode = 00C2;
},
{
glyphname = Adieresis;
lastChange = "2019-07-27 13:35:41 +0000";
layers = (
{
background = {
paths = (
{
closed = 1;
nodes = (
"61 259 LINE",
"61 515 LINE",
"125 515 LINE",
"125 643 LINE",
"189 643 LINE",
"189 771 LINE",
"323 771 LINE",
"323 643 LINE",
"387 643 LINE",
"387 515 LINE",
"451 515 LINE",
"451 259 LINE",
"515 259 LINE",
"515 -3 LINE",
"381 -3 LINE",
"381 253 LINE",
"131 253 LINE",
"131 -3 LINE",
"-3 -3 LINE",
"-3 259 LINE"
);
},
{
closed = 1;
nodes = (
"131 899 LINE",
"131 765 LINE",
"-3 765 LINE",
"-3 899 LINE"
);
},
{
closed = 1;
nodes = (
"515 899 LINE",
"515 765 LINE",
"381 765 LINE",
"381 899 LINE"
);
},
{
closed = 1;
nodes = (
"317 387 LINE",
"317 509 LINE",
"195 509 LINE",
"195 387 LINE"
);
}
);
};
layerId = master01;
paths = (
{
closed = 0;
nodes = (
"-3 64 LINE",
"131 64 LINE"
);
},
{
closed = 0;
nodes = (
"381 64 LINE",
"515 64 LINE"
);
},
{
closed = 0;
nodes = (
"-3 192 LINE",
"131 192 LINE"
);
},
{
closed = 0;
nodes = (
"381 192 LINE",
"515 192 LINE"
);
},
{
closed = 0;
nodes = (
"61 320 LINE",
"451 320 LINE"
);
},
{
closed = 0;
nodes = (
"61 448 LINE",
"195 448 LINE"
);
},
{
closed = 0;
nodes = (
"317 448 LINE",
"451 448 LINE"
);
},
{
closed = 0;
nodes = (
"125 576 LINE",
"387 576 LINE"
);
},
{
closed = 0;
nodes = (
"189 704 LINE",
"323 704 LINE"
);
},
{
closed = 0;
nodes = (
"-3 832 LINE",
"131 832 LINE"
);
},
{
closed = 0;
nodes = (
"381 832 LINE",
"515 832 LINE"
);
}
);
userData = {
com.typemytype.robofont.mark = (
0.656,
1,
0.6,
1
);
};
width = 512;
},
{
layerId = "968AADD4-6AAB-4A21-B439-CFC52095EED4";
paths = (
{
closed = 1;
nodes = (
"61 259 LINE",
"61 515 LINE",
"125 515 LINE",
"125 643 LINE",
"189 643 LINE",
"189 771 LINE",
"323 771 LINE",
"323 643 LINE",
"387 643 LINE",
"387 515 LINE",
"451 515 LINE",
"451 259 LINE",
"515 259 LINE",
"515 -3 LINE",
"381 -3 LINE",
"381 253 LINE",
"131 253 LINE",
"131 -3 LINE",
"-3 -3 LINE",
"-3 259 LINE"
);
},
{
closed = 1;
nodes = (
"131 899 LINE",
"131 765 LINE",
"-3 765 LINE",
"-3 899 LINE"
);
},
{
closed = 1;
nodes = (
"515 899 LINE",
"515 765 LINE",
"381 765 LINE",
"381 899 LINE"
);
},
{
closed = 1;
nodes = (
"317 387 LINE",
"317 509 LINE",
"195 509 LINE",
"195 387 LINE"
);
}
);
userData = {
com.typemytype.robofont.mark = (
0.656,
1,
0.6,
1
);
};
width = 512;
},
{
components = (
{
name = pixel.2;
transform = "{1, 0, 0, 1, -5, 54}";
},
{
name = pixel.2;
transform = "{1, 0, 0, 1, 379, 54}";
},
{
name = pixel.2;
transform = "{1, 0, 0, 1, -5, 182}";
},
{
name = pixel.2;
transform = "{1, 0, 0, 1, 379, 182}";
},
{
name = pixel.6;
transform = "{1, 0, 0, 1, 59, 310}";
},
{
name = pixel.2;
transform = "{1, 0, 0, 1, 59, 438}";
},
{
name = pixel.2;
transform = "{1, 0, 0, 1, 315, 438}";
},
{
name = pixel.4;
transform = "{1, 0, 0, 1, 123, 566}";
},
{
name = pixel.2;
transform = "{1, 0, 0, 1, 187, 694}";
},
{
name = pixel.2;
transform = "{1, 0, 0, 1, -5, 822}";
},
{
name = pixel.2;
transform = "{1, 0, 0, 1, 379, 822}";
}
);
layerId = "EF047752-ED93-49D3-A4D1-D66A6AAE90C7";
width = 512;
},
{
components = (
{
name = pixel.2;
transform = "{1, 0, 0, 1, -63, -61}";
},
{
name = pixel.2;
transform = "{1, 0, 0, 1, 321, -61}";
},
{
name = pixel.2;
transform = "{1, 0, 0, 1, -63, 67}";
},
{
name = pixel.2;
transform = "{1, 0, 0, 1, 321, 67}";
},
{
name = pixel.6;
transform = "{1, 0, 0, 1, 1, 195}";
},
{
name = pixel.2;
transform = "{1, 0, 0, 1, 1, 323}";
},
{
name = pixel.2;
transform = "{1, 0, 0, 1, 257, 323}";
},
{
name = pixel.4;
transform = "{1, 0, 0, 1, 65, 451}";
},
{
name = pixel.2;
transform = "{1, 0, 0, 1, 129, 579}";
},
{
name = pixel.2;
transform = "{1, 0, 0, 1, -63, 707}";
},
{
name = pixel.2;
transform = "{1, 0, 0, 1, 321, 707}";
}
);
layerId = "164C8123-3F0E-4C99-877D-0E85C432A9CE";
width = 512;
},
{
components = (
{
name = pixel.2;
transform = "{1, 0, 0, 1, -93, 54}";
},
{
name = pixel.2;
transform = "{1, 0, 0, 1, 291, 54}";
},
{
name = pixel.2;
transform = "{1, 0, 0, 1, -93, 182}";
},
{
name = pixel.2;
transform = "{1, 0, 0, 1, 291, 182}";
},
{
name = pixel.6;
transform = "{1, 0, 0, 1, -29, 310}";
},
{
name = pixel.2;
transform = "{1, 0, 0, 1, -29, 438}";
},
{
name = pixel.2;
transform = "{1, 0, 0, 1, 227, 438}";
},
{
name = pixel.4;
transform = "{1, 0, 0, 1, 35, 566}";
},
{
name = pixel.2;
transform = "{1, 0, 0, 1, 99, 694}";
},
{
name = pixel.2;
transform = "{1, 0, 0, 1, -93, 822}";
},
{
name = pixel.2;
transform = "{1, 0, 0, 1, 291, 822}";
}
);
layerId = "EDC3ADDC-530C-4ECE-AAC6-732B149A8D4A";
width = 512;
},
{
components = (
{
name = pixel.2;
transform = "{1, 0, 0, 1, -125, -61}";
},
{
name = pixel.2;
transform = "{1, 0, 0, 1, 259, -61}";
},
{
name = pixel.2;
transform = "{1, 0, 0, 1, -125, 67}";
},
{
name = pixel.2;
transform = "{1, 0, 0, 1, 259, 67}";
},
{
name = pixel.6;
transform = "{1, 0, 0, 1, -61, 195}";
},
{
name = pixel.2;
transform = "{1, 0, 0, 1, -61, 323}";
},
{
name = pixel.2;
transform = "{1, 0, 0, 1, 195, 323}";
},
{
name = pixel.4;
transform = "{1, 0, 0, 1, 3, 451}";
},
{
name = pixel.2;
transform = "{1, 0, 0, 1, 67, 579}";
},
{
name = pixel.2;
transform = "{1, 0, 0, 1, -125, 707}";
},
{
name = pixel.2;
transform = "{1, 0, 0, 1, 259, 707}";
}
);
layerId = "38088322-78A3-4F4F-B46E-F8355B0BCD96";
width = 512;
}
);
unicode = 00C4;
},
{
color = 6;
glyphname = Agrave;
lastChange = "2019-07-27 11:38:00 +0000";
layers = (
{
components = (
{
name = A.case;
},
{
name = grave;
transform = "{1, 0, 0, 1, -64, 0}";
}
);
layerId = master01;
width = 512;
},
{
components = (
{
name = A.case;
},
{
name = grave;
transform = "{1, 0, 0, 1, -64, 0}";
}
);
layerId = "EF047752-ED93-49D3-A4D1-D66A6AAE90C7";
width = 512;
},
{
components = (
{
name = A.case;
},
{
name = grave;
transform = "{1, 0, 0, 1, -64, 0}";
}
);
layerId = "164C8123-3F0E-4C99-877D-0E85C432A9CE";
width = 512;
},
{
components = (
{
name = A.case;
},
{
name = grave;
transform = "{1, 0, 0, 1, -64, 0}";
}
);
layerId = "EDC3ADDC-530C-4ECE-AAC6-732B149A8D4A";
width = 512;
},
{
components = (
{
name = A.case;
},
{
name = grave;
transform = "{1, 0, 0, 1, -64, 0}";
}
);
layerId = "38088322-78A3-4F4F-B46E-F8355B0BCD96";
width = 512;
},
{
background = {
paths = (
{
closed = 1;
nodes = (
"128 768 LINE",
"256 768 LINE",
"256 640 LINE",
"128 640 LINE",
"128 512 LINE",
"64 512 LINE",
"64 256 LINE",
"0 256 LINE",
"0 0 LINE",
"128 0 LINE",
"128 256 LINE",
"384 256 LINE",
"384 0 LINE",
"512 0 LINE",
"512 256 LINE",
"448 256 LINE",
"448 512 LINE",
"384 512 LINE",
"384 640 LINE",
"320 640 LINE",
"320 768 LINE",
"256 768 LINE",
"256 896 LINE",
"128 896 LINE"
);
},
{
closed = 1;
nodes = (
"320 384 LINE",
"192 384 LINE",
"192 512 LINE",
"320 512 LINE"
);
}
);
};
components = (
{
name = A.case;
},
{
name = grave;
transform = "{1, 0, 0, 1, -64, 0}";
}
);
layerId = "968AADD4-6AAB-4A21-B439-CFC52095EED4";
width = 512;
}
);
unicode = 00C0;
},
{
glyphname = Aring;
lastChange = "2019-07-27 13:35:41 +0000";
layers = (
{
background = {
paths = (
{
closed = 1;
nodes = (
"61 259 LINE",
"61 515 LINE",
"125 515 LINE",
"125 637 LINE",
"61 637 LINE",
"61 771 LINE",
"125 771 LINE",
"125 899 LINE",
"387 899 LINE",
"387 771 LINE",
"451 771 LINE",
"451 637 LINE",
"387 637 LINE",
"387 515 LINE",
"451 515 LINE",
"451 259 LINE",
"515 259 LINE",
"515 -3 LINE",
"381 -3 LINE",
"381 253 LINE",
"131 253 LINE",
"131 -3 LINE",
"-3 -3 LINE",
"-3 259 LINE"
);
},
{
closed = 1;
nodes = (
"317 387 LINE",
"317 509 LINE",
"195 509 LINE",
"195 387 LINE"
);
},
{
closed = 1;
nodes = (
"317 643 LINE",
"317 765 LINE",
"195 765 LINE",
"195 643 LINE"
);
}
);
};
layerId = master01;
paths = (
{
closed = 0;
nodes = (
"-3 64 LINE",
"131 64 LINE"
);
},
{
closed = 0;
nodes = (
"381 64 LINE",
"515 64 LINE"
);
},
{
closed = 0;
nodes = (
"-3 192 LINE",
"131 192 LINE"
);
},
{
closed = 0;
nodes = (
"381 192 LINE",
"515 192 LINE"
);
},
{
closed = 0;
nodes = (
"61 320 LINE",
"451 320 LINE"
);
},
{
closed = 0;
nodes = (
"61 448 LINE",
"195 448 LINE"
);
},
{
closed = 0;
nodes = (
"317 448 LINE",
"451 448 LINE"
);
},
{
closed = 0;
nodes = (
"125 576 LINE",
"387 576 LINE"
);
},
{
closed = 0;
nodes = (
"61 704 LINE",
"195 704 LINE"
);
},
{
closed = 0;
nodes = (
"317 704 LINE",
"451 704 LINE"
);
},
{
closed = 0;
nodes = (
"125 832 LINE",
"387 832 LINE"
);
}
);
userData = {
com.typemytype.robofont.mark = (
0.656,
1,
0.6,
1
);
};
width = 512;
},
{
layerId = "968AADD4-6AAB-4A21-B439-CFC52095EED4";
paths = (
{
closed = 1;
nodes = (
"61 259 LINE",
"61 515 LINE",
"125 515 LINE",
"125 637 LINE",
"61 637 LINE",
"61 771 LINE",
"125 771 LINE",
"125 899 LINE",
"387 899 LINE",
"387 771 LINE",
"451 771 LINE",
"451 637 LINE",
"387 637 LINE",
"387 515 LINE",
"451 515 LINE",
"451 259 LINE",
"515 259 LINE",
"515 -3 LINE",
"381 -3 LINE",
"381 253 LINE",
"131 253 LINE",
"131 -3 LINE",
"-3 -3 LINE",
"-3 259 LINE"
);
},
{
closed = 1;
nodes = (
"317 387 LINE",
"317 509 LINE",
"195 509 LINE",
"195 387 LINE"
);
},
{
closed = 1;
nodes = (
"317 643 LINE",
"317 765 LINE",
"195 765 LINE",
"195 643 LINE"
);
}
);
userData = {
com.typemytype.robofont.mark = (
0.656,
1,
0.6,
1
);
};
width = 512;
},
{
components = (
{
name = pixel.2;
transform = "{1, 0, 0, 1, -5, 54}";
},
{
name = pixel.2;
transform = "{1, 0, 0, 1, 379, 54}";
},
{
name = pixel.2;
transform = "{1, 0, 0, 1, -5, 182}";
},
{
name = pixel.2;
transform = "{1, 0, 0, 1, 379, 182}";
},
{
name = pixel.6;
transform = "{1, 0, 0, 1, 59, 310}";
},
{
name = pixel.2;
transform = "{1, 0, 0, 1, 59, 438}";
},
{
name = pixel.2;
transform = "{1, 0, 0, 1, 315, 438}";
},
{
name = pixel.4;
transform = "{1, 0, 0, 1, 123, 566}";
},
{
name = pixel.2;
transform = "{1, 0, 0, 1, 59, 694}";
},
{
name = pixel.2;
transform = "{1, 0, 0, 1, 315, 694}";
},
{
name = pixel.4;
transform = "{1, 0, 0, 1, 123, 822}";
}
);
layerId = "EF047752-ED93-49D3-A4D1-D66A6AAE90C7";
width = 512;
},
{
components = (
{
name = pixel.2;
transform = "{1, 0, 0, 1, -63, -61}";
},
{
name = pixel.2;
transform = "{1, 0, 0, 1, 321, -61}";
},
{
name = pixel.2;
transform = "{1, 0, 0, 1, -63, 67}";
},
{
name = pixel.2;
transform = "{1, 0, 0, 1, 321, 67}";
},
{
name = pixel.6;
transform = "{1, 0, 0, 1, 1, 195}";
},
{
name = pixel.2;
transform = "{1, 0, 0, 1, 1, 323}";
},
{
name = pixel.2;
transform = "{1, 0, 0, 1, 257, 323}";
},
{
name = pixel.4;
transform = "{1, 0, 0, 1, 65, 451}";
},
{
name = pixel.2;
transform = "{1, 0, 0, 1, 1, 579}";
},
{
name = pixel.2;
transform = "{1, 0, 0, 1, 257, 579}";
},
{
name = pixel.4;
transform = "{1, 0, 0, 1, 65, 707}";
}
);
layerId = "164C8123-3F0E-4C99-877D-0E85C432A9CE";
width = 512;
},
{
components = (
{
name = pixel.2;
transform = "{1, 0, 0, 1, -93, 54}";
},
{
name = pixel.2;
transform = "{1, 0, 0, 1, 291, 54}";
},
{
name = pixel.2;
transform = "{1, 0, 0, 1, -93, 182}";
},
{
name = pixel.2;
transform = "{1, 0, 0, 1, 291, 182}";
},
{
name = pixel.6;
transform = "{1, 0, 0, 1, -29, 310}";
},
{
name = pixel.2;
transform = "{1, 0, 0, 1, -29, 438}";
},
{
name = pixel.2;
transform = "{1, 0, 0, 1, 227, 438}";
},
{
name = pixel.4;
transform = "{1, 0, 0, 1, 35, 566}";
},
{
name = pixel.2;
transform = "{1, 0, 0, 1, -29, 694}";
},
{
name = pixel.2;
transform = "{1, 0, 0, 1, 227, 694}";
},
{
name = pixel.4;
transform = "{1, 0, 0, 1, 35, 822}";
}
);
layerId = "EDC3ADDC-530C-4ECE-AAC6-732B149A8D4A";
width = 512;
},
{
components = (
{
name = pixel.2;
transform = "{1, 0, 0, 1, -125, -61}";
},
{
name = pixel.2;
transform = "{1, 0, 0, 1, 259, -61}";
},
{
name = pixel.2;
transform = "{1, 0, 0, 1, -125, 67}";
},
{
name = pixel.2;
transform = "{1, 0, 0, 1, 259, 67}";
},
{
name = pixel.6;
transform = "{1, 0, 0, 1, -61, 195}";
},
{
name = pixel.2;
transform = "{1, 0, 0, 1, -61, 323}";
},
{
name = pixel.2;
transform = "{1, 0, 0, 1, 195, 323}";
},
{
name = pixel.4;
transform = "{1, 0, 0, 1, 3, 451}";
},
{
name = pixel.2;
transform = "{1, 0, 0, 1, -61, 579}";
},
{
name = pixel.2;
transform = "{1, 0, 0, 1, 195, 579}";
},
{
name = pixel.4;
transform = "{1, 0, 0, 1, 3, 707}";
}
);
layerId = "38088322-78A3-4F4F-B46E-F8355B0BCD96";
width = 512;
}
);
unicode = 00C5;
},
{
color = 6;
glyphname = Atilde;
lastChange = "2019-07-27 11:38:00 +0000";
layers = (
{
components = (
{
name = A.case;
},
{
name = tilde;
}
);
layerId = master01;
width = 512;
},
{
components = (
{
name = A.case;
},
{
name = tilde;
}
);
layerId = "EF047752-ED93-49D3-A4D1-D66A6AAE90C7";
width = 512;
},
{
components = (
{
name = A.case;
},
{
name = tilde;
}
);
layerId = "164C8123-3F0E-4C99-877D-0E85C432A9CE";
width = 512;
},
{
components = (
{
name = A.case;
},
{
name = tilde;
}
);
layerId = "EDC3ADDC-530C-4ECE-AAC6-732B149A8D4A";
width = 512;
},
{
components = (
{
name = A.case;
},
{
name = tilde;
}
);
layerId = "38088322-78A3-4F4F-B46E-F8355B0BCD96";
width = 512;
},
{
background = {
paths = (
{
closed = 1;
nodes = (
"64 768 LINE",
"256 768 LINE",
"256 640 LINE",
"128 640 LINE",
"128 512 LINE",
"64 512 LINE",
"64 256 LINE",
"0 256 LINE",
"0 0 LINE",
"128 0 LINE",
"128 256 LINE",
"384 256 LINE",
"384 0 LINE",
"512 0 LINE",
"512 256 LINE",
"448 256 LINE",
"448 512 LINE",
"384 512 LINE",
"384 640 LINE",
"448 640 LINE",
"448 768 LINE",
"256 768 LINE",
"256 896 LINE",
"64 896 LINE"
);
},
{
closed = 1;
nodes = (
"320 384 LINE",
"192 384 LINE",
"192 512 LINE",
"320 512 LINE"
);
},
{
closed = 1;
nodes = (
"448 768 LINE",
"512 768 LINE",
"512 896 LINE",
"448 896 LINE"
);
},
{
closed = 1;
nodes = (
"0 640 LINE",
"64 640 LINE",
"64 768 LINE",
"0 768 LINE"
);
}
);
};
components = (
{
name = A.case;
},
{
name = tilde;
}
);
layerId = "968AADD4-6AAB-4A21-B439-CFC52095EED4";
width = 512;
}
);
unicode = 00C3;
},
{
glyphname = AE;
lastChange = "2019-07-27 13:35:41 +0000";
layers = (
{
background = {
paths = (
{
closed = 1;
nodes = (
"-3 -3 LINE",
"-3 259 LINE",
"61 259 LINE",
"61 515 LINE",
"125 515 LINE",
"125 771 LINE",
"189 771 LINE",
"189 899 LINE",
"515 899 LINE",
"515 765 LINE",
"387 765 LINE",
"387 515 LINE",
"515 515 LINE",
"515 381 LINE",
"387 381 LINE",
"387 131 LINE",
"515 131 LINE",
"515 -3 LINE",
"253 -3 LINE",
"253 253 LINE",
"131 253 LINE",
"131 -3 LINE"
);
},
{
closed = 1;
nodes = (
"195 509 LINE",
"195 387 LINE",
"253 387 LINE",
"253 509 LINE"
);
}
);
};
layerId = master01;
paths = (
{
closed = 0;
nodes = (
"-3 64 LINE",
"131 64 LINE"
);
},
{
closed = 0;
nodes = (
"253 64 LINE",
"515 64 LINE"
);
},
{
closed = 0;
nodes = (
"-3 192 LINE",
"131 192 LINE"
);
},
{
closed = 0;
nodes = (
"253 192 LINE",
"387 192 LINE"
);
},
{
closed = 0;
nodes = (
"61 320 LINE",
"387 320 LINE"
);
},
{
closed = 0;
nodes = (
"61 448 LINE",
"195 448 LINE"
);
},
{
closed = 0;
nodes = (
"253 448 LINE",
"515 448 LINE"
);
},
{
closed = 0;
nodes = (
"125 576 LINE",
"387 576 LINE"
);
},
{
closed = 0;
nodes = (
"125 704 LINE",
"387 704 LINE"
);
},
{
closed = 0;
nodes = (
"189 832 LINE",
"515 832 LINE"
);
}
);
userData = {
com.typemytype.robofont.mark = (
0.656,
1,
0.6,
1
);
};
width = 512;
},
{
layerId = "968AADD4-6AAB-4A21-B439-CFC52095EED4";
paths = (
{
closed = 1;
nodes = (
"-3 -3 LINE",
"-3 259 LINE",
"61 259 LINE",
"61 515 LINE",
"125 515 LINE",
"125 771 LINE",
"189 771 LINE",
"189 899 LINE",
"515 899 LINE",
"515 765 LINE",
"387 765 LINE",
"387 515 LINE",
"515 515 LINE",
"515 381 LINE",
"387 381 LINE",
"387 131 LINE",
"515 131 LINE",
"515 -3 LINE",
"253 -3 LINE",
"253 253 LINE",
"131 253 LINE",
"131 -3 LINE"
);
},
{
closed = 1;
nodes = (
"195 509 LINE",
"195 387 LINE",
"253 387 LINE",
"253 509 LINE"
);
}
);
userData = {
com.typemytype.robofont.mark = (
0.656,
1,
0.6,
1
);
};
width = 512;
},
{
components = (
{
name = pixel.2;
transform = "{1, 0, 0, 1, -5, 54}";
},
{
name = pixel.4;
transform = "{1, 0, 0, 1, 251, 54}";
},
{
name = pixel.2;
transform = "{1, 0, 0, 1, -5, 182}";
},
{
name = pixel.2;
transform = "{1, 0, 0, 1, 251, 182}";
},
{
name = pixel.5;
transform = "{1, 0, 0, 1, 59, 310}";
},
{
name = pixel.2;
transform = "{1, 0, 0, 1, 59, 438}";
},
{
name = pixel.4;
transform = "{1, 0, 0, 1, 251, 438}";
},
{
name = pixel.4;
transform = "{1, 0, 0, 1, 123, 566}";
},
{
name = pixel.4;
transform = "{1, 0, 0, 1, 123, 694}";
},
{
name = pixel.5;
transform = "{1, 0, 0, 1, 187, 822}";
}
);
layerId = "EF047752-ED93-49D3-A4D1-D66A6AAE90C7";
width = 512;
},
{
components = (
{
name = pixel.2;
transform = "{1, 0, 0, 1, -63, -61}";
},
{
name = pixel.4;
transform = "{1, 0, 0, 1, 193, -61}";
},
{
name = pixel.2;
transform = "{1, 0, 0, 1, -63, 67}";
},
{
name = pixel.2;
transform = "{1, 0, 0, 1, 193, 67}";
},
{
name = pixel.5;
transform = "{1, 0, 0, 1, 1, 195}";
},
{
name = pixel.2;
transform = "{1, 0, 0, 1, 1, 323}";
},
{
name = pixel.4;
transform = "{1, 0, 0, 1, 193, 323}";
},
{
name = pixel.4;
transform = "{1, 0, 0, 1, 65, 451}";
},
{
name = pixel.4;
transform = "{1, 0, 0, 1, 65, 579}";
},
{
name = pixel.5;
transform = "{1, 0, 0, 1, 129, 707}";
}
);
layerId = "164C8123-3F0E-4C99-877D-0E85C432A9CE";
width = 512;
},
{
components = (
{
name = pixel.2;
transform = "{1, 0, 0, 1, -93, 54}";
},
{
name = pixel.4;
transform = "{1, 0, 0, 1, 163, 54}";
},
{
name = pixel.2;
transform = "{1, 0, 0, 1, -93, 182}";
},
{
name = pixel.2;
transform = "{1, 0, 0, 1, 163, 182}";
},
{
name = pixel.5;
transform = "{1, 0, 0, 1, -29, 310}";
},
{
name = pixel.2;
transform = "{1, 0, 0, 1, -29, 438}";
},
{
name = pixel.4;
transform = "{1, 0, 0, 1, 163, 438}";
},
{
name = pixel.4;
transform = "{1, 0, 0, 1, 35, 566}";
},
{
name = pixel.4;
transform = "{1, 0, 0, 1, 35, 694}";
},
{
name = pixel.5;
transform = "{1, 0, 0, 1, 99, 822}";
}
);
layerId = "EDC3ADDC-530C-4ECE-AAC6-732B149A8D4A";
width = 512;
},
{
components = (
{
name = pixel.2;
transform = "{1, 0, 0, 1, -125, -61}";
},
{
name = pixel.4;
transform = "{1, 0, 0, 1, 131, -61}";
},
{
name = pixel.2;
transform = "{1, 0, 0, 1, -125, 67}";
},
{
name = pixel.2;
transform = "{1, 0, 0, 1, 131, 67}";
},
{
name = pixel.5;
transform = "{1, 0, 0, 1, -61, 195}";
},
{
name = pixel.2;
transform = "{1, 0, 0, 1, -61, 323}";
},
{
name = pixel.4;
transform = "{1, 0, 0, 1, 131, 323}";
},
{
name = pixel.4;
transform = "{1, 0, 0, 1, 3, 451}";
},
{
name = pixel.4;
transform = "{1, 0, 0, 1, 3, 579}";
},
{
name = pixel.5;
transform = "{1, 0, 0, 1, 67, 707}";
}
);
layerId = "38088322-78A3-4F4F-B46E-F8355B0BCD96";
width = 512;
}
);
unicode = 00C6;
},
{
glyphname = B;
lastChange = "2019-07-27 13:35:41 +0000";
layers = (
{
background = {
paths = (
{
closed = 1;
nodes = (
"61 131 LINE",
"61 765 LINE",
"-3 765 LINE",
"-3 899 LINE",
"387 899 LINE",
"387 771 LINE",
"451 771 LINE",
"451 509 LINE",
"387 509 LINE",
"387 387 LINE",
"451 387 LINE",
"451 125 LINE",
"387 125 LINE",
"387 -3 LINE",
"-3 -3 LINE",
"-3 131 LINE"
);
},
{
closed = 1;
nodes = (
"195 381 LINE",
"195 131 LINE",
"317 131 LINE",
"317 381 LINE"
);
},
{
closed = 1;
nodes = (
"317 515 LINE",
"317 765 LINE",
"195 765 LINE",
"195 515 LINE"
);
}
);
};
layerId = master01;
paths = (
{
closed = 0;
nodes = (
"-3 64 LINE",
"387 64 LINE"
);
},
{
closed = 0;
nodes = (
"61 192 LINE",
"195 192 LINE"
);
},
{
closed = 0;
nodes = (
"317 192 LINE",
"451 192 LINE"
);
},
{
closed = 0;
nodes = (
"61 320 LINE",
"195 320 LINE"
);
},
{
closed = 0;
nodes = (
"317 320 LINE",
"451 320 LINE"
);
},
{
closed = 0;
nodes = (
"61 448 LINE",
"387 448 LINE"
);
},
{
closed = 0;
nodes = (
"61 576 LINE",
"195 576 LINE"
);
},
{
closed = 0;
nodes = (
"317 576 LINE",
"451 576 LINE"
);
},
{
closed = 0;
nodes = (
"61 704 LINE",
"195 704 LINE"
);
},
{
closed = 0;
nodes = (
"317 704 LINE",
"451 704 LINE"
);
},
{
closed = 0;
nodes = (
"-3 832 LINE",
"387 832 LINE"
);
}
);
userData = {
com.typemytype.robofont.mark = (
0.656,
1,
0.6,
1
);
};
width = 512;
},
{
layerId = "968AADD4-6AAB-4A21-B439-CFC52095EED4";
paths = (
{
closed = 1;
nodes = (
"61 131 LINE",
"61 765 LINE",
"-3 765 LINE",
"-3 899 LINE",
"387 899 LINE",
"387 771 LINE",
"451 771 LINE",
"451 509 LINE",
"387 509 LINE",
"387 387 LINE",
"451 387 LINE",
"451 125 LINE",
"387 125 LINE",
"387 -3 LINE",
"-3 -3 LINE",
"-3 131 LINE"
);
},
{
closed = 1;
nodes = (
"195 381 LINE",
"195 131 LINE",
"317 131 LINE",
"317 381 LINE"
);
},
{
closed = 1;
nodes = (
"317 515 LINE",
"317 765 LINE",
"195 765 LINE",
"195 515 LINE"
);
}
);
userData = {
com.typemytype.robofont.mark = (
0.656,
1,
0.6,
1
);
};
width = 512;
},
{
components = (
{
name = pixel.6;
transform = "{1, 0, 0, 1, -5, 54}";
},
{
name = pixel.2;
transform = "{1, 0, 0, 1, 59, 182}";
},
{
name = pixel.2;
transform = "{1, 0, 0, 1, 315, 182}";
},
{
name = pixel.2;
transform = "{1, 0, 0, 1, 59, 310}";
},
{
name = pixel.2;
transform = "{1, 0, 0, 1, 315, 310}";
},
{
name = pixel.5;
transform = "{1, 0, 0, 1, 59, 438}";
},
{
name = pixel.2;
transform = "{1, 0, 0, 1, 59, 566}";
},
{
name = pixel.2;
transform = "{1, 0, 0, 1, 315, 566}";
},
{
name = pixel.2;
transform = "{1, 0, 0, 1, 59, 694}";
},
{
name = pixel.2;
transform = "{1, 0, 0, 1, 315, 694}";
},
{
name = pixel.6;
transform = "{1, 0, 0, 1, -5, 822}";
}
);
layerId = "EF047752-ED93-49D3-A4D1-D66A6AAE90C7";
width = 512;
},
{
components = (
{
name = pixel.6;
transform = "{1, 0, 0, 1, -63, -61}";
},
{
name = pixel.2;
transform = "{1, 0, 0, 1, 1, 67}";
},
{
name = pixel.2;
transform = "{1, 0, 0, 1, 257, 67}";
},
{
name = pixel.2;
transform = "{1, 0, 0, 1, 1, 195}";
},
{
name = pixel.2;
transform = "{1, 0, 0, 1, 257, 195}";
},
{
name = pixel.5;
transform = "{1, 0, 0, 1, 1, 323}";
},
{
name = pixel.2;
transform = "{1, 0, 0, 1, 1, 451}";
},
{
name = pixel.2;
transform = "{1, 0, 0, 1, 257, 451}";
},
{
name = pixel.2;
transform = "{1, 0, 0, 1, 1, 579}";
},
{
name = pixel.2;
transform = "{1, 0, 0, 1, 257, 579}";
},
{
name = pixel.6;
transform = "{1, 0, 0, 1, -63, 707}";
}
);
layerId = "164C8123-3F0E-4C99-877D-0E85C432A9CE";
width = 512;
},
{
components = (
{
name = pixel.6;
transform = "{1, 0, 0, 1, -93, 54}";
},
{
name = pixel.2;
transform = "{1, 0, 0, 1, -29, 182}";
},
{
name = pixel.2;
transform = "{1, 0, 0, 1, 227, 182}";
},
{
name = pixel.2;
transform = "{1, 0, 0, 1, -29, 310}";
},
{
name = pixel.2;
transform = "{1, 0, 0, 1, 227, 310}";
},
{
name = pixel.5;
transform = "{1, 0, 0, 1, -29, 438}";
},
{
name = pixel.2;
transform = "{1, 0, 0, 1, -29, 566}";
},
{
name = pixel.2;
transform = "{1, 0, 0, 1, 227, 566}";
},
{
name = pixel.2;
transform = "{1, 0, 0, 1, -29, 694}";
},
{
name = pixel.2;
transform = "{1, 0, 0, 1, 227, 694}";
},
{
name = pixel.6;
transform = "{1, 0, 0, 1, -93, 822}";
}
);
layerId = "EDC3ADDC-530C-4ECE-AAC6-732B149A8D4A";
width = 512;
},
{
components = (
{
name = pixel.6;
transform = "{1, 0, 0, 1, -125, -61}";
},
{
name = pixel.2;
transform = "{1, 0, 0, 1, -61, 67}";
},
{
name = pixel.2;
transform = "{1, 0, 0, 1, 195, 67}";
},
{
name = pixel.2;
transform = "{1, 0, 0, 1, -61, 195}";
},
{
name = pixel.2;
transform = "{1, 0, 0, 1, 195, 195}";
},
{
name = pixel.5;
transform = "{1, 0, 0, 1, -61, 323}";
},
{
name = pixel.2;
transform = "{1, 0, 0, 1, -61, 451}";
},
{
name = pixel.2;
transform = "{1, 0, 0, 1, 195, 451}";
},
{
name = pixel.2;
transform = "{1, 0, 0, 1, -61, 579}";
},
{
name = pixel.2;
transform = "{1, 0, 0, 1, 195, 579}";
},
{
name = pixel.6;
transform = "{1, 0, 0, 1, -125, 707}";
}
);
layerId = "38088322-78A3-4F4F-B46E-F8355B0BCD96";
width = 512;
}
);
unicode = 0042;
},
{
glyphname = C;
lastChange = "2019-07-27 13:35:41 +0000";
layers = (
{
background = {
paths = (
{
closed = 1;
nodes = (
"61 643 LINE",
"61 771 LINE",
"125 771 LINE",
"125 899 LINE",
"387 899 LINE",
"387 771 LINE",
"451 771 LINE",
"451 637 LINE",
"317 637 LINE",
"317 765 LINE",
"195 765 LINE",
"195 637 LINE",
"131 637 LINE",
"131 259 LINE",
"195 259 LINE",
"195 131 LINE",
"317 131 LINE",
"317 259 LINE",
"451 259 LINE",
"451 125 LINE",
"387 125 LINE",
"387 -3 LINE",
"125 -3 LINE",
"125 125 LINE",
"61 125 LINE",
"61 253 LINE",
"-3 253 LINE",
"-3 643 LINE"
);
}
);
};
layerId = master01;
paths = (
{
closed = 0;
nodes = (
"125 64 LINE",
"387 64 LINE"
);
},
{
closed = 0;
nodes = (
"61 192 LINE",
"195 192 LINE"
);
},
{
closed = 0;
nodes = (
"317 192 LINE",
"451 192 LINE"
);
},
{
closed = 0;
nodes = (
"-3 320 LINE",
"131 320 LINE"
);
},
{
closed = 0;
nodes = (
"-3 448 LINE",
"131 448 LINE"
);
},
{
closed = 0;
nodes = (
"-3 576 LINE",
"131 576 LINE"
);
},
{
closed = 0;
nodes = (
"61 704 LINE",
"195 704 LINE"
);
},
{
closed = 0;
nodes = (
"317 704 LINE",
"451 704 LINE"
);
},
{
closed = 0;
nodes = (
"125 832 LINE",
"387 832 LINE"
);
}
);
userData = {
com.typemytype.robofont.mark = (
0.656,
1,
0.6,
1
);
};
width = 512;
},
{
layerId = "968AADD4-6AAB-4A21-B439-CFC52095EED4";
paths = (
{
closed = 1;
nodes = (
"61 643 LINE",
"61 771 LINE",
"125 771 LINE",
"125 899 LINE",
"387 899 LINE",
"387 771 LINE",
"451 771 LINE",
"451 637 LINE",
"317 637 LINE",
"317 765 LINE",
"195 765 LINE",
"195 637 LINE",
"131 637 LINE",
"131 259 LINE",
"195 259 LINE",
"195 131 LINE",
"317 131 LINE",
"317 259 LINE",
"451 259 LINE",
"451 125 LINE",
"387 125 LINE",
"387 -3 LINE",
"125 -3 LINE",
"125 125 LINE",
"61 125 LINE",
"61 253 LINE",
"-3 253 LINE",
"-3 643 LINE"
);
}
);
userData = {
com.typemytype.robofont.mark = (
0.656,
1,
0.6,
1
);
};
width = 512;
},
{
components = (
{
name = pixel.4;
transform = "{1, 0, 0, 1, 123, 54}";
},
{
name = pixel.2;
transform = "{1, 0, 0, 1, 59, 182}";
},
{
name = pixel.2;
transform = "{1, 0, 0, 1, 315, 182}";
},
{
name = pixel.2;
transform = "{1, 0, 0, 1, -5, 310}";
},
{
name = pixel.2;
transform = "{1, 0, 0, 1, -5, 438}";
},
{
name = pixel.2;
transform = "{1, 0, 0, 1, -5, 566}";
},
{
name = pixel.2;
transform = "{1, 0, 0, 1, 59, 694}";
},
{
name = pixel.2;
transform = "{1, 0, 0, 1, 315, 694}";
},
{
name = pixel.4;
transform = "{1, 0, 0, 1, 123, 822}";
}
);
layerId = "EF047752-ED93-49D3-A4D1-D66A6AAE90C7";
width = 512;
},
{
components = (
{
name = pixel.4;
transform = "{1, 0, 0, 1, 65, -61}";
},
{
name = pixel.2;
transform = "{1, 0, 0, 1, 1, 67}";
},
{
name = pixel.2;
transform = "{1, 0, 0, 1, 257, 67}";
},
{
name = pixel.2;
transform = "{1, 0, 0, 1, -63, 195}";
},
{
name = pixel.2;
transform = "{1, 0, 0, 1, -63, 323}";
},
{
name = pixel.2;
transform = "{1, 0, 0, 1, -63, 451}";
},
{
name = pixel.2;
transform = "{1, 0, 0, 1, 1, 579}";
},
{
name = pixel.2;
transform = "{1, 0, 0, 1, 257, 579}";
},
{
name = pixel.4;
transform = "{1, 0, 0, 1, 65, 707}";
}
);
layerId = "164C8123-3F0E-4C99-877D-0E85C432A9CE";
width = 512;
},
{
components = (
{
name = pixel.4;
transform = "{1, 0, 0, 1, 35, 54}";
},
{
name = pixel.2;
transform = "{1, 0, 0, 1, -29, 182}";
},
{
name = pixel.2;
transform = "{1, 0, 0, 1, 227, 182}";
},
{
name = pixel.2;
transform = "{1, 0, 0, 1, -93, 310}";
},
{
name = pixel.2;
transform = "{1, 0, 0, 1, -93, 438}";
},
{
name = pixel.2;
transform = "{1, 0, 0, 1, -93, 566}";
},
{
name = pixel.2;
transform = "{1, 0, 0, 1, -29, 694}";
},
{
name = pixel.2;
transform = "{1, 0, 0, 1, 227, 694}";
},
{
name = pixel.4;
transform = "{1, 0, 0, 1, 35, 822}";
}
);
layerId = "EDC3ADDC-530C-4ECE-AAC6-732B149A8D4A";
width = 512;
},
{
components = (
{
name = pixel.4;
transform = "{1, 0, 0, 1, 3, -61}";
},
{
name = pixel.2;
transform = "{1, 0, 0, 1, -61, 67}";
},
{
name = pixel.2;
transform = "{1, 0, 0, 1, 195, 67}";
},
{
name = pixel.2;
transform = "{1, 0, 0, 1, -125, 195}";
},
{
name = pixel.2;
transform = "{1, 0, 0, 1, -125, 323}";
},
{
name = pixel.2;
transform = "{1, 0, 0, 1, -125, 451}";
},
{
name = pixel.2;
transform = "{1, 0, 0, 1, -61, 579}";
},
{
name = pixel.2;
transform = "{1, 0, 0, 1, 195, 579}";
},
{
name = pixel.4;
transform = "{1, 0, 0, 1, 3, 707}";
}
);
layerId = "38088322-78A3-4F4F-B46E-F8355B0BCD96";
width = 512;
}
);
unicode = 0043;
},
{
glyphname = Ccedilla;
lastChange = "2019-07-27 13:36:41 +0000";
layers = (
{
background = {
paths = (
{
closed = 1;
nodes = (
"61 643 LINE",
"61 771 LINE",
"125 771 LINE",
"125 899 LINE",
"387 899 LINE",
"387 771 LINE",
"451 771 LINE",
"451 637 LINE",
"317 637 LINE",
"317 765 LINE",
"195 765 LINE",
"195 637 LINE",
"131 637 LINE",
"131 387 LINE",
"195 387 LINE",
"195 259 LINE",
"317 259 LINE",
"317 387 LINE",
"451 387 LINE",
"451 253 LINE",
"387 253 LINE",
"387 125 LINE",
"323 125 LINE",
"323 -3 LINE",
"259 -3 LINE",
"259 -131 LINE",
"125 -131 LINE",
"125 3 LINE",
"253 3 LINE",
"253 125 LINE",
"125 125 LINE",
"125 253 LINE",
"61 253 LINE",
"61 381 LINE",
"-3 381 LINE",
"-3 643 LINE"
);
}
);
};
layerId = master01;
paths = (
{
closed = 0;
nodes = (
"125 -64 LINE",
"259 -64 LINE"
);
},
{
closed = 0;
nodes = (
"253 64 LINE",
"323 64 LINE"
);
},
{
closed = 0;
nodes = (
"125 192 LINE",
"387 192 LINE"
);
},
{
closed = 0;
nodes = (
"61 320 LINE",
"195 320 LINE"
);
},
{
closed = 0;
nodes = (
"317 320 LINE",
"451 320 LINE"
);
},
{
closed = 0;
nodes = (
"-3 448 LINE",
"131 448 LINE"
);
},
{
closed = 0;
nodes = (
"-3 576 LINE",
"131 576 LINE"
);
},
{
closed = 0;
nodes = (
"61 704 LINE",
"195 704 LINE"
);
},
{
closed = 0;
nodes = (
"317 704 LINE",
"451 704 LINE"
);
},
{
closed = 0;
nodes = (
"125 832 LINE",
"387 832 LINE"
);
}
);
userData = {
com.typemytype.robofont.mark = (
0.656,
1,
0.6,
1
);
};
width = 512;
},
{
layerId = "968AADD4-6AAB-4A21-B439-CFC52095EED4";
paths = (
{
closed = 1;
nodes = (
"61 643 LINE",
"61 771 LINE",
"125 771 LINE",
"125 899 LINE",
"387 899 LINE",
"387 771 LINE",
"451 771 LINE",
"451 637 LINE",
"317 637 LINE",
"317 765 LINE",
"195 765 LINE",
"195 637 LINE",
"131 637 LINE",
"131 387 LINE",
"195 387 LINE",
"195 259 LINE",
"317 259 LINE",
"317 387 LINE",
"451 387 LINE",
"451 253 LINE",
"387 253 LINE",
"387 125 LINE",
"323 125 LINE",
"323 -3 LINE",
"259 -3 LINE",
"259 -131 LINE",
"125 -131 LINE",
"125 3 LINE",
"253 3 LINE",
"253 125 LINE",
"125 125 LINE",
"125 253 LINE",
"61 253 LINE",
"61 381 LINE",
"-3 381 LINE",
"-3 643 LINE"
);
}
);
userData = {
com.typemytype.robofont.mark = (
0.656,
1,
0.6,
1
);
};
width = 512;
},
{
components = (
{
name = pixel.2;
transform = "{1, 0, 0, 1, 123, -74}";
},
{
name = pixel.1;
transform = "{1, 0, 0, 1, 251, 54}";
},
{
name = pixel.4;
transform = "{1, 0, 0, 1, 123, 182}";
},
{
name = pixel.2;
transform = "{1, 0, 0, 1, 59, 310}";
},
{
name = pixel.2;
transform = "{1, 0, 0, 1, 315, 310}";
},
{
name = pixel.2;
transform = "{1, 0, 0, 1, -5, 438}";
},
{
name = pixel.2;
transform = "{1, 0, 0, 1, -5, 566}";
},
{
name = pixel.2;
transform = "{1, 0, 0, 1, 59, 694}";
},
{
name = pixel.2;
transform = "{1, 0, 0, 1, 315, 694}";
},
{
name = pixel.4;
transform = "{1, 0, 0, 1, 123, 822}";
}
);
layerId = "EF047752-ED93-49D3-A4D1-D66A6AAE90C7";
width = 512;
},
{
background = {
paths = (
{
closed = 1;
nodes = (
"137 -189 OFFCURVE",
"65 -115 OFFCURVE",
"65 -13 OFFCURVE",
"137 61 OFFCURVE",
"190 61 QCURVE SMOOTH",
"194 61 LINE SMOOTH",
"247 61 OFFCURVE",
"319 -13 OFFCURVE",
"319 -115 OFFCURVE",
"247 -189 OFFCURVE",
"194 -189 QCURVE SMOOTH",
"190 -189 LINE SMOOTH"
);
},
{
closed = 1;
nodes = (
"265 -61 OFFCURVE",
"193 13 OFFCURVE",
"193 115 OFFCURVE",
"265 189 OFFCURVE",
"318 189 QCURVE SMOOTH",
"258 189 LINE SMOOTH",
"311 189 OFFCURVE",
"383 115 OFFCURVE",
"383 13 OFFCURVE",
"311 -61 OFFCURVE",
"258 -61 QCURVE SMOOTH",
"318 -61 LINE SMOOTH"
);
},
{
closed = 1;
nodes = (
"145 67 OFFCURVE",
"65 141 OFFCURVE",
"65 243 OFFCURVE",
"145 317 OFFCURVE",
"215 317 QCURVE SMOOTH",
"297 317 LINE SMOOTH",
"367 317 OFFCURVE",
"447 243 OFFCURVE",
"447 141 OFFCURVE",
"367 67 OFFCURVE",
"297 67 QCURVE SMOOTH",
"215 67 LINE SMOOTH"
);
},
{
closed = 1;
nodes = (
"73 195 OFFCURVE",
"1 269 OFFCURVE",
"1 371 OFFCURVE",
"73 445 OFFCURVE",
"126 445 QCURVE SMOOTH",
"130 445 LINE SMOOTH",
"183 445 OFFCURVE",
"255 371 OFFCURVE",
"255 269 OFFCURVE",
"183 195 OFFCURVE",
"130 195 QCURVE SMOOTH",
"126 195 LINE SMOOTH"
);
},
{
closed = 1;
nodes = (
"329 195 OFFCURVE",
"257 269 OFFCURVE",
"257 371 OFFCURVE",
"329 445 OFFCURVE",
"382 445 QCURVE SMOOTH",
"386 445 LINE SMOOTH",
"439 445 OFFCURVE",
"511 371 OFFCURVE",
"511 269 OFFCURVE",
"439 195 OFFCURVE",
"386 195 QCURVE SMOOTH",
"382 195 LINE SMOOTH"
);
},
{
closed = 1;
nodes = (
"9 323 OFFCURVE",
"-63 397 OFFCURVE",
"-63 499 OFFCURVE",
"9 573 OFFCURVE",
"62 573 QCURVE SMOOTH",
"66 573 LINE SMOOTH",
"119 573 OFFCURVE",
"191 499 OFFCURVE",
"191 397 OFFCURVE",
"119 323 OFFCURVE",
"66 323 QCURVE SMOOTH",
"62 323 LINE SMOOTH"
);
},
{
closed = 1;
nodes = (
"9 451 OFFCURVE",
"-63 525 OFFCURVE",
"-63 627 OFFCURVE",
"9 701 OFFCURVE",
"62 701 QCURVE SMOOTH",
"66 701 LINE SMOOTH",
"119 701 OFFCURVE",
"191 627 OFFCURVE",
"191 525 OFFCURVE",
"119 451 OFFCURVE",
"66 451 QCURVE SMOOTH",
"62 451 LINE SMOOTH"
);
},
{
closed = 1;
nodes = (
"73 579 OFFCURVE",
"1 653 OFFCURVE",
"1 755 OFFCURVE",
"73 829 OFFCURVE",
"126 829 QCURVE SMOOTH",
"130 829 LINE SMOOTH",
"183 829 OFFCURVE",
"255 755 OFFCURVE",
"255 653 OFFCURVE",
"183 579 OFFCURVE",
"130 579 QCURVE SMOOTH",
"126 579 LINE SMOOTH"
);
},
{
closed = 1;
nodes = (
"329 579 OFFCURVE",
"257 653 OFFCURVE",
"257 755 OFFCURVE",
"329 829 OFFCURVE",
"382 829 QCURVE SMOOTH",
"386 829 LINE SMOOTH",
"439 829 OFFCURVE",
"511 755 OFFCURVE",
"511 653 OFFCURVE",
"439 579 OFFCURVE",
"386 579 QCURVE SMOOTH",
"382 579 LINE SMOOTH"
);
},
{
closed = 1;
nodes = (
"145 707 OFFCURVE",
"65 781 OFFCURVE",
"65 883 OFFCURVE",
"145 957 OFFCURVE",
"215 957 QCURVE SMOOTH",
"297 957 LINE SMOOTH",
"367 957 OFFCURVE",
"447 883 OFFCURVE",
"447 781 OFFCURVE",
"367 707 OFFCURVE",
"297 707 QCURVE SMOOTH",
"215 707 LINE SMOOTH"
);
}
);
};
components = (
{
name = pixel.2;
transform = "{1, 0, 0, 1, 65, -189}";
},
{
name = pixel.1;
transform = "{1, 0, 0, 1, 193, -61}";
},
{
name = pixel.4;
transform = "{1, 0, 0, 1, 65, 67}";
},
{
name = pixel.2;
transform = "{1, 0, 0, 1, 1, 195}";
},
{
name = pixel.2;
transform = "{1, 0, 0, 1, 257, 195}";
},
{
name = pixel.2;
transform = "{1, 0, 0, 1, -63, 323}";
},
{
name = pixel.2;
transform = "{1, 0, 0, 1, -63, 451}";
},
{
name = pixel.2;
transform = "{1, 0, 0, 1, 1, 579}";
},
{
name = pixel.2;
transform = "{1, 0, 0, 1, 257, 579}";
},
{
name = pixel.4;
transform = "{1, 0, 0, 1, 65, 707}";
}
);
layerId = "164C8123-3F0E-4C99-877D-0E85C432A9CE";
width = 512;
},
{
components = (
{
name = pixel.2;
transform = "{1, 0, 0, 1, 35, -74}";
},
{
name = pixel.1;
transform = "{1, 0, 0, 1, 163, 54}";
},
{
name = pixel.4;
transform = "{1, 0, 0, 1, 35, 182}";
},
{
name = pixel.2;
transform = "{1, 0, 0, 1, -29, 310}";
},
{
name = pixel.2;
transform = "{1, 0, 0, 1, 227, 310}";
},
{
name = pixel.2;
transform = "{1, 0, 0, 1, -93, 438}";
},
{
name = pixel.2;
transform = "{1, 0, 0, 1, -93, 566}";
},
{
name = pixel.2;
transform = "{1, 0, 0, 1, -29, 694}";
},
{
name = pixel.2;
transform = "{1, 0, 0, 1, 227, 694}";
},
{
name = pixel.4;
transform = "{1, 0, 0, 1, 35, 822}";
}
);
layerId = "EDC3ADDC-530C-4ECE-AAC6-732B149A8D4A";
width = 512;
},
{
components = (
{
name = pixel.2;
transform = "{1, 0, 0, 1, 3, -189}";
},
{
name = pixel.1;
transform = "{1, 0, 0, 1, 131, -61}";
},
{
name = pixel.4;
transform = "{1, 0, 0, 1, 3, 67}";
},
{
name = pixel.2;
transform = "{1, 0, 0, 1, -61, 195}";
},
{
name = pixel.2;
transform = "{1, 0, 0, 1, 195, 195}";
},
{
name = pixel.2;
transform = "{1, 0, 0, 1, -125, 323}";
},
{
name = pixel.2;
transform = "{1, 0, 0, 1, -125, 451}";
},
{
name = pixel.2;
transform = "{1, 0, 0, 1, -61, 579}";
},
{
name = pixel.2;
transform = "{1, 0, 0, 1, 195, 579}";
},
{
name = pixel.4;
transform = "{1, 0, 0, 1, 3, 707}";
}
);
layerId = "38088322-78A3-4F4F-B46E-F8355B0BCD96";
width = 512;
}
);
unicode = 00C7;
},
{
glyphname = D;
lastChange = "2019-07-27 13:36:41 +0000";
layers = (
{
background = {
paths = (
{
closed = 1;
nodes = (
"61 131 LINE",
"61 765 LINE",
"-3 765 LINE",
"-3 899 LINE",
"323 899 LINE",
"323 771 LINE",
"387 771 LINE",
"387 643 LINE",
"451 643 LINE",
"451 253 LINE",
"387 253 LINE",
"387 125 LINE",
"323 125 LINE",
"323 -3 LINE",
"-3 -3 LINE",
"-3 131 LINE"
);
},
{
closed = 1;
nodes = (
"195 765 LINE",
"195 131 LINE",
"253 131 LINE",
"253 259 LINE",
"317 259 LINE",
"317 637 LINE",
"253 637 LINE",
"253 765 LINE"
);
}
);
};
layerId = master01;
paths = (
{
closed = 0;
nodes = (
"-3 64 LINE",
"323 64 LINE"
);
},
{
closed = 0;
nodes = (
"61 192 LINE",
"195 192 LINE"
);
},
{
closed = 0;
nodes = (
"253 192 LINE",
"387 192 LINE"
);
},
{
closed = 0;
nodes = (
"61 320 LINE",
"195 320 LINE"
);
},
{
closed = 0;
nodes = (
"317 320 LINE",
"451 320 LINE"
);
},
{
closed = 0;
nodes = (
"61 448 LINE",
"195 448 LINE"
);
},
{
closed = 0;
nodes = (
"317 448 LINE",
"451 448 LINE"
);
},
{
closed = 0;
nodes = (
"61 576 LINE",
"195 576 LINE"
);
},
{
closed = 0;
nodes = (
"317 576 LINE",
"451 576 LINE"
);
},
{
closed = 0;
nodes = (
"61 704 LINE",
"195 704 LINE"
);
},
{
closed = 0;
nodes = (
"253 704 LINE",
"387 704 LINE"
);
},
{
closed = 0;
nodes = (
"-3 832 LINE",
"323 832 LINE"
);
}
);
userData = {
com.typemytype.robofont.mark = (
0.656,
1,
0.6,
1
);
};
width = 512;
},
{
layerId = "968AADD4-6AAB-4A21-B439-CFC52095EED4";
paths = (
{
closed = 1;
nodes = (
"61 131 LINE",
"61 765 LINE",
"-3 765 LINE",
"-3 899 LINE",
"323 899 LINE",
"323 771 LINE",
"387 771 LINE",
"387 643 LINE",
"451 643 LINE",
"451 253 LINE",
"387 253 LINE",
"387 125 LINE",
"323 125 LINE",
"323 -3 LINE",
"-3 -3 LINE",
"-3 131 LINE"
);
},
{
closed = 1;
nodes = (
"195 765 LINE",
"195 131 LINE",
"253 131 LINE",
"253 259 LINE",
"317 259 LINE",
"317 637 LINE",
"253 637 LINE",
"253 765 LINE"
);
}
);
userData = {
com.typemytype.robofont.mark = (
0.656,
1,
0.6,
1
);
};
width = 512;
},
{
components = (
{
name = pixel.5;
transform = "{1, 0, 0, 1, -5, 54}";
},
{
name = pixel.2;
transform = "{1, 0, 0, 1, 59, 182}";
},
{
name = pixel.2;
transform = "{1, 0, 0, 1, 251, 182}";
},
{
name = pixel.2;
transform = "{1, 0, 0, 1, 59, 310}";
},
{
name = pixel.2;
transform = "{1, 0, 0, 1, 315, 310}";
},
{
name = pixel.2;
transform = "{1, 0, 0, 1, 59, 438}";
},
{
name = pixel.2;
transform = "{1, 0, 0, 1, 315, 438}";
},
{
name = pixel.2;
transform = "{1, 0, 0, 1, 59, 566}";
},
{
name = pixel.2;
transform = "{1, 0, 0, 1, 315, 566}";
},
{
name = pixel.2;
transform = "{1, 0, 0, 1, 59, 694}";
},
{
name = pixel.2;
transform = "{1, 0, 0, 1, 251, 694}";
},
{
name = pixel.5;
transform = "{1, 0, 0, 1, -5, 822}";
}
);
layerId = "EF047752-ED93-49D3-A4D1-D66A6AAE90C7";
width = 512;
},
{
components = (
{
name = pixel.5;
transform = "{1, 0, 0, 1, -63, -61}";
},
{
name = pixel.2;
transform = "{1, 0, 0, 1, 1, 67}";
},
{
name = pixel.2;
transform = "{1, 0, 0, 1, 193, 67}";
},
{
name = pixel.2;
transform = "{1, 0, 0, 1, 1, 195}";
},
{
name = pixel.2;
transform = "{1, 0, 0, 1, 257, 195}";
},
{
name = pixel.2;
transform = "{1, 0, 0, 1, 1, 323}";
},
{
name = pixel.2;
transform = "{1, 0, 0, 1, 257, 323}";
},
{
name = pixel.2;
transform = "{1, 0, 0, 1, 1, 451}";
},
{
name = pixel.2;
transform = "{1, 0, 0, 1, 257, 451}";
},
{
name = pixel.2;
transform = "{1, 0, 0, 1, 1, 579}";
},
{
name = pixel.2;
transform = "{1, 0, 0, 1, 193, 579}";
},
{
name = pixel.5;
transform = "{1, 0, 0, 1, -63, 707}";
}
);
layerId = "164C8123-3F0E-4C99-877D-0E85C432A9CE";
width = 512;
},
{
components = (
{
name = pixel.5;
transform = "{1, 0, 0, 1, -93, 54}";
},
{
name = pixel.2;
transform = "{1, 0, 0, 1, -29, 182}";
},
{
name = pixel.2;
transform = "{1, 0, 0, 1, 163, 182}";
},
{
name = pixel.2;
transform = "{1, 0, 0, 1, -29, 310}";
},
{
name = pixel.2;
transform = "{1, 0, 0, 1, 227, 310}";
},
{
name = pixel.2;
transform = "{1, 0, 0, 1, -29, 438}";
},
{
name = pixel.2;
transform = "{1, 0, 0, 1, 227, 438}";
},
{
name = pixel.2;
transform = "{1, 0, 0, 1, -29, 566}";
},
{
name = pixel.2;
transform = "{1, 0, 0, 1, 227, 566}";
},
{
name = pixel.2;
transform = "{1, 0, 0, 1, -29, 694}";
},
{
name = pixel.2;
transform = "{1, 0, 0, 1, 163, 694}";
},
{
name = pixel.5;
transform = "{1, 0, 0, 1, -93, 822}";
}
);
layerId = "EDC3ADDC-530C-4ECE-AAC6-732B149A8D4A";
width = 512;
},
{
components = (
{
name = pixel.5;
transform = "{1, 0, 0, 1, -125, -61}";
},
{
name = pixel.2;
transform = "{1, 0, 0, 1, -61, 67}";
},
{
name = pixel.2;
transform = "{1, 0, 0, 1, 131, 67}";
},
{
name = pixel.2;
transform = "{1, 0, 0, 1, -61, 195}";
},
{
name = pixel.2;
transform = "{1, 0, 0, 1, 195, 195}";
},
{
name = pixel.2;
transform = "{1, 0, 0, 1, -61, 323}";
},
{
name = pixel.2;
transform = "{1, 0, 0, 1, 195, 323}";
},
{
name = pixel.2;
transform = "{1, 0, 0, 1, -61, 451}";
},
{
name = pixel.2;
transform = "{1, 0, 0, 1, 195, 451}";
},
{
name = pixel.2;
transform = "{1, 0, 0, 1, -61, 579}";
},
{
name = pixel.2;
transform = "{1, 0, 0, 1, 131, 579}";
},
{
name = pixel.5;
transform = "{1, 0, 0, 1, -125, 707}";
}
);
layerId = "38088322-78A3-4F4F-B46E-F8355B0BCD96";
width = 512;
}
);
unicode = 0044;
},
{
glyphname = Eth;
lastChange = "2019-07-27 13:36:41 +0000";
layers = (
{
background = {
paths = (
{
closed = 1;
nodes = (
"323 899 LINE",
"323 771 LINE",
"387 771 LINE",
"387 643 LINE",
"451 643 LINE",
"451 253 LINE",
"387 253 LINE",
"387 125 LINE",
"323 125 LINE",
"323 -3 LINE",
"-3 -3 LINE",
"-3 131 LINE",
"61 131 LINE",
"61 381 LINE",
"-3 381 LINE",
"-3 515 LINE",
"61 515 LINE",
"61 765 LINE",
"-3 765 LINE",
"-3 899 LINE"
);
},
{
closed = 1;
nodes = (
"195 765 LINE",
"195 515 LINE",
"259 515 LINE",
"259 381 LINE",
"195 381 LINE",
"195 131 LINE",
"253 131 LINE",
"253 259 LINE",
"317 259 LINE",
"317 637 LINE",
"253 637 LINE",
"253 765 LINE"
);
}
);
};
layerId = master01;
paths = (
{
closed = 0;
nodes = (
"-3 64 LINE",
"323 64 LINE"
);
},
{
closed = 0;
nodes = (
"61 192 LINE",
"195 192 LINE"
);
},
{
closed = 0;
nodes = (
"253 192 LINE",
"387 192 LINE"
);
},
{
closed = 0;
nodes = (
"61 320 LINE",
"195 320 LINE"
);
},
{
closed = 0;
nodes = (
"317 320 LINE",
"451 320 LINE"
);
},
{
closed = 0;
nodes = (
"-3 448 LINE",
"259 448 LINE"
);
},
{
closed = 0;
nodes = (
"317 448 LINE",
"451 448 LINE"
);
},
{
closed = 0;
nodes = (
"61 576 LINE",
"195 576 LINE"
);
},
{
closed = 0;
nodes = (
"317 576 LINE",
"451 576 LINE"
);
},
{
closed = 0;
nodes = (
"61 704 LINE",
"195 704 LINE"
);
},
{
closed = 0;
nodes = (
"253 704 LINE",
"387 704 LINE"
);
},
{
closed = 0;
nodes = (
"-3 832 LINE",
"323 832 LINE"
);
}
);
userData = {
com.typemytype.robofont.mark = (
0.656,
1,
0.6,
1
);
};
width = 512;
},
{
layerId = "968AADD4-6AAB-4A21-B439-CFC52095EED4";
paths = (
{
closed = 1;
nodes = (
"323 899 LINE",
"323 771 LINE",
"387 771 LINE",
"387 643 LINE",
"451 643 LINE",
"451 253 LINE",
"387 253 LINE",
"387 125 LINE",
"323 125 LINE",
"323 -3 LINE",
"-3 -3 LINE",
"-3 131 LINE",
"61 131 LINE",
"61 381 LINE",
"-3 381 LINE",
"-3 515 LINE",
"61 515 LINE",
"61 765 LINE",
"-3 765 LINE",
"-3 899 LINE"
);
},
{
closed = 1;
nodes = (
"195 765 LINE",
"195 515 LINE",
"259 515 LINE",
"259 381 LINE",
"195 381 LINE",
"195 131 LINE",
"253 131 LINE",
"253 259 LINE",
"317 259 LINE",
"317 637 LINE",
"253 637 LINE",
"253 765 LINE"
);
}
);
userData = {
com.typemytype.robofont.mark = (
0.656,
1,
0.6,
1
);
};
width = 512;
},
{
components = (
{
name = pixel.5;
transform = "{1, 0, 0, 1, -5, 54}";
},
{
name = pixel.2;
transform = "{1, 0, 0, 1, 59, 182}";
},
{
name = pixel.2;
transform = "{1, 0, 0, 1, 251, 182}";
},
{
name = pixel.2;
transform = "{1, 0, 0, 1, 59, 310}";
},
{
name = pixel.2;
transform = "{1, 0, 0, 1, 315, 310}";
},
{
name = pixel.4;
transform = "{1, 0, 0, 1, -5, 438}";
},
{
name = pixel.2;
transform = "{1, 0, 0, 1, 315, 438}";
},
{
name = pixel.2;
transform = "{1, 0, 0, 1, 59, 566}";
},
{
name = pixel.2;
transform = "{1, 0, 0, 1, 315, 566}";
},
{
name = pixel.2;
transform = "{1, 0, 0, 1, 59, 694}";
},
{
name = pixel.2;
transform = "{1, 0, 0, 1, 251, 694}";
},
{
name = pixel.5;
transform = "{1, 0, 0, 1, -5, 822}";
}
);
layerId = "EF047752-ED93-49D3-A4D1-D66A6AAE90C7";
width = 512;
},
{
components = (
{
name = pixel.5;
transform = "{1, 0, 0, 1, -63, -61}";
},
{
name = pixel.2;
transform = "{1, 0, 0, 1, 1, 67}";
},
{
name = pixel.2;
transform = "{1, 0, 0, 1, 193, 67}";
},
{
name = pixel.2;
transform = "{1, 0, 0, 1, 1, 195}";
},
{
name = pixel.2;
transform = "{1, 0, 0, 1, 257, 195}";
},
{
name = pixel.4;
transform = "{1, 0, 0, 1, -63, 323}";
},
{
name = pixel.2;
transform = "{1, 0, 0, 1, 257, 323}";
},
{
name = pixel.2;
transform = "{1, 0, 0, 1, 1, 451}";
},
{
name = pixel.2;
transform = "{1, 0, 0, 1, 257, 451}";
},
{
name = pixel.2;
transform = "{1, 0, 0, 1, 1, 579}";
},
{
name = pixel.2;
transform = "{1, 0, 0, 1, 193, 579}";
},
{
name = pixel.5;
transform = "{1, 0, 0, 1, -63, 707}";
}
);
layerId = "164C8123-3F0E-4C99-877D-0E85C432A9CE";
width = 512;
},
{
components = (
{
name = pixel.5;
transform = "{1, 0, 0, 1, -93, 54}";
},
{
name = pixel.2;
transform = "{1, 0, 0, 1, -29, 182}";
},
{
name = pixel.2;
transform = "{1, 0, 0, 1, 163, 182}";
},
{
name = pixel.2;
transform = "{1, 0, 0, 1, -29, 310}";
},
{
name = pixel.2;
transform = "{1, 0, 0, 1, 227, 310}";
},
{
name = pixel.4;
transform = "{1, 0, 0, 1, -93, 438}";
},
{
name = pixel.2;
transform = "{1, 0, 0, 1, 227, 438}";
},
{
name = pixel.2;
transform = "{1, 0, 0, 1, -29, 566}";
},
{
name = pixel.2;
transform = "{1, 0, 0, 1, 227, 566}";
},
{
name = pixel.2;
transform = "{1, 0, 0, 1, -29, 694}";
},
{
name = pixel.2;
transform = "{1, 0, 0, 1, 163, 694}";
},
{
name = pixel.5;
transform = "{1, 0, 0, 1, -93, 822}";
}
);
layerId = "EDC3ADDC-530C-4ECE-AAC6-732B149A8D4A";
width = 512;
},
{
components = (
{
name = pixel.5;
transform = "{1, 0, 0, 1, -125, -61}";
},
{
name = pixel.2;
transform = "{1, 0, 0, 1, -61, 67}";
},
{
name = pixel.2;
transform = "{1, 0, 0, 1, 131, 67}";
},
{
name = pixel.2;
transform = "{1, 0, 0, 1, -61, 195}";
},
{
name = pixel.2;
transform = "{1, 0, 0, 1, 195, 195}";
},
{
name = pixel.4;
transform = "{1, 0, 0, 1, -125, 323}";
},
{
name = pixel.2;
transform = "{1, 0, 0, 1, 195, 323}";
},
{
name = pixel.2;
transform = "{1, 0, 0, 1, -61, 451}";
},
{
name = pixel.2;
transform = "{1, 0, 0, 1, 195, 451}";
},
{
name = pixel.2;
transform = "{1, 0, 0, 1, -61, 579}";
},
{
name = pixel.2;
transform = "{1, 0, 0, 1, 131, 579}";
},
{
name = pixel.5;
transform = "{1, 0, 0, 1, -125, 707}";
}
);
layerId = "38088322-78A3-4F4F-B46E-F8355B0BCD96";
width = 512;
}
);
unicode = 00D0;
},
{
glyphname = E;
lastChange = "2019-07-27 13:36:41 +0000";
layers = (
{
background = {
paths = (
{
closed = 1;
nodes = (
"451 899 LINE",
"451 637 LINE",
"317 637 LINE",
"317 765 LINE",
"195 765 LINE",
"195 515 LINE",
"323 515 LINE",
"323 381 LINE",
"195 381 LINE",
"195 131 LINE",
"317 131 LINE",
"317 259 LINE",
"451 259 LINE",
"451 -3 LINE",
"-3 -3 LINE",
"-3 131 LINE",
"61 131 LINE",
"61 765 LINE",
"-3 765 LINE",
"-3 899 LINE"
);
}
);
};
layerId = master01;
paths = (
{
closed = 0;
nodes = (
"-3 64 LINE",
"451 64 LINE"
);
},
{
closed = 0;
nodes = (
"61 192 LINE",
"195 192 LINE"
);
},
{
closed = 0;
nodes = (
"317 192 LINE",
"451 192 LINE"
);
},
{
closed = 0;
nodes = (
"61 320 LINE",
"195 320 LINE"
);
},
{
closed = 0;
nodes = (
"61 448 LINE",
"323 448 LINE"
);
},
{
closed = 0;
nodes = (
"61 576 LINE",
"195 576 LINE"
);
},
{
closed = 0;
nodes = (
"61 704 LINE",
"195 704 LINE"
);
},
{
closed = 0;
nodes = (
"317 704 LINE",
"451 704 LINE"
);
},
{
closed = 0;
nodes = (
"-3 832 LINE",
"451 832 LINE"
);
}
);
userData = {
com.typemytype.robofont.mark = (
0.656,
1,
0.6,
1
);
};
width = 512;
},
{
layerId = "968AADD4-6AAB-4A21-B439-CFC52095EED4";
paths = (
{
closed = 1;
nodes = (
"451 899 LINE",
"451 637 LINE",
"317 637 LINE",
"317 765 LINE",
"195 765 LINE",
"195 515 LINE",
"323 515 LINE",
"323 381 LINE",
"195 381 LINE",
"195 131 LINE",
"317 131 LINE",
"317 259 LINE",
"451 259 LINE",
"451 -3 LINE",
"-3 -3 LINE",
"-3 131 LINE",
"61 131 LINE",
"61 765 LINE",
"-3 765 LINE",
"-3 899 LINE"
);
}
);
userData = {
com.typemytype.robofont.mark = (
0.656,
1,
0.6,
1
);
};
width = 512;
},
{
components = (
{
name = pixel.7;
transform = "{1, 0, 0, 1, -5, 54}";
},
{
name = pixel.2;
transform = "{1, 0, 0, 1, 59, 182}";
},
{
name = pixel.2;
transform = "{1, 0, 0, 1, 315, 182}";
},
{
name = pixel.2;
transform = "{1, 0, 0, 1, 59, 310}";
},
{
name = pixel.4;
transform = "{1, 0, 0, 1, 59, 438}";
},
{
name = pixel.2;
transform = "{1, 0, 0, 1, 59, 566}";
},
{
name = pixel.2;
transform = "{1, 0, 0, 1, 59, 694}";
},
{
name = pixel.2;
transform = "{1, 0, 0, 1, 315, 694}";
},
{
name = pixel.7;
transform = "{1, 0, 0, 1, -5, 822}";
}
);
layerId = "EF047752-ED93-49D3-A4D1-D66A6AAE90C7";
width = 512;
},
{
components = (
{
name = pixel.7;
transform = "{1, 0, 0, 1, -63, -61}";
},
{
name = pixel.2;
transform = "{1, 0, 0, 1, 1, 67}";
},
{
name = pixel.2;
transform = "{1, 0, 0, 1, 257, 67}";
},
{
name = pixel.2;
transform = "{1, 0, 0, 1, 1, 195}";
},
{
name = pixel.4;
transform = "{1, 0, 0, 1, 1, 323}";
},
{
name = pixel.2;
transform = "{1, 0, 0, 1, 1, 451}";
},
{
name = pixel.2;
transform = "{1, 0, 0, 1, 1, 579}";
},
{
name = pixel.2;
transform = "{1, 0, 0, 1, 257, 579}";
},
{
name = pixel.7;
transform = "{1, 0, 0, 1, -63, 707}";
}
);
layerId = "164C8123-3F0E-4C99-877D-0E85C432A9CE";
width = 512;
},
{
components = (
{
name = pixel.7;
transform = "{1, 0, 0, 1, -93, 54}";
},
{
name = pixel.2;
transform = "{1, 0, 0, 1, -29, 182}";
},
{
name = pixel.2;
transform = "{1, 0, 0, 1, 227, 182}";
},
{
name = pixel.2;
transform = "{1, 0, 0, 1, -29, 310}";
},
{
name = pixel.4;
transform = "{1, 0, 0, 1, -29, 438}";
},
{
name = pixel.2;
transform = "{1, 0, 0, 1, -29, 566}";
},
{
name = pixel.2;
transform = "{1, 0, 0, 1, -29, 694}";
},
{
name = pixel.2;
transform = "{1, 0, 0, 1, 227, 694}";
},
{
name = pixel.7;
transform = "{1, 0, 0, 1, -93, 822}";
}
);
layerId = "EDC3ADDC-530C-4ECE-AAC6-732B149A8D4A";
width = 512;
},
{
components = (
{
name = pixel.7;
transform = "{1, 0, 0, 1, -125, -61}";
},
{
name = pixel.2;
transform = "{1, 0, 0, 1, -61, 67}";
},
{
name = pixel.2;
transform = "{1, 0, 0, 1, 195, 67}";
},
{
name = pixel.2;
transform = "{1, 0, 0, 1, -61, 195}";
},
{
name = pixel.4;
transform = "{1, 0, 0, 1, -61, 323}";
},
{
name = pixel.2;
transform = "{1, 0, 0, 1, -61, 451}";
},
{
name = pixel.2;
transform = "{1, 0, 0, 1, -61, 579}";
},
{
name = pixel.2;
transform = "{1, 0, 0, 1, 195, 579}";
},
{
name = pixel.7;
transform = "{1, 0, 0, 1, -125, 707}";
}
);
layerId = "38088322-78A3-4F4F-B46E-F8355B0BCD96";
width = 512;
}
);
unicode = 0045;
},
{
color = 6;
glyphname = Eacute;
lastChange = "2019-07-27 11:38:00 +0000";
layers = (
{
components = (
{
name = E.case;
},
{
name = acute;
}
);
layerId = master01;
width = 512;
},
{
components = (
{
name = E.case;
},
{
name = acute;
}
);
layerId = "EF047752-ED93-49D3-A4D1-D66A6AAE90C7";
width = 512;
},
{
components = (
{
name = E.case;
},
{
name = acute;
}
);
layerId = "164C8123-3F0E-4C99-877D-0E85C432A9CE";
width = 512;
},
{
components = (
{
name = E.case;
},
{
name = acute;
}
);
layerId = "EDC3ADDC-530C-4ECE-AAC6-732B149A8D4A";
width = 512;
},
{
components = (
{
name = E.case;
},
{
name = acute;
}
);
layerId = "38088322-78A3-4F4F-B46E-F8355B0BCD96";
width = 512;
},
{
background = {
paths = (
{
closed = 1;
nodes = (
"128 640 LINE",
"0 640 LINE",
"0 512 LINE",
"64 512 LINE",
"64 128 LINE",
"0 128 LINE",
"0 0 LINE",
"448 0 LINE",
"448 128 LINE",
"192 128 LINE",
"192 256 LINE",
"320 256 LINE",
"320 384 LINE",
"192 384 LINE",
"192 512 LINE",
"448 512 LINE",
"448 640 LINE",
"192 640 LINE",
"192 768 LINE",
"128 768 LINE"
);
},
{
closed = 1;
nodes = (
"192 768 LINE",
"320 768 LINE",
"320 896 LINE",
"192 896 LINE"
);
}
);
};
components = (
{
name = E.case;
},
{
name = acute;
}
);
layerId = "968AADD4-6AAB-4A21-B439-CFC52095EED4";
width = 512;
}
);
unicode = 00C9;
},
{
color = 6;
glyphname = Ecircumflex;
lastChange = "2019-07-27 11:38:00 +0000";
layers = (
{
components = (
{
name = E.case;
},
{
name = circumflex;
transform = "{1, 0, 0, 1, -64, 0}";
}
);
layerId = master01;
width = 512;
},
{
components = (
{
name = E.case;
},
{
name = circumflex;
transform = "{1, 0, 0, 1, -64, 0}";
}
);
layerId = "EF047752-ED93-49D3-A4D1-D66A6AAE90C7";
width = 512;
},
{
components = (
{
name = E.case;
},
{
name = circumflex;
transform = "{1, 0, 0, 1, -64, 0}";
}
);
layerId = "164C8123-3F0E-4C99-877D-0E85C432A9CE";
width = 512;
},
{
components = (
{
name = E.case;
},
{
name = circumflex;
transform = "{1, 0, 0, 1, -64, 0}";
}
);
layerId = "EDC3ADDC-530C-4ECE-AAC6-732B149A8D4A";
width = 512;
},
{
components = (
{
name = E.case;
},
{
name = circumflex;
transform = "{1, 0, 0, 1, -64, 0}";
}
);
layerId = "38088322-78A3-4F4F-B46E-F8355B0BCD96";
width = 512;
},
{
background = {
paths = (
{
closed = 1;
nodes = (
"128 768 LINE",
"64 768 LINE",
"64 640 LINE",
"0 640 LINE",
"0 512 LINE",
"64 512 LINE",
"64 128 LINE",
"0 128 LINE",
"0 0 LINE",
"448 0 LINE",
"448 128 LINE",
"192 128 LINE",
"192 256 LINE",
"320 256 LINE",
"320 384 LINE",
"192 384 LINE",
"192 512 LINE",
"448 512 LINE",
"448 640 LINE",
"320 640 LINE",
"320 768 LINE",
"256 768 LINE",
"256 896 LINE",
"128 896 LINE"
);
},
{
closed = 1;
nodes = (
"128 768 LINE",
"256 768 LINE",
"256 640 LINE",
"128 640 LINE"
);
}
);
};
components = (
{
name = E.case;
},
{
name = circumflex;
transform = "{1, 0, 0, 1, -64, 0}";
}
);
layerId = "968AADD4-6AAB-4A21-B439-CFC52095EED4";
width = 512;
}
);
unicode = 00CA;
},
{
color = 6;
glyphname = Edieresis;
lastChange = "2019-07-27 11:38:00 +0000";
layers = (
{
components = (
{
name = E.case;
},
{
name = dieresis;
}
);
layerId = master01;
width = 512;
},
{
components = (
{
name = E.case;
},
{
name = dieresis;
}
);
layerId = "EF047752-ED93-49D3-A4D1-D66A6AAE90C7";
width = 512;
},
{
components = (
{
name = E.case;
},
{
name = dieresis;
}
);
layerId = "164C8123-3F0E-4C99-877D-0E85C432A9CE";
width = 512;
},
{
components = (
{
name = E.case;
},
{
name = dieresis;
}
);
layerId = "EDC3ADDC-530C-4ECE-AAC6-732B149A8D4A";
width = 512;
},
{
components = (
{
name = E.case;
},
{
name = dieresis;
}
);
layerId = "38088322-78A3-4F4F-B46E-F8355B0BCD96";
width = 512;
},
{
background = {
paths = (
{
closed = 1;
nodes = (
"192 256 LINE",
"320 256 LINE",
"320 384 LINE",
"192 384 LINE",
"192 512 LINE",
"448 512 LINE",
"448 640 LINE",
"0 640 LINE",
"0 512 LINE",
"64 512 LINE",
"64 128 LINE",
"0 128 LINE",
"0 0 LINE",
"448 0 LINE",
"448 128 LINE",
"192 128 LINE"
);
},
{
closed = 1;
nodes = (
"64 768 LINE",
"192 768 LINE",
"192 896 LINE",
"64 896 LINE"
);
},
{
closed = 1;
nodes = (
"320 768 LINE",
"448 768 LINE",
"448 896 LINE",
"320 896 LINE"
);
}
);
};
components = (
{
name = E.case;
},
{
name = dieresis;
}
);
layerId = "968AADD4-6AAB-4A21-B439-CFC52095EED4";
width = 512;
}
);
unicode = 00CB;
},
{
color = 6;
glyphname = Egrave;
lastChange = "2019-07-27 11:38:00 +0000";
layers = (
{
components = (
{
name = E.case;
},
{
name = grave;
transform = "{1, 0, 0, 1, -128, 0}";
}
);
layerId = master01;
width = 512;
},
{
components = (
{
name = E.case;
},
{
name = grave;
transform = "{1, 0, 0, 1, -128, 0}";
}
);
layerId = "EF047752-ED93-49D3-A4D1-D66A6AAE90C7";
width = 512;
},
{
components = (
{
name = E.case;
},
{
name = grave;
transform = "{1, 0, 0, 1, -128, 0}";
}
);
layerId = "164C8123-3F0E-4C99-877D-0E85C432A9CE";
width = 512;
},
{
components = (
{
name = E.case;
},
{
name = grave;
transform = "{1, 0, 0, 1, -128, 0}";
}
);
layerId = "EDC3ADDC-530C-4ECE-AAC6-732B149A8D4A";
width = 512;
},
{
components = (
{
name = E.case;
},
{
name = grave;
transform = "{1, 0, 0, 1, -128, 0}";
}
);
layerId = "38088322-78A3-4F4F-B46E-F8355B0BCD96";
width = 512;
},
{
background = {
paths = (
{
closed = 1;
nodes = (
"192 256 LINE",
"320 256 LINE",
"320 384 LINE",
"192 384 LINE",
"192 512 LINE",
"448 512 LINE",
"448 640 LINE",
"256 640 LINE",
"256 768 LINE",
"192 768 LINE",
"192 896 LINE",
"64 896 LINE",
"64 768 LINE",
"192 768 LINE",
"192 640 LINE",
"0 640 LINE",
"0 512 LINE",
"64 512 LINE",
"64 128 LINE",
"0 128 LINE",
"0 0 LINE",
"448 0 LINE",
"448 128 LINE",
"192 128 LINE"
);
}
);
};
components = (
{
name = E.case;
},
{
name = grave;
transform = "{1, 0, 0, 1, -128, 0}";
}
);
layerId = "968AADD4-6AAB-4A21-B439-CFC52095EED4";
width = 512;
}
);
unicode = 00C8;
},
{
glyphname = F;
lastChange = "2019-07-27 13:36:41 +0000";
layers = (
{
background = {
paths = (
{
closed = 1;
nodes = (
"61 131 LINE",
"61 765 LINE",
"-3 765 LINE",
"-3 899 LINE",
"451 899 LINE",
"451 637 LINE",
"317 637 LINE",
"317 765 LINE",
"195 765 LINE",
"195 515 LINE",
"323 515 LINE",
"323 381 LINE",
"195 381 LINE",
"195 131 LINE",
"259 131 LINE",
"259 -3 LINE",
"-3 -3 LINE",
"-3 131 LINE"
);
}
);
};
layerId = master01;
paths = (
{
closed = 0;
nodes = (
"-3 64 LINE",
"259 64 LINE"
);
},
{
closed = 0;
nodes = (
"61 192 LINE",
"195 192 LINE"
);
},
{
closed = 0;
nodes = (
"61 320 LINE",
"195 320 LINE"
);
},
{
closed = 0;
nodes = (
"61 448 LINE",
"323 448 LINE"
);
},
{
closed = 0;
nodes = (
"61 576 LINE",
"195 576 LINE"
);
},
{
closed = 0;
nodes = (
"61 704 LINE",
"195 704 LINE"
);
},
{
closed = 0;
nodes = (
"317 704 LINE",
"451 704 LINE"
);
},
{
closed = 0;
nodes = (
"-3 832 LINE",
"451 832 LINE"
);
}
);
userData = {
com.typemytype.robofont.mark = (
0.656,
1,
0.6,
1
);
};
width = 512;
},
{
layerId = "968AADD4-6AAB-4A21-B439-CFC52095EED4";
paths = (
{
closed = 1;
nodes = (
"61 131 LINE",
"61 765 LINE",
"-3 765 LINE",
"-3 899 LINE",
"451 899 LINE",
"451 637 LINE",
"317 637 LINE",
"317 765 LINE",
"195 765 LINE",
"195 515 LINE",
"323 515 LINE",
"323 381 LINE",
"195 381 LINE",
"195 131 LINE",
"259 131 LINE",
"259 -3 LINE",
"-3 -3 LINE",
"-3 131 LINE"
);
}
);
userData = {
com.typemytype.robofont.mark = (
0.656,
1,
0.6,
1
);
};
width = 512;
},
{
components = (
{
name = pixel.4;
transform = "{1, 0, 0, 1, -5, 54}";
},
{
name = pixel.2;
transform = "{1, 0, 0, 1, 59, 182}";
},
{
name = pixel.2;
transform = "{1, 0, 0, 1, 59, 310}";
},
{
name = pixel.4;
transform = "{1, 0, 0, 1, 59, 438}";
},
{
name = pixel.2;
transform = "{1, 0, 0, 1, 59, 566}";
},
{
name = pixel.2;
transform = "{1, 0, 0, 1, 59, 694}";
},
{
name = pixel.2;
transform = "{1, 0, 0, 1, 315, 694}";
},
{
name = pixel.7;
transform = "{1, 0, 0, 1, -5, 822}";
}
);
layerId = "EF047752-ED93-49D3-A4D1-D66A6AAE90C7";
width = 512;
},
{
components = (
{
name = pixel.4;
transform = "{1, 0, 0, 1, -63, -61}";
},
{
name = pixel.2;
transform = "{1, 0, 0, 1, 1, 67}";
},
{
name = pixel.2;
transform = "{1, 0, 0, 1, 1, 195}";
},
{
name = pixel.4;
transform = "{1, 0, 0, 1, 1, 323}";
},
{
name = pixel.2;
transform = "{1, 0, 0, 1, 1, 451}";
},
{
name = pixel.2;
transform = "{1, 0, 0, 1, 1, 579}";
},
{
name = pixel.2;
transform = "{1, 0, 0, 1, 257, 579}";
},
{
name = pixel.7;
transform = "{1, 0, 0, 1, -63, 707}";
}
);
layerId = "164C8123-3F0E-4C99-877D-0E85C432A9CE";
width = 512;
},
{
components = (
{
name = pixel.4;
transform = "{1, 0, 0, 1, -93, 54}";
},
{
name = pixel.2;
transform = "{1, 0, 0, 1, -29, 182}";
},
{
name = pixel.2;
transform = "{1, 0, 0, 1, -29, 310}";
},
{
name = pixel.4;
transform = "{1, 0, 0, 1, -29, 438}";
},
{
name = pixel.2;
transform = "{1, 0, 0, 1, -29, 566}";
},
{
name = pixel.2;
transform = "{1, 0, 0, 1, -29, 694}";
},
{
name = pixel.2;
transform = "{1, 0, 0, 1, 227, 694}";
},
{
name = pixel.7;
transform = "{1, 0, 0, 1, -93, 822}";
}
);
layerId = "EDC3ADDC-530C-4ECE-AAC6-732B149A8D4A";
width = 512;
},
{
components = (
{
name = pixel.4;
transform = "{1, 0, 0, 1, -125, -61}";
},
{
name = pixel.2;
transform = "{1, 0, 0, 1, -61, 67}";
},
{
name = pixel.2;
transform = "{1, 0, 0, 1, -61, 195}";
},
{
name = pixel.4;
transform = "{1, 0, 0, 1, -61, 323}";
},
{
name = pixel.2;
transform = "{1, 0, 0, 1, -61, 451}";
},
{
name = pixel.2;
transform = "{1, 0, 0, 1, -61, 579}";
},
{
name = pixel.2;
transform = "{1, 0, 0, 1, 195, 579}";
},
{
name = pixel.7;
transform = "{1, 0, 0, 1, -125, 707}";
}
);
layerId = "38088322-78A3-4F4F-B46E-F8355B0BCD96";
width = 512;
}
);
unicode = 0046;
},
{
glyphname = G;
lastChange = "2019-07-27 13:36:41 +0000";
layers = (
{
background = {
paths = (
{
closed = 1;
nodes = (
"451 515 LINE",
"451 -3 LINE",
"125 -3 LINE",
"125 125 LINE",
"61 125 LINE",
"61 253 LINE",
"-3 253 LINE",
"-3 643 LINE",
"61 643 LINE",
"61 771 LINE",
"125 771 LINE",
"125 899 LINE",
"387 899 LINE",
"387 771 LINE",
"451 771 LINE",
"451 637 LINE",
"317 637 LINE",
"317 765 LINE",
"195 765 LINE",
"195 637 LINE",
"131 637 LINE",
"131 259 LINE",
"195 259 LINE",
"195 131 LINE",
"317 131 LINE",
"317 381 LINE",
"253 381 LINE",
"253 515 LINE"
);
}
);
};
layerId = master01;
paths = (
{
closed = 0;
nodes = (
"125 64 LINE",
"451 64 LINE"
);
},
{
closed = 0;
nodes = (
"61 192 LINE",
"195 192 LINE"
);
},
{
closed = 0;
nodes = (
"317 192 LINE",
"451 192 LINE"
);
},
{
closed = 0;
nodes = (
"-3 320 LINE",
"131 320 LINE"
);
},
{
closed = 0;
nodes = (
"317 320 LINE",
"451 320 LINE"
);
},
{
closed = 0;
nodes = (
"-3 448 LINE",
"131 448 LINE"
);
},
{
closed = 0;
nodes = (
"253 448 LINE",
"451 448 LINE"
);
},
{
closed = 0;
nodes = (
"-3 576 LINE",
"131 576 LINE"
);
},
{
closed = 0;
nodes = (
"61 704 LINE",
"195 704 LINE"
);
},
{
closed = 0;
nodes = (
"317 704 LINE",
"451 704 LINE"
);
},
{
closed = 0;
nodes = (
"125 832 LINE",
"387 832 LINE"
);
}
);
userData = {
com.typemytype.robofont.mark = (
0.656,
1,
0.6,
1
);
};
width = 512;
},
{
layerId = "968AADD4-6AAB-4A21-B439-CFC52095EED4";
paths = (
{
closed = 1;
nodes = (
"451 515 LINE",
"451 -3 LINE",
"125 -3 LINE",
"125 125 LINE",
"61 125 LINE",
"61 253 LINE",
"-3 253 LINE",
"-3 643 LINE",
"61 643 LINE",
"61 771 LINE",
"125 771 LINE",
"125 899 LINE",
"387 899 LINE",
"387 771 LINE",
"451 771 LINE",
"451 637 LINE",
"317 637 LINE",
"317 765 LINE",
"195 765 LINE",
"195 637 LINE",
"131 637 LINE",
"131 259 LINE",
"195 259 LINE",
"195 131 LINE",
"317 131 LINE",
"317 381 LINE",
"253 381 LINE",
"253 515 LINE"
);
}
);
userData = {
com.typemytype.robofont.mark = (
0.656,
1,
0.6,
1
);
};
width = 512;
},
{
components = (
{
name = pixel.5;
transform = "{1, 0, 0, 1, 123, 54}";
},
{
name = pixel.2;
transform = "{1, 0, 0, 1, 59, 182}";
},
{
name = pixel.2;
transform = "{1, 0, 0, 1, 315, 182}";
},
{
name = pixel.2;
transform = "{1, 0, 0, 1, -5, 310}";
},
{
name = pixel.2;
transform = "{1, 0, 0, 1, 315, 310}";
},
{
name = pixel.2;
transform = "{1, 0, 0, 1, -5, 438}";
},
{
name = pixel.3;
transform = "{1, 0, 0, 1, 251, 438}";
},
{
name = pixel.2;
transform = "{1, 0, 0, 1, -5, 566}";
},
{
name = pixel.2;
transform = "{1, 0, 0, 1, 59, 694}";
},
{
name = pixel.2;
transform = "{1, 0, 0, 1, 315, 694}";
},
{
name = pixel.4;
transform = "{1, 0, 0, 1, 123, 822}";
}
);
layerId = "EF047752-ED93-49D3-A4D1-D66A6AAE90C7";
width = 512;
},
{
components = (
{
name = pixel.5;
transform = "{1, 0, 0, 1, 65, -61}";
},
{
name = pixel.2;
transform = "{1, 0, 0, 1, 1, 67}";
},
{
name = pixel.2;
transform = "{1, 0, 0, 1, 257, 67}";
},
{
name = pixel.2;
transform = "{1, 0, 0, 1, -63, 195}";
},
{
name = pixel.2;
transform = "{1, 0, 0, 1, 257, 195}";
},
{
name = pixel.2;
transform = "{1, 0, 0, 1, -63, 323}";
},
{
name = pixel.3;
transform = "{1, 0, 0, 1, 193, 323}";
},
{
name = pixel.2;
transform = "{1, 0, 0, 1, -63, 451}";
},
{
name = pixel.2;
transform = "{1, 0, 0, 1, 1, 579}";
},
{
name = pixel.2;
transform = "{1, 0, 0, 1, 257, 579}";
},
{
name = pixel.4;
transform = "{1, 0, 0, 1, 65, 707}";
}
);
layerId = "164C8123-3F0E-4C99-877D-0E85C432A9CE";
width = 512;
},
{
components = (
{
name = pixel.5;
transform = "{1, 0, 0, 1, 35, 54}";
},
{
name = pixel.2;
transform = "{1, 0, 0, 1, -29, 182}";
},
{
name = pixel.2;
transform = "{1, 0, 0, 1, 227, 182}";
},
{
name = pixel.2;
transform = "{1, 0, 0, 1, -93, 310}";
},
{
name = pixel.2;
transform = "{1, 0, 0, 1, 227, 310}";
},
{
name = pixel.2;
transform = "{1, 0, 0, 1, -93, 438}";
},
{
name = pixel.3;
transform = "{1, 0, 0, 1, 163, 438}";
},
{
name = pixel.2;
transform = "{1, 0, 0, 1, -93, 566}";
},
{
name = pixel.2;
transform = "{1, 0, 0, 1, -29, 694}";
},
{
name = pixel.2;
transform = "{1, 0, 0, 1, 227, 694}";
},
{
name = pixel.4;
transform = "{1, 0, 0, 1, 35, 822}";
}
);
layerId = "EDC3ADDC-530C-4ECE-AAC6-732B149A8D4A";
width = 512;
},
{
components = (
{
name = pixel.5;
transform = "{1, 0, 0, 1, 3, -61}";
},
{
name = pixel.2;
transform = "{1, 0, 0, 1, -61, 67}";
},
{
name = pixel.2;
transform = "{1, 0, 0, 1, 195, 67}";
},
{
name = pixel.2;
transform = "{1, 0, 0, 1, -125, 195}";
},
{
name = pixel.2;
transform = "{1, 0, 0, 1, 195, 195}";
},
{
name = pixel.2;
transform = "{1, 0, 0, 1, -125, 323}";
},
{
name = pixel.3;
transform = "{1, 0, 0, 1, 131, 323}";
},
{
name = pixel.2;
transform = "{1, 0, 0, 1, -125, 451}";
},
{
name = pixel.2;
transform = "{1, 0, 0, 1, -61, 579}";
},
{
name = pixel.2;
transform = "{1, 0, 0, 1, 195, 579}";
},
{
name = pixel.4;
transform = "{1, 0, 0, 1, 3, 707}";
}
);
layerId = "38088322-78A3-4F4F-B46E-F8355B0BCD96";
width = 512;
}
);
unicode = 0047;
},
{
glyphname = H;
lastChange = "2019-07-27 13:36:41 +0000";
layers = (
{
background = {
paths = (
{
closed = 1;
nodes = (
"195 899 LINE",
"195 515 LINE",
"317 515 LINE",
"317 899 LINE",
"451 899 LINE",
"451 -3 LINE",
"317 -3 LINE",
"317 381 LINE",
"195 381 LINE",
"195 -3 LINE",
"61 -3 LINE",
"61 899 LINE"
);
}
);
};
layerId = master01;
paths = (
{
closed = 0;
nodes = (
"61 64 LINE",
"195 64 LINE"
);
},
{
closed = 0;
nodes = (
"317 64 LINE",
"451 64 LINE"
);
},
{
closed = 0;
nodes = (
"61 192 LINE",
"195 192 LINE"
);
},
{
closed = 0;
nodes = (
"317 192 LINE",
"451 192 LINE"
);
},
{
closed = 0;
nodes = (
"61 320 LINE",
"195 320 LINE"
);
},
{
closed = 0;
nodes = (
"317 320 LINE",
"451 320 LINE"
);
},
{
closed = 0;
nodes = (
"61 448 LINE",
"451 448 LINE"
);
},
{
closed = 0;
nodes = (
"61 576 LINE",
"195 576 LINE"
);
},
{
closed = 0;
nodes = (
"317 576 LINE",
"451 576 LINE"
);
},
{
closed = 0;
nodes = (
"61 704 LINE",
"195 704 LINE"
);
},
{
closed = 0;
nodes = (
"317 704 LINE",
"451 704 LINE"
);
},
{
closed = 0;
nodes = (
"61 832 LINE",
"195 832 LINE"
);
},
{
closed = 0;
nodes = (
"317 832 LINE",
"451 832 LINE"
);
}
);
userData = {
com.typemytype.robofont.mark = (
0.656,
1,
0.6,
1
);
};
width = 512;
},
{
layerId = "968AADD4-6AAB-4A21-B439-CFC52095EED4";
paths = (
{
closed = 1;
nodes = (
"195 899 LINE",
"195 515 LINE",
"317 515 LINE",
"317 899 LINE",
"451 899 LINE",
"451 -3 LINE",
"317 -3 LINE",
"317 381 LINE",
"195 381 LINE",
"195 -3 LINE",
"61 -3 LINE",
"61 899 LINE"
);
}
);
userData = {
com.typemytype.robofont.mark = (
0.656,
1,
0.6,
1
);
};
width = 512;
},
{
components = (
{
name = pixel.2;
transform = "{1, 0, 0, 1, 59, 54}";
},
{
name = pixel.2;
transform = "{1, 0, 0, 1, 315, 54}";
},
{
name = pixel.2;
transform = "{1, 0, 0, 1, 59, 182}";
},
{
name = pixel.2;
transform = "{1, 0, 0, 1, 315, 182}";
},
{
name = pixel.2;
transform = "{1, 0, 0, 1, 59, 310}";
},
{
name = pixel.2;
transform = "{1, 0, 0, 1, 315, 310}";
},
{
name = pixel.6;
transform = "{1, 0, 0, 1, 59, 438}";
},
{
name = pixel.2;
transform = "{1, 0, 0, 1, 59, 566}";
},
{
name = pixel.2;
transform = "{1, 0, 0, 1, 315, 566}";
},
{
name = pixel.2;
transform = "{1, 0, 0, 1, 59, 694}";
},
{
name = pixel.2;
transform = "{1, 0, 0, 1, 315, 694}";
},
{
name = pixel.2;
transform = "{1, 0, 0, 1, 59, 822}";
},
{
name = pixel.2;
transform = "{1, 0, 0, 1, 315, 822}";
}
);
layerId = "EF047752-ED93-49D3-A4D1-D66A6AAE90C7";
width = 512;
},
{
components = (
{
name = pixel.2;
transform = "{1, 0, 0, 1, 1, -61}";
},
{
name = pixel.2;
transform = "{1, 0, 0, 1, 257, -61}";
},
{
name = pixel.2;
transform = "{1, 0, 0, 1, 1, 67}";
},
{
name = pixel.2;
transform = "{1, 0, 0, 1, 257, 67}";
},
{
name = pixel.2;
transform = "{1, 0, 0, 1, 1, 195}";
},
{
name = pixel.2;
transform = "{1, 0, 0, 1, 257, 195}";
},
{
name = pixel.6;
transform = "{1, 0, 0, 1, 1, 323}";
},
{
name = pixel.2;
transform = "{1, 0, 0, 1, 1, 451}";
},
{
name = pixel.2;
transform = "{1, 0, 0, 1, 257, 451}";
},
{
name = pixel.2;
transform = "{1, 0, 0, 1, 1, 579}";
},
{
name = pixel.2;
transform = "{1, 0, 0, 1, 257, 579}";
},
{
name = pixel.2;
transform = "{1, 0, 0, 1, 1, 707}";
},
{
name = pixel.2;
transform = "{1, 0, 0, 1, 257, 707}";
}
);
layerId = "164C8123-3F0E-4C99-877D-0E85C432A9CE";
width = 512;
},
{
components = (
{
name = pixel.2;
transform = "{1, 0, 0, 1, -29, 54}";
},
{
name = pixel.2;
transform = "{1, 0, 0, 1, 227, 54}";
},
{
name = pixel.2;
transform = "{1, 0, 0, 1, -29, 182}";
},
{
name = pixel.2;
transform = "{1, 0, 0, 1, 227, 182}";
},
{
name = pixel.2;
transform = "{1, 0, 0, 1, -29, 310}";
},
{
name = pixel.2;
transform = "{1, 0, 0, 1, 227, 310}";
},
{
name = pixel.6;
transform = "{1, 0, 0, 1, -29, 438}";
},
{
name = pixel.2;
transform = "{1, 0, 0, 1, -29, 566}";
},
{
name = pixel.2;
transform = "{1, 0, 0, 1, 227, 566}";
},
{
name = pixel.2;
transform = "{1, 0, 0, 1, -29, 694}";
},
{
name = pixel.2;
transform = "{1, 0, 0, 1, 227, 694}";
},
{
name = pixel.2;
transform = "{1, 0, 0, 1, -29, 822}";
},
{
name = pixel.2;
transform = "{1, 0, 0, 1, 227, 822}";
}
);
layerId = "EDC3ADDC-530C-4ECE-AAC6-732B149A8D4A";
width = 512;
},
{
components = (
{
name = pixel.2;
transform = "{1, 0, 0, 1, -61, -61}";
},
{
name = pixel.2;
transform = "{1, 0, 0, 1, 195, -61}";
},
{
name = pixel.2;
transform = "{1, 0, 0, 1, -61, 67}";
},
{
name = pixel.2;
transform = "{1, 0, 0, 1, 195, 67}";
},
{
name = pixel.2;
transform = "{1, 0, 0, 1, -61, 195}";
},
{
name = pixel.2;
transform = "{1, 0, 0, 1, 195, 195}";
},
{
name = pixel.6;
transform = "{1, 0, 0, 1, -61, 323}";
},
{
name = pixel.2;
transform = "{1, 0, 0, 1, -61, 451}";
},
{
name = pixel.2;
transform = "{1, 0, 0, 1, 195, 451}";
},
{
name = pixel.2;
transform = "{1, 0, 0, 1, -61, 579}";
},
{
name = pixel.2;
transform = "{1, 0, 0, 1, 195, 579}";
},
{
name = pixel.2;
transform = "{1, 0, 0, 1, -61, 707}";
},
{
name = pixel.2;
transform = "{1, 0, 0, 1, 195, 707}";
}
);
layerId = "38088322-78A3-4F4F-B46E-F8355B0BCD96";
width = 512;
}
);
unicode = 0048;
},
{
glyphname = I;
lastChange = "2019-07-27 13:36:41 +0000";
layers = (
{
background = {
paths = (
{
closed = 1;
nodes = (
"189 131 LINE",
"189 765 LINE",
"61 765 LINE",
"61 899 LINE",
"451 899 LINE",
"451 765 LINE",
"323 765 LINE",
"323 131 LINE",
"451 131 LINE",
"451 -3 LINE",
"61 -3 LINE",
"61 131 LINE"
);
}
);
};
layerId = master01;
paths = (
{
closed = 0;
nodes = (
"61 64 LINE",
"451 64 LINE"
);
},
{
closed = 0;
nodes = (
"189 192 LINE",
"323 192 LINE"
);
},
{
closed = 0;
nodes = (
"189 320 LINE",
"323 320 LINE"
);
},
{
closed = 0;
nodes = (
"189 448 LINE",
"323 448 LINE"
);
},
{
closed = 0;
nodes = (
"189 576 LINE",
"323 576 LINE"
);
},
{
closed = 0;
nodes = (
"189 704 LINE",
"323 704 LINE"
);
},
{
closed = 0;
nodes = (
"61 832 LINE",
"451 832 LINE"
);
}
);
userData = {
com.typemytype.robofont.mark = (
0.656,
1,
0.6,
1
);
};
width = 512;
},
{
layerId = "968AADD4-6AAB-4A21-B439-CFC52095EED4";
paths = (
{
closed = 1;
nodes = (
"189 131 LINE",
"189 765 LINE",
"61 765 LINE",
"61 899 LINE",
"451 899 LINE",
"451 765 LINE",
"323 765 LINE",
"323 131 LINE",
"451 131 LINE",
"451 -3 LINE",
"61 -3 LINE",
"61 131 LINE"
);
}
);
userData = {
com.typemytype.robofont.mark = (
0.656,
1,
0.6,
1
);
};
width = 512;
},
{
components = (
{
name = pixel.6;
transform = "{1, 0, 0, 1, 59, 54}";
},
{
name = pixel.2;
transform = "{1, 0, 0, 1, 187, 182}";
},
{
name = pixel.2;
transform = "{1, 0, 0, 1, 187, 310}";
},
{
name = pixel.2;
transform = "{1, 0, 0, 1, 187, 438}";
},
{
name = pixel.2;
transform = "{1, 0, 0, 1, 187, 566}";
},
{
name = pixel.2;
transform = "{1, 0, 0, 1, 187, 694}";
},
{
name = pixel.6;
transform = "{1, 0, 0, 1, 59, 822}";
}
);
layerId = "EF047752-ED93-49D3-A4D1-D66A6AAE90C7";
width = 512;
},
{
components = (
{
name = pixel.6;
transform = "{1, 0, 0, 1, 1, -61}";
},
{
name = pixel.2;
transform = "{1, 0, 0, 1, 129, 67}";
},
{
name = pixel.2;
transform = "{1, 0, 0, 1, 129, 195}";
},
{
name = pixel.2;
transform = "{1, 0, 0, 1, 129, 323}";
},
{
name = pixel.2;
transform = "{1, 0, 0, 1, 129, 451}";
},
{
name = pixel.2;
transform = "{1, 0, 0, 1, 129, 579}";
},
{
name = pixel.6;
transform = "{1, 0, 0, 1, 1, 707}";
}
);
layerId = "164C8123-3F0E-4C99-877D-0E85C432A9CE";
width = 512;
},
{
components = (
{
name = pixel.6;
transform = "{1, 0, 0, 1, -29, 54}";
},
{
name = pixel.2;
transform = "{1, 0, 0, 1, 99, 182}";
},
{
name = pixel.2;
transform = "{1, 0, 0, 1, 99, 310}";
},
{
name = pixel.2;
transform = "{1, 0, 0, 1, 99, 438}";
},
{
name = pixel.2;
transform = "{1, 0, 0, 1, 99, 566}";
},
{
name = pixel.2;
transform = "{1, 0, 0, 1, 99, 694}";
},
{
name = pixel.6;
transform = "{1, 0, 0, 1, -29, 822}";
}
);
layerId = "EDC3ADDC-530C-4ECE-AAC6-732B149A8D4A";
width = 512;
},
{
components = (
{
name = pixel.6;
transform = "{1, 0, 0, 1, -61, -61}";
},
{
name = pixel.2;
transform = "{1, 0, 0, 1, 67, 67}";
},
{
name = pixel.2;
transform = "{1, 0, 0, 1, 67, 195}";
},
{
name = pixel.2;
transform = "{1, 0, 0, 1, 67, 323}";
},
{
name = pixel.2;
transform = "{1, 0, 0, 1, 67, 451}";
},
{
name = pixel.2;
transform = "{1, 0, 0, 1, 67, 579}";
},
{
name = pixel.6;
transform = "{1, 0, 0, 1, -61, 707}";
}
);
layerId = "38088322-78A3-4F4F-B46E-F8355B0BCD96";
width = 512;
}
);
unicode = 0049;
},
{
color = 6;
glyphname = Iacute;
lastChange = "2019-07-27 11:38:00 +0000";
layers = (
{
components = (
{
name = I.case;
},
{
name = acute;
transform = "{1, 0, 0, 1, 64, 0}";
}
);
layerId = master01;
width = 512;
},
{
components = (
{
name = I.case;
},
{
name = acute;
transform = "{1, 0, 0, 1, 64, 0}";
}
);
layerId = "EF047752-ED93-49D3-A4D1-D66A6AAE90C7";
width = 512;
},
{
components = (
{
name = I.case;
},
{
name = acute;
transform = "{1, 0, 0, 1, 64, 0}";
}
);
layerId = "164C8123-3F0E-4C99-877D-0E85C432A9CE";
width = 512;
},
{
components = (
{
name = I.case;
},
{
name = acute;
transform = "{1, 0, 0, 1, 64, 0}";
}
);
layerId = "EDC3ADDC-530C-4ECE-AAC6-732B149A8D4A";
width = 512;
},
{
components = (
{
name = I.case;
},
{
name = acute;
transform = "{1, 0, 0, 1, 64, 0}";
}
);
layerId = "38088322-78A3-4F4F-B46E-F8355B0BCD96";
width = 512;
},
{
background = {
paths = (
{
closed = 1;
nodes = (
"64 512 LINE",
"192 512 LINE",
"192 128 LINE",
"64 128 LINE",
"64 0 LINE",
"448 0 LINE",
"448 128 LINE",
"320 128 LINE",
"320 512 LINE",
"448 512 LINE",
"448 640 LINE",
"256 640 LINE",
"256 768 LINE",
"192 768 LINE",
"192 640 LINE",
"64 640 LINE"
);
},
{
closed = 1;
nodes = (
"256 768 LINE",
"384 768 LINE",
"384 896 LINE",
"256 896 LINE"
);
}
);
};
components = (
{
name = I.case;
},
{
name = acute;
transform = "{1, 0, 0, 1, 64, 0}";
}
);
layerId = "968AADD4-6AAB-4A21-B439-CFC52095EED4";
width = 512;
}
);
unicode = 00CD;
},
{
color = 6;
glyphname = Icircumflex;
lastChange = "2019-07-27 11:38:00 +0000";
layers = (
{
components = (
{
name = I.case;
},
{
name = circumflex;
}
);
layerId = master01;
width = 512;
},
{
components = (
{
name = I.case;
},
{
name = circumflex;
}
);
layerId = "EF047752-ED93-49D3-A4D1-D66A6AAE90C7";
width = 512;
},
{
components = (
{
name = I.case;
},
{
name = circumflex;
}
);
layerId = "164C8123-3F0E-4C99-877D-0E85C432A9CE";
width = 512;
},
{
components = (
{
name = I.case;
},
{
name = circumflex;
}
);
layerId = "EDC3ADDC-530C-4ECE-AAC6-732B149A8D4A";
width = 512;
},
{
components = (
{
name = I.case;
},
{
name = circumflex;
}
);
layerId = "38088322-78A3-4F4F-B46E-F8355B0BCD96";
width = 512;
},
{
background = {
paths = (
{
closed = 1;
nodes = (
"192 768 LINE",
"128 768 LINE",
"128 640 LINE",
"64 640 LINE",
"64 512 LINE",
"192 512 LINE",
"192 128 LINE",
"64 128 LINE",
"64 0 LINE",
"448 0 LINE",
"448 128 LINE",
"320 128 LINE",
"320 512 LINE",
"448 512 LINE",
"448 640 LINE",
"384 640 LINE",
"384 768 LINE",
"320 768 LINE",
"320 896 LINE",
"192 896 LINE"
);
},
{
closed = 1;
nodes = (
"192 768 LINE",
"320 768 LINE",
"320 640 LINE",
"192 640 LINE"
);
}
);
};
components = (
{
name = I.case;
},
{
name = circumflex;
}
);
layerId = "968AADD4-6AAB-4A21-B439-CFC52095EED4";
width = 512;
}
);
unicode = 00CE;
},
{
color = 6;
glyphname = Idieresis;
lastChange = "2019-07-27 11:38:00 +0000";
layers = (
{
components = (
{
name = I.case;
},
{
name = dieresis;
}
);
layerId = master01;
width = 512;
},
{
components = (
{
name = I.case;
},
{
name = dieresis;
}
);
layerId = "EF047752-ED93-49D3-A4D1-D66A6AAE90C7";
width = 512;
},
{
components = (
{
name = I.case;
},
{
name = dieresis;
}
);
layerId = "164C8123-3F0E-4C99-877D-0E85C432A9CE";
width = 512;
},
{
components = (
{
name = I.case;
},
{
name = dieresis;
}
);
layerId = "EDC3ADDC-530C-4ECE-AAC6-732B149A8D4A";
width = 512;
},
{
components = (
{
name = I.case;
},
{
name = dieresis;
}
);
layerId = "38088322-78A3-4F4F-B46E-F8355B0BCD96";
width = 512;
},
{
background = {
paths = (
{
closed = 1;
nodes = (
"64 512 LINE",
"192 512 LINE",
"192 128 LINE",
"64 128 LINE",
"64 0 LINE",
"448 0 LINE",
"448 128 LINE",
"320 128 LINE",
"320 512 LINE",
"448 512 LINE",
"448 640 LINE",
"64 640 LINE"
);
},
{
closed = 1;
nodes = (
"320 768 LINE",
"448 768 LINE",
"448 896 LINE",
"320 896 LINE"
);
},
{
closed = 1;
nodes = (
"64 768 LINE",
"192 768 LINE",
"192 896 LINE",
"64 896 LINE"
);
}
);
};
components = (
{
name = I.case;
},
{
name = dieresis;
}
);
layerId = "968AADD4-6AAB-4A21-B439-CFC52095EED4";
width = 512;
}
);
unicode = 00CF;
},
{
color = 6;
glyphname = Igrave;
lastChange = "2019-07-27 11:38:00 +0000";
layers = (
{
components = (
{
name = I.case;
},
{
name = grave;
transform = "{1, 0, 0, 1, -64, 0}";
}
);
layerId = master01;
width = 512;
},
{
components = (
{
name = I.case;
},
{
name = grave;
transform = "{1, 0, 0, 1, -64, 0}";
}
);
layerId = "EF047752-ED93-49D3-A4D1-D66A6AAE90C7";
width = 512;
},
{
components = (
{
name = I.case;
},
{
name = grave;
transform = "{1, 0, 0, 1, -64, 0}";
}
);
layerId = "164C8123-3F0E-4C99-877D-0E85C432A9CE";
width = 512;
},
{
components = (
{
name = I.case;
},
{
name = grave;
transform = "{1, 0, 0, 1, -64, 0}";
}
);
layerId = "EDC3ADDC-530C-4ECE-AAC6-732B149A8D4A";
width = 512;
},
{
components = (
{
name = I.case;
},
{
name = grave;
transform = "{1, 0, 0, 1, -64, 0}";
}
);
layerId = "38088322-78A3-4F4F-B46E-F8355B0BCD96";
width = 512;
},
{
background = {
paths = (
{
closed = 1;
nodes = (
"128 768 LINE",
"256 768 LINE",
"256 640 LINE",
"64 640 LINE",
"64 512 LINE",
"192 512 LINE",
"192 128 LINE",
"64 128 LINE",
"64 0 LINE",
"448 0 LINE",
"448 128 LINE",
"320 128 LINE",
"320 512 LINE",
"448 512 LINE",
"448 640 LINE",
"320 640 LINE",
"320 768 LINE",
"256 768 LINE",
"256 896 LINE",
"128 896 LINE"
);
}
);
};
components = (
{
name = I.case;
},
{
name = grave;
transform = "{1, 0, 0, 1, -64, 0}";
}
);
layerId = "968AADD4-6AAB-4A21-B439-CFC52095EED4";
width = 512;
}
);
unicode = 00CC;
},
{
glyphname = J;
lastChange = "2019-07-27 13:36:41 +0000";
layers = (
{
background = {
paths = (
{
closed = 1;
nodes = (
"451 899 LINE",
"451 125 LINE",
"387 125 LINE",
"387 -3 LINE",
"125 -3 LINE",
"125 125 LINE",
"61 125 LINE",
"61 387 LINE",
"195 387 LINE",
"195 131 LINE",
"317 131 LINE",
"317 765 LINE",
"253 765 LINE",
"253 899 LINE"
);
}
);
};
layerId = master01;
paths = (
{
closed = 0;
nodes = (
"125 64 LINE",
"387 64 LINE"
);
},
{
closed = 0;
nodes = (
"61 192 LINE",
"195 192 LINE"
);
},
{
closed = 0;
nodes = (
"317 192 LINE",
"451 192 LINE"
);
},
{
closed = 0;
nodes = (
"61 320 LINE",
"195 320 LINE"
);
},
{
closed = 0;
nodes = (
"317 320 LINE",
"451 320 LINE"
);
},
{
closed = 0;
nodes = (
"317 448 LINE",
"451 448 LINE"
);
},
{
closed = 0;
nodes = (
"317 576 LINE",
"451 576 LINE"
);
},
{
closed = 0;
nodes = (
"317 704 LINE",
"451 704 LINE"
);
},
{
closed = 0;
nodes = (
"253 832 LINE",
"451 832 LINE"
);
}
);
userData = {
com.typemytype.robofont.mark = (
0.656,
1,
0.6,
1
);
};
width = 512;
},
{
layerId = "968AADD4-6AAB-4A21-B439-CFC52095EED4";
paths = (
{
closed = 1;
nodes = (
"451 899 LINE",
"451 125 LINE",
"387 125 LINE",
"387 -3 LINE",
"125 -3 LINE",
"125 125 LINE",
"61 125 LINE",
"61 387 LINE",
"195 387 LINE",
"195 131 LINE",
"317 131 LINE",
"317 765 LINE",
"253 765 LINE",
"253 899 LINE"
);
}
);
userData = {
com.typemytype.robofont.mark = (
0.656,
1,
0.6,
1
);
};
width = 512;
},
{
components = (
{
name = pixel.4;
transform = "{1, 0, 0, 1, 123, 54}";
},
{
name = pixel.2;
transform = "{1, 0, 0, 1, 59, 182}";
},
{
name = pixel.2;
transform = "{1, 0, 0, 1, 315, 182}";
},
{
name = pixel.2;
transform = "{1, 0, 0, 1, 59, 310}";
},
{
name = pixel.2;
transform = "{1, 0, 0, 1, 315, 310}";
},
{
name = pixel.2;
transform = "{1, 0, 0, 1, 315, 438}";
},
{
name = pixel.2;
transform = "{1, 0, 0, 1, 315, 566}";
},
{
name = pixel.2;
transform = "{1, 0, 0, 1, 315, 694}";
},
{
name = pixel.3;
transform = "{1, 0, 0, 1, 251, 822}";
}
);
layerId = "EF047752-ED93-49D3-A4D1-D66A6AAE90C7";
width = 512;
},
{
components = (
{
name = pixel.4;
transform = "{1, 0, 0, 1, 65, -61}";
},
{
name = pixel.2;
transform = "{1, 0, 0, 1, 1, 67}";
},
{
name = pixel.2;
transform = "{1, 0, 0, 1, 257, 67}";
},
{
name = pixel.2;
transform = "{1, 0, 0, 1, 1, 195}";
},
{
name = pixel.2;
transform = "{1, 0, 0, 1, 257, 195}";
},
{
name = pixel.2;
transform = "{1, 0, 0, 1, 257, 323}";
},
{
name = pixel.2;
transform = "{1, 0, 0, 1, 257, 451}";
},
{
name = pixel.2;
transform = "{1, 0, 0, 1, 257, 579}";
},
{
name = pixel.3;
transform = "{1, 0, 0, 1, 193, 707}";
}
);
layerId = "164C8123-3F0E-4C99-877D-0E85C432A9CE";
width = 512;
},
{
components = (
{
name = pixel.4;
transform = "{1, 0, 0, 1, 35, 54}";
},
{
name = pixel.2;
transform = "{1, 0, 0, 1, -29, 182}";
},
{
name = pixel.2;
transform = "{1, 0, 0, 1, 227, 182}";
},
{
name = pixel.2;
transform = "{1, 0, 0, 1, -29, 310}";
},
{
name = pixel.2;
transform = "{1, 0, 0, 1, 227, 310}";
},
{
name = pixel.2;
transform = "{1, 0, 0, 1, 227, 438}";
},
{
name = pixel.2;
transform = "{1, 0, 0, 1, 227, 566}";
},
{
name = pixel.2;
transform = "{1, 0, 0, 1, 227, 694}";
},
{
name = pixel.3;
transform = "{1, 0, 0, 1, 163, 822}";
}
);
layerId = "EDC3ADDC-530C-4ECE-AAC6-732B149A8D4A";
width = 512;
},
{
components = (
{
name = pixel.4;
transform = "{1, 0, 0, 1, 3, -61}";
},
{
name = pixel.2;
transform = "{1, 0, 0, 1, -61, 67}";
},
{
name = pixel.2;
transform = "{1, 0, 0, 1, 195, 67}";
},
{
name = pixel.2;
transform = "{1, 0, 0, 1, -61, 195}";
},
{
name = pixel.2;
transform = "{1, 0, 0, 1, 195, 195}";
},
{
name = pixel.2;
transform = "{1, 0, 0, 1, 195, 323}";
},
{
name = pixel.2;
transform = "{1, 0, 0, 1, 195, 451}";
},
{
name = pixel.2;
transform = "{1, 0, 0, 1, 195, 579}";
},
{
name = pixel.3;
transform = "{1, 0, 0, 1, 131, 707}";
}
);
layerId = "38088322-78A3-4F4F-B46E-F8355B0BCD96";
width = 512;
}
);
unicode = 004A;
},
{
glyphname = K;
lastChange = "2019-07-27 13:36:41 +0000";
layers = (
{
background = {
paths = (
{
closed = 1;
nodes = (
"195 899 LINE",
"195 515 LINE",
"253 515 LINE",
"253 643 LINE",
"317 643 LINE",
"317 899 LINE",
"451 899 LINE",
"451 637 LINE",
"387 637 LINE",
"387 509 LINE",
"323 509 LINE",
"323 387 LINE",
"387 387 LINE",
"387 259 LINE",
"451 259 LINE",
"451 -3 LINE",
"317 -3 LINE",
"317 253 LINE",
"253 253 LINE",
"253 381 LINE",
"195 381 LINE",
"195 -3 LINE",
"-3 -3 LINE",
"-3 131 LINE",
"61 131 LINE",
"61 765 LINE",
"-3 765 LINE",
"-3 899 LINE"
);
}
);
};
layerId = master01;
paths = (
{
closed = 0;
nodes = (
"-3 64 LINE",
"195 64 LINE"
);
},
{
closed = 0;
nodes = (
"317 64 LINE",
"451 64 LINE"
);
},
{
closed = 0;
nodes = (
"61 192 LINE",
"195 192 LINE"
);
},
{
closed = 0;
nodes = (
"317 192 LINE",
"451 192 LINE"
);
},
{
closed = 0;
nodes = (
"61 320 LINE",
"195 320 LINE"
);
},
{
closed = 0;
nodes = (
"253 320 LINE",
"387 320 LINE"
);
},
{
closed = 0;
nodes = (
"61 448 LINE",
"323 448 LINE"
);
},
{
closed = 0;
nodes = (
"61 576 LINE",
"195 576 LINE"
);
},
{
closed = 0;
nodes = (
"253 576 LINE",
"387 576 LINE"
);
},
{
closed = 0;
nodes = (
"61 704 LINE",
"195 704 LINE"
);
},
{
closed = 0;
nodes = (
"317 704 LINE",
"451 704 LINE"
);
},
{
closed = 0;
nodes = (
"-3 832 LINE",
"195 832 LINE"
);
},
{
closed = 0;
nodes = (
"317 832 LINE",
"451 832 LINE"
);
}
);
userData = {
com.typemytype.robofont.mark = (
0.656,
1,
0.6,
1
);
};
width = 512;
},
{
layerId = "968AADD4-6AAB-4A21-B439-CFC52095EED4";
paths = (
{
closed = 1;
nodes = (
"195 899 LINE",
"195 515 LINE",
"253 515 LINE",
"253 643 LINE",
"317 643 LINE",
"317 899 LINE",
"451 899 LINE",
"451 637 LINE",
"387 637 LINE",
"387 509 LINE",
"323 509 LINE",
"323 387 LINE",
"387 387 LINE",
"387 259 LINE",
"451 259 LINE",
"451 -3 LINE",
"317 -3 LINE",
"317 253 LINE",
"253 253 LINE",
"253 381 LINE",
"195 381 LINE",
"195 -3 LINE",
"-3 -3 LINE",
"-3 131 LINE",
"61 131 LINE",
"61 765 LINE",
"-3 765 LINE",
"-3 899 LINE"
);
}
);
userData = {
com.typemytype.robofont.mark = (
0.656,
1,
0.6,
1
);
};
width = 512;
},
{
components = (
{
name = pixel.3;
transform = "{1, 0, 0, 1, -5, 54}";
},
{
name = pixel.2;
transform = "{1, 0, 0, 1, 315, 54}";
},
{
name = pixel.2;
transform = "{1, 0, 0, 1, 59, 182}";
},
{
name = pixel.2;
transform = "{1, 0, 0, 1, 315, 182}";
},
{
name = pixel.2;
transform = "{1, 0, 0, 1, 59, 310}";
},
{
name = pixel.2;
transform = "{1, 0, 0, 1, 251, 310}";
},
{
name = pixel.4;
transform = "{1, 0, 0, 1, 59, 438}";
},
{
name = pixel.2;
transform = "{1, 0, 0, 1, 59, 566}";
},
{
name = pixel.2;
transform = "{1, 0, 0, 1, 251, 566}";
},
{
name = pixel.2;
transform = "{1, 0, 0, 1, 59, 694}";
},
{
name = pixel.2;
transform = "{1, 0, 0, 1, 315, 694}";
},
{
name = pixel.3;
transform = "{1, 0, 0, 1, -5, 822}";
},
{
name = pixel.2;
transform = "{1, 0, 0, 1, 315, 822}";
}
);
layerId = "EF047752-ED93-49D3-A4D1-D66A6AAE90C7";
width = 512;
},
{
components = (
{
name = pixel.3;
transform = "{1, 0, 0, 1, -63, -61}";
},
{
name = pixel.2;
transform = "{1, 0, 0, 1, 257, -61}";
},
{
name = pixel.2;
transform = "{1, 0, 0, 1, 1, 67}";
},
{
name = pixel.2;
transform = "{1, 0, 0, 1, 257, 67}";
},
{
name = pixel.2;
transform = "{1, 0, 0, 1, 1, 195}";
},
{
name = pixel.2;
transform = "{1, 0, 0, 1, 193, 195}";
},
{
name = pixel.4;
transform = "{1, 0, 0, 1, 1, 323}";
},
{
name = pixel.2;
transform = "{1, 0, 0, 1, 1, 451}";
},
{
name = pixel.2;
transform = "{1, 0, 0, 1, 193, 451}";
},
{
name = pixel.2;
transform = "{1, 0, 0, 1, 1, 579}";
},
{
name = pixel.2;
transform = "{1, 0, 0, 1, 257, 579}";
},
{
name = pixel.3;
transform = "{1, 0, 0, 1, -63, 707}";
},
{
name = pixel.2;
transform = "{1, 0, 0, 1, 257, 707}";
}
);
layerId = "164C8123-3F0E-4C99-877D-0E85C432A9CE";
width = 512;
},
{
components = (
{
name = pixel.3;
transform = "{1, 0, 0, 1, -93, 54}";
},
{
name = pixel.2;
transform = "{1, 0, 0, 1, 227, 54}";
},
{
name = pixel.2;
transform = "{1, 0, 0, 1, -29, 182}";
},
{
name = pixel.2;
transform = "{1, 0, 0, 1, 227, 182}";
},
{
name = pixel.2;
transform = "{1, 0, 0, 1, -29, 310}";
},
{
name = pixel.2;
transform = "{1, 0, 0, 1, 163, 310}";
},
{
name = pixel.4;
transform = "{1, 0, 0, 1, -29, 438}";
},
{
name = pixel.2;
transform = "{1, 0, 0, 1, -29, 566}";
},
{
name = pixel.2;
transform = "{1, 0, 0, 1, 163, 566}";
},
{
name = pixel.2;
transform = "{1, 0, 0, 1, -29, 694}";
},
{
name = pixel.2;
transform = "{1, 0, 0, 1, 227, 694}";
},
{
name = pixel.3;
transform = "{1, 0, 0, 1, -93, 822}";
},
{
name = pixel.2;
transform = "{1, 0, 0, 1, 227, 822}";
}
);
layerId = "EDC3ADDC-530C-4ECE-AAC6-732B149A8D4A";
width = 512;
},
{
components = (
{
name = pixel.3;
transform = "{1, 0, 0, 1, -125, -61}";
},
{
name = pixel.2;
transform = "{1, 0, 0, 1, 195, -61}";
},
{
name = pixel.2;
transform = "{1, 0, 0, 1, -61, 67}";
},
{
name = pixel.2;
transform = "{1, 0, 0, 1, 195, 67}";
},
{
name = pixel.2;
transform = "{1, 0, 0, 1, -61, 195}";
},
{
name = pixel.2;
transform = "{1, 0, 0, 1, 131, 195}";
},
{
name = pixel.4;
transform = "{1, 0, 0, 1, -61, 323}";
},
{
name = pixel.2;
transform = "{1, 0, 0, 1, -61, 451}";
},
{
name = pixel.2;
transform = "{1, 0, 0, 1, 131, 451}";
},
{
name = pixel.2;
transform = "{1, 0, 0, 1, -61, 579}";
},
{
name = pixel.2;
transform = "{1, 0, 0, 1, 195, 579}";
},
{
name = pixel.3;
transform = "{1, 0, 0, 1, -125, 707}";
},
{
name = pixel.2;
transform = "{1, 0, 0, 1, 195, 707}";
}
);
layerId = "38088322-78A3-4F4F-B46E-F8355B0BCD96";
width = 512;
}
);
unicode = 004B;
},
{
glyphname = L;
lastChange = "2019-07-27 13:31:25 +0000";
layers = (
{
background = {
paths = (
{
closed = 1;
nodes = (
"61 131 LINE",
"61 765 LINE",
"-3 765 LINE",
"-3 899 LINE",
"259 899 LINE",
"259 765 LINE",
"195 765 LINE",
"195 131 LINE",
"317 131 LINE",
"317 259 LINE",
"381 259 LINE",
"381 387 LINE",
"451 387 LINE",
"451 -3 LINE",
"-3 -3 LINE",
"-3 131 LINE"
);
}
);
};
layerId = master01;
paths = (
{
closed = 0;
nodes = (
"-3 64 LINE",
"451 64 LINE"
);
},
{
closed = 0;
nodes = (
"61 192 LINE",
"195 192 LINE"
);
},
{
closed = 0;
nodes = (
"317 192 LINE",
"451 192 LINE"
);
},
{
closed = 0;
nodes = (
"61 320 LINE",
"195 320 LINE"
);
},
{
closed = 0;
nodes = (
"381 320 LINE",
"451 320 LINE"
);
},
{
closed = 0;
nodes = (
"61 448 LINE",
"195 448 LINE"
);
},
{
closed = 0;
nodes = (
"61 576 LINE",
"195 576 LINE"
);
},
{
closed = 0;
nodes = (
"61 704 LINE",
"195 704 LINE"
);
},
{
closed = 0;
nodes = (
"-3 832 LINE",
"259 832 LINE"
);
}
);
userData = {
com.typemytype.robofont.mark = (
0.656,
1,
0.6,
1
);
};
width = 512;
},
{
layerId = "968AADD4-6AAB-4A21-B439-CFC52095EED4";
paths = (
{
closed = 1;
nodes = (
"61 131 LINE",
"61 765 LINE",
"-3 765 LINE",
"-3 899 LINE",
"259 899 LINE",
"259 765 LINE",
"195 765 LINE",
"195 131 LINE",
"317 131 LINE",
"317 259 LINE",
"381 259 LINE",
"381 387 LINE",
"451 387 LINE",
"451 -3 LINE",
"-3 -3 LINE",
"-3 131 LINE"
);
}
);
userData = {
com.typemytype.robofont.mark = (
0.656,
1,
0.6,
1
);
};
width = 512;
},
{
components = (
{
name = pixel.7;
transform = "{1, 0, 0, 1, -5, 54}";
},
{
name = pixel.2;
transform = "{1, 0, 0, 1, 59, 182}";
},
{
name = pixel.2;
transform = "{1, 0, 0, 1, 315, 182}";
},
{
name = pixel.2;
transform = "{1, 0, 0, 1, 59, 310}";
},
{
name = pixel.1;
transform = "{1, 0, 0, 1, 379, 310}";
},
{
name = pixel.2;
transform = "{1, 0, 0, 1, 59, 438}";
},
{
name = pixel.2;
transform = "{1, 0, 0, 1, 59, 566}";
},
{
name = pixel.2;
transform = "{1, 0, 0, 1, 59, 694}";
},
{
name = pixel.4;
transform = "{1, 0, 0, 1, -5, 822}";
}
);
layerId = "EF047752-ED93-49D3-A4D1-D66A6AAE90C7";
width = 512;
},
{
background = {
paths = (
{
closed = 1;
nodes = (
"17 -61 OFFCURVE",
"-63 13 OFFCURVE",
"-63 115 OFFCURVE",
"17 189 OFFCURVE",
"87 189 QCURVE SMOOTH",
"361 189 LINE SMOOTH",
"431 189 OFFCURVE",
"511 115 OFFCURVE",
"511 13 OFFCURVE",
"431 -61 OFFCURVE",
"361 -61 QCURVE SMOOTH",
"87 -61 LINE SMOOTH"
);
},
{
closed = 1;
nodes = (
"73 67 OFFCURVE",
"1 141 OFFCURVE",
"1 243 OFFCURVE",
"73 317 OFFCURVE",
"126 317 QCURVE SMOOTH",
"130 317 LINE SMOOTH",
"183 317 OFFCURVE",
"255 243 OFFCURVE",
"255 141 OFFCURVE",
"183 67 OFFCURVE",
"130 67 QCURVE SMOOTH",
"126 67 LINE SMOOTH"
);
},
{
closed = 1;
nodes = (
"329 67 OFFCURVE",
"257 141 OFFCURVE",
"257 243 OFFCURVE",
"329 317 OFFCURVE",
"382 317 QCURVE SMOOTH",
"386 317 LINE SMOOTH",
"439 317 OFFCURVE",
"511 243 OFFCURVE",
"511 141 OFFCURVE",
"439 67 OFFCURVE",
"386 67 QCURVE SMOOTH",
"382 67 LINE SMOOTH"
);
},
{
closed = 1;
nodes = (
"73 195 OFFCURVE",
"1 269 OFFCURVE",
"1 371 OFFCURVE",
"73 445 OFFCURVE",
"126 445 QCURVE SMOOTH",
"130 445 LINE SMOOTH",
"183 445 OFFCURVE",
"255 371 OFFCURVE",
"255 269 OFFCURVE",
"183 195 OFFCURVE",
"130 195 QCURVE SMOOTH",
"126 195 LINE SMOOTH"
);
},
{
closed = 1;
nodes = (
"393 195 OFFCURVE",
"321 269 OFFCURVE",
"321 371 OFFCURVE",
"393 445 OFFCURVE",
"446 445 QCURVE SMOOTH",
"386 445 LINE SMOOTH",
"439 445 OFFCURVE",
"511 371 OFFCURVE",
"511 269 OFFCURVE",
"439 195 OFFCURVE",
"386 195 QCURVE SMOOTH",
"446 195 LINE SMOOTH"
);
},
{
closed = 1;
nodes = (
"73 323 OFFCURVE",
"1 397 OFFCURVE",
"1 499 OFFCURVE",
"73 573 OFFCURVE",
"126 573 QCURVE SMOOTH",
"130 573 LINE SMOOTH",
"183 573 OFFCURVE",
"255 499 OFFCURVE",
"255 397 OFFCURVE",
"183 323 OFFCURVE",
"130 323 QCURVE SMOOTH",
"126 323 LINE SMOOTH"
);
},
{
closed = 1;
nodes = (
"73 451 OFFCURVE",
"1 525 OFFCURVE",
"1 627 OFFCURVE",
"73 701 OFFCURVE",
"126 701 QCURVE SMOOTH",
"130 701 LINE SMOOTH",
"183 701 OFFCURVE",
"255 627 OFFCURVE",
"255 525 OFFCURVE",
"183 451 OFFCURVE",
"130 451 QCURVE SMOOTH",
"126 451 LINE SMOOTH"
);
},
{
closed = 1;
nodes = (
"73 579 OFFCURVE",
"1 653 OFFCURVE",
"1 755 OFFCURVE",
"73 829 OFFCURVE",
"126 829 QCURVE SMOOTH",
"130 829 LINE SMOOTH",
"183 829 OFFCURVE",
"255 755 OFFCURVE",
"255 653 OFFCURVE",
"183 579 OFFCURVE",
"130 579 QCURVE SMOOTH",
"126 579 LINE SMOOTH"
);
},
{
closed = 1;
nodes = (
"17 707 OFFCURVE",
"-63 781 OFFCURVE",
"-63 883 OFFCURVE",
"17 957 OFFCURVE",
"87 957 QCURVE SMOOTH",
"169 957 LINE SMOOTH",
"239 957 OFFCURVE",
"319 883 OFFCURVE",
"319 781 OFFCURVE",
"239 707 OFFCURVE",
"169 707 QCURVE SMOOTH",
"87 707 LINE SMOOTH"
);
}
);
};
components = (
{
name = pixel.7;
transform = "{1, 0, 0, 1, -63, -61}";
},
{
name = pixel.2;
transform = "{1, 0, 0, 1, 1, 67}";
},
{
name = pixel.2;
transform = "{1, 0, 0, 1, 257, 67}";
},
{
name = pixel.2;
transform = "{1, 0, 0, 1, 1, 195}";
},
{
name = pixel.1;
transform = "{1, 0, 0, 1, 321, 195}";
},
{
name = pixel.2;
transform = "{1, 0, 0, 1, 1, 323}";
},
{
name = pixel.2;
transform = "{1, 0, 0, 1, 1, 451}";
},
{
name = pixel.2;
transform = "{1, 0, 0, 1, 1, 579}";
},
{
name = pixel.4;
transform = "{1, 0, 0, 1, -63, 707}";
}
);
layerId = "164C8123-3F0E-4C99-877D-0E85C432A9CE";
width = 512;
},
{
components = (
{
name = pixel.7;
transform = "{1, 0, 0, 1, -93, 54}";
},
{
name = pixel.2;
transform = "{1, 0, 0, 1, -29, 182}";
},
{
name = pixel.2;
transform = "{1, 0, 0, 1, 227, 182}";
},
{
name = pixel.2;
transform = "{1, 0, 0, 1, -29, 310}";
},
{
name = pixel.1;
transform = "{1, 0, 0, 1, 291, 310}";
},
{
name = pixel.2;
transform = "{1, 0, 0, 1, -29, 438}";
},
{
name = pixel.2;
transform = "{1, 0, 0, 1, -29, 566}";
},
{
name = pixel.2;
transform = "{1, 0, 0, 1, -29, 694}";
},
{
name = pixel.4;
transform = "{1, 0, 0, 1, -93, 822}";
}
);
layerId = "EDC3ADDC-530C-4ECE-AAC6-732B149A8D4A";
width = 512;
},
{
components = (
{
name = pixel.7;
transform = "{1, 0, 0, 1, -125, -61}";
},
{
name = pixel.2;
transform = "{1, 0, 0, 1, -61, 67}";
},
{
name = pixel.2;
transform = "{1, 0, 0, 1, 195, 67}";
},
{
name = pixel.2;
transform = "{1, 0, 0, 1, -61, 195}";
},
{
name = pixel.1;
transform = "{1, 0, 0, 1, 259, 195}";
},
{
name = pixel.2;
transform = "{1, 0, 0, 1, -61, 323}";
},
{
name = pixel.2;
transform = "{1, 0, 0, 1, -61, 451}";
},
{
name = pixel.2;
transform = "{1, 0, 0, 1, -61, 579}";
},
{
name = pixel.4;
transform = "{1, 0, 0, 1, -125, 707}";
}
);
layerId = "38088322-78A3-4F4F-B46E-F8355B0BCD96";
width = 512;
}
);
unicode = 004C;
},
{
glyphname = M;
lastChange = "2019-07-27 13:36:41 +0000";
layers = (
{
background = {
paths = (
{
closed = 1;
nodes = (
"67 899 LINE",
"67 771 LINE",
"131 771 LINE",
"131 643 LINE",
"195 643 LINE",
"195 515 LINE",
"253 515 LINE",
"253 643 LINE",
"317 643 LINE",
"317 771 LINE",
"381 771 LINE",
"381 899 LINE",
"451 899 LINE",
"451 -3 LINE",
"317 -3 LINE",
"317 381 LINE",
"259 381 LINE",
"259 253 LINE",
"189 253 LINE",
"189 381 LINE",
"131 381 LINE",
"131 -3 LINE",
"-3 -3 LINE",
"-3 899 LINE"
);
}
);
};
layerId = master01;
paths = (
{
closed = 0;
nodes = (
"-3 64 LINE",
"131 64 LINE"
);
},
{
closed = 0;
nodes = (
"317 64 LINE",
"451 64 LINE"
);
},
{
closed = 0;
nodes = (
"-3 192 LINE",
"131 192 LINE"
);
},
{
closed = 0;
nodes = (
"317 192 LINE",
"451 192 LINE"
);
},
{
closed = 0;
nodes = (
"-3 320 LINE",
"131 320 LINE"
);
},
{
closed = 0;
nodes = (
"189 320 LINE",
"259 320 LINE"
);
},
{
closed = 0;
nodes = (
"317 320 LINE",
"451 320 LINE"
);
},
{
closed = 0;
nodes = (
"-3 448 LINE",
"451 448 LINE"
);
},
{
closed = 0;
nodes = (
"-3 576 LINE",
"195 576 LINE"
);
},
{
closed = 0;
nodes = (
"253 576 LINE",
"451 576 LINE"
);
},
{
closed = 0;
nodes = (
"-3 704 LINE",
"131 704 LINE"
);
},
{
closed = 0;
nodes = (
"317 704 LINE",
"451 704 LINE"
);
},
{
closed = 0;
nodes = (
"-3 832 LINE",
"67 832 LINE"
);
},
{
closed = 0;
nodes = (
"381 832 LINE",
"451 832 LINE"
);
}
);
userData = {
com.typemytype.robofont.mark = (
0.656,
1,
0.6,
1
);
};
width = 512;
},
{
layerId = "968AADD4-6AAB-4A21-B439-CFC52095EED4";
paths = (
{
closed = 1;
nodes = (
"67 899 LINE",
"67 771 LINE",
"131 771 LINE",
"131 643 LINE",
"195 643 LINE",
"195 515 LINE",
"253 515 LINE",
"253 643 LINE",
"317 643 LINE",
"317 771 LINE",
"381 771 LINE",
"381 899 LINE",
"451 899 LINE",
"451 -3 LINE",
"317 -3 LINE",
"317 381 LINE",
"259 381 LINE",
"259 253 LINE",
"189 253 LINE",
"189 381 LINE",
"131 381 LINE",
"131 -3 LINE",
"-3 -3 LINE",
"-3 899 LINE"
);
}
);
userData = {
com.typemytype.robofont.mark = (
0.656,
1,
0.6,
1
);
};
width = 512;
},
{
components = (
{
name = pixel.2;
transform = "{1, 0, 0, 1, -5, 54}";
},
{
name = pixel.2;
transform = "{1, 0, 0, 1, 315, 54}";
},
{
name = pixel.2;
transform = "{1, 0, 0, 1, -5, 182}";
},
{
name = pixel.2;
transform = "{1, 0, 0, 1, 315, 182}";
},
{
name = pixel.2;
transform = "{1, 0, 0, 1, -5, 310}";
},
{
name = pixel.1;
transform = "{1, 0, 0, 1, 187, 310}";
},
{
name = pixel.2;
transform = "{1, 0, 0, 1, 315, 310}";
},
{
name = pixel.7;
transform = "{1, 0, 0, 1, -5, 438}";
},
{
name = pixel.3;
transform = "{1, 0, 0, 1, -5, 566}";
},
{
name = pixel.3;
transform = "{1, 0, 0, 1, 251, 566}";
},
{
name = pixel.2;
transform = "{1, 0, 0, 1, -5, 694}";
},
{
name = pixel.2;
transform = "{1, 0, 0, 1, 315, 694}";
},
{
name = pixel.1;
transform = "{1, 0, 0, 1, -5, 822}";
},
{
name = pixel.1;
transform = "{1, 0, 0, 1, 379, 822}";
}
);
layerId = "EF047752-ED93-49D3-A4D1-D66A6AAE90C7";
width = 512;
},
{
background = {
paths = (
{
closed = 1;
nodes = (
"9 -61 OFFCURVE",
"-63 13 OFFCURVE",
"-63 115 OFFCURVE",
"9 189 OFFCURVE",
"62 189 QCURVE SMOOTH",
"66 189 LINE SMOOTH",
"119 189 OFFCURVE",
"191 115 OFFCURVE",
"191 13 OFFCURVE",
"119 -61 OFFCURVE",
"66 -61 QCURVE SMOOTH",
"62 -61 LINE SMOOTH"
);
},
{
closed = 1;
nodes = (
"329 -61 OFFCURVE",
"257 13 OFFCURVE",
"257 115 OFFCURVE",
"329 189 OFFCURVE",
"382 189 QCURVE SMOOTH",
"386 189 LINE SMOOTH",
"439 189 OFFCURVE",
"511 115 OFFCURVE",
"511 13 OFFCURVE",
"439 -61 OFFCURVE",
"386 -61 QCURVE SMOOTH",
"382 -61 LINE SMOOTH"
);
},
{
closed = 1;
nodes = (
"9 67 OFFCURVE",
"-63 141 OFFCURVE",
"-63 243 OFFCURVE",
"9 317 OFFCURVE",
"62 317 QCURVE SMOOTH",
"66 317 LINE SMOOTH",
"119 317 OFFCURVE",
"191 243 OFFCURVE",
"191 141 OFFCURVE",
"119 67 OFFCURVE",
"66 67 QCURVE SMOOTH",
"62 67 LINE SMOOTH"
);
},
{
closed = 1;
nodes = (
"329 67 OFFCURVE",
"257 141 OFFCURVE",
"257 243 OFFCURVE",
"329 317 OFFCURVE",
"382 317 QCURVE SMOOTH",
"386 317 LINE SMOOTH",
"439 317 OFFCURVE",
"511 243 OFFCURVE",
"511 141 OFFCURVE",
"439 67 OFFCURVE",
"386 67 QCURVE SMOOTH",
"382 67 LINE SMOOTH"
);
},
{
closed = 1;
nodes = (
"9 195 OFFCURVE",
"-63 269 OFFCURVE",
"-63 371 OFFCURVE",
"9 445 OFFCURVE",
"62 445 QCURVE SMOOTH",
"66 445 LINE SMOOTH",
"119 445 OFFCURVE",
"191 371 OFFCURVE",
"191 269 OFFCURVE",
"119 195 OFFCURVE",
"66 195 QCURVE SMOOTH",
"62 195 LINE SMOOTH"
);
},
{
closed = 1;
nodes = (
"201 195 OFFCURVE",
"129 269 OFFCURVE",
"129 371 OFFCURVE",
"201 445 OFFCURVE",
"254 445 QCURVE SMOOTH",
"194 445 LINE SMOOTH",
"247 445 OFFCURVE",
"319 371 OFFCURVE",
"319 269 OFFCURVE",
"247 195 OFFCURVE",
"194 195 QCURVE SMOOTH",
"254 195 LINE SMOOTH"
);
},
{
closed = 1;
nodes = (
"329 195 OFFCURVE",
"257 269 OFFCURVE",
"257 371 OFFCURVE",
"329 445 OFFCURVE",
"382 445 QCURVE SMOOTH",
"386 445 LINE SMOOTH",
"439 445 OFFCURVE",
"511 371 OFFCURVE",
"511 269 OFFCURVE",
"439 195 OFFCURVE",
"386 195 QCURVE SMOOTH",
"382 195 LINE SMOOTH"
);
},
{
closed = 1;
nodes = (
"17 323 OFFCURVE",
"-63 397 OFFCURVE",
"-63 499 OFFCURVE",
"17 573 OFFCURVE",
"87 573 QCURVE SMOOTH",
"361 573 LINE SMOOTH",
"431 573 OFFCURVE",
"511 499 OFFCURVE",
"511 397 OFFCURVE",
"431 323 OFFCURVE",
"361 323 QCURVE SMOOTH",
"87 323 LINE SMOOTH"
);
},
{
closed = 1;
nodes = (
"9 451 OFFCURVE",
"-63 525 OFFCURVE",
"-63 627 OFFCURVE",
"9 701 OFFCURVE",
"62 701 QCURVE SMOOTH",
"130 701 LINE SMOOTH",
"183 701 OFFCURVE",
"255 627 OFFCURVE",
"255 525 OFFCURVE",
"183 451 OFFCURVE",
"130 451 QCURVE SMOOTH",
"62 451 LINE SMOOTH"
);
},
{
closed = 1;
nodes = (
"265 451 OFFCURVE",
"193 525 OFFCURVE",
"193 627 OFFCURVE",
"265 701 OFFCURVE",
"318 701 QCURVE SMOOTH",
"386 701 LINE SMOOTH",
"439 701 OFFCURVE",
"511 627 OFFCURVE",
"511 525 OFFCURVE",
"439 451 OFFCURVE",
"386 451 QCURVE SMOOTH",
"318 451 LINE SMOOTH"
);
},
{
closed = 1;
nodes = (
"9 579 OFFCURVE",
"-63 653 OFFCURVE",
"-63 755 OFFCURVE",
"9 829 OFFCURVE",
"62 829 QCURVE SMOOTH",
"66 829 LINE SMOOTH",
"119 829 OFFCURVE",
"191 755 OFFCURVE",
"191 653 OFFCURVE",
"119 579 OFFCURVE",
"66 579 QCURVE SMOOTH",
"62 579 LINE SMOOTH"
);
},
{
closed = 1;
nodes = (
"329 579 OFFCURVE",
"257 653 OFFCURVE",
"257 755 OFFCURVE",
"329 829 OFFCURVE",
"382 829 QCURVE SMOOTH",
"386 829 LINE SMOOTH",
"439 829 OFFCURVE",
"511 755 OFFCURVE",
"511 653 OFFCURVE",
"439 579 OFFCURVE",
"386 579 QCURVE SMOOTH",
"382 579 LINE SMOOTH"
);
},
{
closed = 1;
nodes = (
"9 707 OFFCURVE",
"-63 781 OFFCURVE",
"-63 883 OFFCURVE",
"9 957 OFFCURVE",
"62 957 QCURVE SMOOTH",
"2 957 LINE SMOOTH",
"55 957 OFFCURVE",
"127 883 OFFCURVE",
"127 781 OFFCURVE",
"55 707 OFFCURVE",
"2 707 QCURVE SMOOTH",
"62 707 LINE SMOOTH"
);
},
{
closed = 1;
nodes = (
"393 707 OFFCURVE",
"321 781 OFFCURVE",
"321 883 OFFCURVE",
"393 957 OFFCURVE",
"446 957 QCURVE SMOOTH",
"386 957 LINE SMOOTH",
"439 957 OFFCURVE",
"511 883 OFFCURVE",
"511 781 OFFCURVE",
"439 707 OFFCURVE",
"386 707 QCURVE SMOOTH",
"446 707 LINE SMOOTH"
);
}
);
};
components = (
{
name = pixel.2;
transform = "{1, 0, 0, 1, -63, -61}";
},
{
name = pixel.2;
transform = "{1, 0, 0, 1, 257, -61}";
},
{
name = pixel.2;
transform = "{1, 0, 0, 1, -63, 67}";
},
{
name = pixel.2;
transform = "{1, 0, 0, 1, 257, 67}";
},
{
name = pixel.2;
transform = "{1, 0, 0, 1, -63, 195}";
},
{
name = pixel.1;
transform = "{1, 0, 0, 1, 129, 195}";
},
{
name = pixel.2;
transform = "{1, 0, 0, 1, 257, 195}";
},
{
name = pixel.7;
transform = "{1, 0, 0, 1, -63, 323}";
},
{
name = pixel.3;
transform = "{1, 0, 0, 1, -63, 451}";
},
{
name = pixel.3;
transform = "{1, 0, 0, 1, 193, 451}";
},
{
name = pixel.2;
transform = "{1, 0, 0, 1, -63, 579}";
},
{
name = pixel.2;
transform = "{1, 0, 0, 1, 257, 579}";
},
{
name = pixel.1;
transform = "{1, 0, 0, 1, -63, 707}";
},
{
name = pixel.1;
transform = "{1, 0, 0, 1, 321, 707}";
}
);
layerId = "164C8123-3F0E-4C99-877D-0E85C432A9CE";
width = 512;
},
{
components = (
{
name = pixel.2;
transform = "{1, 0, 0, 1, -93, 54}";
},
{
name = pixel.2;
transform = "{1, 0, 0, 1, 227, 54}";
},
{
name = pixel.2;
transform = "{1, 0, 0, 1, -93, 182}";
},
{
name = pixel.2;
transform = "{1, 0, 0, 1, 227, 182}";
},
{
name = pixel.2;
transform = "{1, 0, 0, 1, -93, 310}";
},
{
name = pixel.1;
transform = "{1, 0, 0, 1, 99, 310}";
},
{
name = pixel.2;
transform = "{1, 0, 0, 1, 227, 310}";
},
{
name = pixel.7;
transform = "{1, 0, 0, 1, -93, 438}";
},
{
name = pixel.3;
transform = "{1, 0, 0, 1, -93, 566}";
},
{
name = pixel.3;
transform = "{1, 0, 0, 1, 163, 566}";
},
{
name = pixel.2;
transform = "{1, 0, 0, 1, -93, 694}";
},
{
name = pixel.2;
transform = "{1, 0, 0, 1, 227, 694}";
},
{
name = pixel.1;
transform = "{1, 0, 0, 1, -93, 822}";
},
{
name = pixel.1;
transform = "{1, 0, 0, 1, 291, 822}";
}
);
layerId = "EDC3ADDC-530C-4ECE-AAC6-732B149A8D4A";
width = 512;
},
{
components = (
{
name = pixel.2;
transform = "{1, 0, 0, 1, -125, -61}";
},
{
name = pixel.2;
transform = "{1, 0, 0, 1, 195, -61}";
},
{
name = pixel.2;
transform = "{1, 0, 0, 1, -125, 67}";
},
{
name = pixel.2;
transform = "{1, 0, 0, 1, 195, 67}";
},
{
name = pixel.2;
transform = "{1, 0, 0, 1, -125, 195}";
},
{
name = pixel.1;
transform = "{1, 0, 0, 1, 67, 195}";
},
{
name = pixel.2;
transform = "{1, 0, 0, 1, 195, 195}";
},
{
name = pixel.7;
transform = "{1, 0, 0, 1, -125, 323}";
},
{
name = pixel.3;
transform = "{1, 0, 0, 1, -125, 451}";
},
{
name = pixel.3;
transform = "{1, 0, 0, 1, 131, 451}";
},
{
name = pixel.2;
transform = "{1, 0, 0, 1, -125, 579}";
},
{
name = pixel.2;
transform = "{1, 0, 0, 1, 195, 579}";
},
{
name = pixel.1;
transform = "{1, 0, 0, 1, -125, 707}";
},
{
name = pixel.1;
transform = "{1, 0, 0, 1, 259, 707}";
}
);
layerId = "38088322-78A3-4F4F-B46E-F8355B0BCD96";
width = 512;
}
);
unicode = 004D;
},
{
glyphname = N;
lastChange = "2019-07-27 13:36:41 +0000";
layers = (
{
background = {
paths = (
{
closed = 1;
nodes = (
"131 899 LINE",
"131 771 LINE",
"195 771 LINE",
"195 643 LINE",
"259 643 LINE",
"259 515 LINE",
"317 515 LINE",
"317 899 LINE",
"451 899 LINE",
"451 -3 LINE",
"317 -3 LINE",
"317 253 LINE",
"253 253 LINE",
"253 381 LINE",
"189 381 LINE",
"189 509 LINE",
"131 509 LINE",
"131 -3 LINE",
"-3 -3 LINE",
"-3 899 LINE"
);
}
);
};
layerId = master01;
paths = (
{
closed = 0;
nodes = (
"-3 64 LINE",
"131 64 LINE"
);
},
{
closed = 0;
nodes = (
"317 64 LINE",
"451 64 LINE"
);
},
{
closed = 0;
nodes = (
"-3 192 LINE",
"131 192 LINE"
);
},
{
closed = 0;
nodes = (
"317 192 LINE",
"451 192 LINE"
);
},
{
closed = 0;
nodes = (
"-3 320 LINE",
"131 320 LINE"
);
},
{
closed = 0;
nodes = (
"253 320 LINE",
"451 320 LINE"
);
},
{
closed = 0;
nodes = (
"-3 448 LINE",
"131 448 LINE"
);
},
{
closed = 0;
nodes = (
"189 448 LINE",
"451 448 LINE"
);
},
{
closed = 0;
nodes = (
"-3 576 LINE",
"259 576 LINE"
);
},
{
closed = 0;
nodes = (
"317 576 LINE",
"451 576 LINE"
);
},
{
closed = 0;
nodes = (
"-3 704 LINE",
"195 704 LINE"
);
},
{
closed = 0;
nodes = (
"317 704 LINE",
"451 704 LINE"
);
},
{
closed = 0;
nodes = (
"-3 832 LINE",
"131 832 LINE"
);
},
{
closed = 0;
nodes = (
"317 832 LINE",
"451 832 LINE"
);
}
);
userData = {
com.typemytype.robofont.mark = (
0.656,
1,
0.6,
1
);
};
width = 512;
},
{
layerId = "968AADD4-6AAB-4A21-B439-CFC52095EED4";
paths = (
{
closed = 1;
nodes = (
"131 899 LINE",
"131 771 LINE",
"195 771 LINE",
"195 643 LINE",
"259 643 LINE",
"259 515 LINE",
"317 515 LINE",
"317 899 LINE",
"451 899 LINE",
"451 -3 LINE",
"317 -3 LINE",
"317 253 LINE",
"253 253 LINE",
"253 381 LINE",
"189 381 LINE",
"189 509 LINE",
"131 509 LINE",
"131 -3 LINE",
"-3 -3 LINE",
"-3 899 LINE"
);
}
);
userData = {
com.typemytype.robofont.mark = (
0.656,
1,
0.6,
1
);
};
width = 512;
},
{
components = (
{
name = pixel.2;
transform = "{1, 0, 0, 1, -5, 54}";
},
{
name = pixel.2;
transform = "{1, 0, 0, 1, 315, 54}";
},
{
name = pixel.2;
transform = "{1, 0, 0, 1, -5, 182}";
},
{
name = pixel.2;
transform = "{1, 0, 0, 1, 315, 182}";
},
{
name = pixel.2;
transform = "{1, 0, 0, 1, -5, 310}";
},
{
name = pixel.3;
transform = "{1, 0, 0, 1, 251, 310}";
},
{
name = pixel.2;
transform = "{1, 0, 0, 1, -5, 438}";
},
{
name = pixel.4;
transform = "{1, 0, 0, 1, 187, 438}";
},
{
name = pixel.4;
transform = "{1, 0, 0, 1, -5, 566}";
},
{
name = pixel.2;
transform = "{1, 0, 0, 1, 315, 566}";
},
{
name = pixel.3;
transform = "{1, 0, 0, 1, -5, 694}";
},
{
name = pixel.2;
transform = "{1, 0, 0, 1, 315, 694}";
},
{
name = pixel.2;
transform = "{1, 0, 0, 1, -5, 822}";
},
{
name = pixel.2;
transform = "{1, 0, 0, 1, 315, 822}";
}
);
layerId = "EF047752-ED93-49D3-A4D1-D66A6AAE90C7";
width = 512;
},
{
components = (
{
name = pixel.2;
transform = "{1, 0, 0, 1, -63, -61}";
},
{
name = pixel.2;
transform = "{1, 0, 0, 1, 257, -61}";
},
{
name = pixel.2;
transform = "{1, 0, 0, 1, -63, 67}";
},
{
name = pixel.2;
transform = "{1, 0, 0, 1, 257, 67}";
},
{
name = pixel.2;
transform = "{1, 0, 0, 1, -63, 195}";
},
{
name = pixel.3;
transform = "{1, 0, 0, 1, 193, 195}";
},
{
name = pixel.2;
transform = "{1, 0, 0, 1, -63, 323}";
},
{
name = pixel.4;
transform = "{1, 0, 0, 1, 129, 323}";
},
{
name = pixel.4;
transform = "{1, 0, 0, 1, -63, 451}";
},
{
name = pixel.2;
transform = "{1, 0, 0, 1, 257, 451}";
},
{
name = pixel.3;
transform = "{1, 0, 0, 1, -63, 579}";
},
{
name = pixel.2;
transform = "{1, 0, 0, 1, 257, 579}";
},
{
name = pixel.2;
transform = "{1, 0, 0, 1, -63, 707}";
},
{
name = pixel.2;
transform = "{1, 0, 0, 1, 257, 707}";
}
);
layerId = "164C8123-3F0E-4C99-877D-0E85C432A9CE";
width = 512;
},
{
components = (
{
name = pixel.2;
transform = "{1, 0, 0, 1, -93, 54}";
},
{
name = pixel.2;
transform = "{1, 0, 0, 1, 227, 54}";
},
{
name = pixel.2;
transform = "{1, 0, 0, 1, -93, 182}";
},
{
name = pixel.2;
transform = "{1, 0, 0, 1, 227, 182}";
},
{
name = pixel.2;
transform = "{1, 0, 0, 1, -93, 310}";
},
{
name = pixel.3;
transform = "{1, 0, 0, 1, 163, 310}";
},
{
name = pixel.2;
transform = "{1, 0, 0, 1, -93, 438}";
},
{
name = pixel.4;
transform = "{1, 0, 0, 1, 99, 438}";
},
{
name = pixel.4;
transform = "{1, 0, 0, 1, -93, 566}";
},
{
name = pixel.2;
transform = "{1, 0, 0, 1, 227, 566}";
},
{
name = pixel.3;
transform = "{1, 0, 0, 1, -93, 694}";
},
{
name = pixel.2;
transform = "{1, 0, 0, 1, 227, 694}";
},
{
name = pixel.2;
transform = "{1, 0, 0, 1, -93, 822}";
},
{
name = pixel.2;
transform = "{1, 0, 0, 1, 227, 822}";
}
);
layerId = "EDC3ADDC-530C-4ECE-AAC6-732B149A8D4A";
width = 512;
},
{
components = (
{
name = pixel.2;
transform = "{1, 0, 0, 1, -125, -61}";
},
{
name = pixel.2;
transform = "{1, 0, 0, 1, 195, -61}";
},
{
name = pixel.2;
transform = "{1, 0, 0, 1, -125, 67}";
},
{
name = pixel.2;
transform = "{1, 0, 0, 1, 195, 67}";
},
{
name = pixel.2;
transform = "{1, 0, 0, 1, -125, 195}";
},
{
name = pixel.3;
transform = "{1, 0, 0, 1, 131, 195}";
},
{
name = pixel.2;
transform = "{1, 0, 0, 1, -125, 323}";
},
{
name = pixel.4;
transform = "{1, 0, 0, 1, 67, 323}";
},
{
name = pixel.4;
transform = "{1, 0, 0, 1, -125, 451}";
},
{
name = pixel.2;
transform = "{1, 0, 0, 1, 195, 451}";
},
{
name = pixel.3;
transform = "{1, 0, 0, 1, -125, 579}";
},
{
name = pixel.2;
transform = "{1, 0, 0, 1, 195, 579}";
},
{
name = pixel.2;
transform = "{1, 0, 0, 1, -125, 707}";
},
{
name = pixel.2;
transform = "{1, 0, 0, 1, 195, 707}";
}
);
layerId = "38088322-78A3-4F4F-B46E-F8355B0BCD96";
width = 512;
}
);
unicode = 004E;
},
{
color = 6;
glyphname = Ntilde;
lastChange = "2019-07-27 11:38:00 +0000";
layers = (
{
components = (
{
name = N.case;
},
{
name = tilde;
}
);
layerId = master01;
width = 512;
},
{
components = (
{
name = N.case;
},
{
name = tilde;
}
);
layerId = "EF047752-ED93-49D3-A4D1-D66A6AAE90C7";
width = 512;
},
{
components = (
{
name = N.case;
},
{
name = tilde;
}
);
layerId = "164C8123-3F0E-4C99-877D-0E85C432A9CE";
width = 512;
},
{
components = (
{
name = N.case;
},
{
name = tilde;
}
);
layerId = "EDC3ADDC-530C-4ECE-AAC6-732B149A8D4A";
width = 512;
},
{
components = (
{
name = N.case;
},
{
name = tilde;
}
);
layerId = "38088322-78A3-4F4F-B46E-F8355B0BCD96";
width = 512;
},
{
background = {
paths = (
{
closed = 1;
nodes = (
"192 512 LINE",
"128 512 LINE",
"128 640 LINE",
"64 640 LINE",
"64 768 LINE",
"0 768 LINE",
"0 0 LINE",
"128 0 LINE",
"128 384 LINE",
"192 384 LINE",
"192 256 LINE",
"256 256 LINE",
"256 128 LINE",
"320 128 LINE",
"320 0 LINE",
"448 0 LINE",
"448 768 LINE",
"256 768 LINE",
"256 896 LINE",
"64 896 LINE",
"64 768 LINE",
"256 768 LINE",
"256 640 LINE",
"320 640 LINE",
"320 256 LINE",
"256 256 LINE",
"256 384 LINE",
"192 384 LINE"
);
},
{
closed = 1;
nodes = (
"448 768 LINE",
"512 768 LINE",
"512 896 LINE",
"448 896 LINE"
);
}
);
};
components = (
{
name = N.case;
},
{
name = tilde;
}
);
layerId = "968AADD4-6AAB-4A21-B439-CFC52095EED4";
width = 512;
}
);
unicode = 00D1;
},
{
glyphname = O;
lastChange = "2019-07-27 13:36:41 +0000";
layers = (
{
background = {
paths = (
{
closed = 1;
nodes = (
"61 125 LINE",
"61 253 LINE",
"-3 253 LINE",
"-3 643 LINE",
"61 643 LINE",
"61 771 LINE",
"125 771 LINE",
"125 899 LINE",
"323 899 LINE",
"323 771 LINE",
"387 771 LINE",
"387 643 LINE",
"451 643 LINE",
"451 253 LINE",
"387 253 LINE",
"387 125 LINE",
"323 125 LINE",
"323 -3 LINE",
"125 -3 LINE",
"125 125 LINE"
);
},
{
closed = 1;
nodes = (
"195 765 LINE",
"195 637 LINE",
"131 637 LINE",
"131 259 LINE",
"195 259 LINE",
"195 131 LINE",
"253 131 LINE",
"253 259 LINE",
"317 259 LINE",
"317 637 LINE",
"253 637 LINE",
"253 765 LINE"
);
}
);
};
layerId = master01;
paths = (
{
closed = 0;
nodes = (
"125 64 LINE",
"323 64 LINE"
);
},
{
closed = 0;
nodes = (
"61 192 LINE",
"195 192 LINE"
);
},
{
closed = 0;
nodes = (
"253 192 LINE",
"387 192 LINE"
);
},
{
closed = 0;
nodes = (
"-3 320 LINE",
"131 320 LINE"
);
},
{
closed = 0;
nodes = (
"317 320 LINE",
"451 320 LINE"
);
},
{
closed = 0;
nodes = (
"-3 448 LINE",
"131 448 LINE"
);
},
{
closed = 0;
nodes = (
"317 448 LINE",
"451 448 LINE"
);
},
{
closed = 0;
nodes = (
"-3 576 LINE",
"131 576 LINE"
);
},
{
closed = 0;
nodes = (
"317 576 LINE",
"451 576 LINE"
);
},
{
closed = 0;
nodes = (
"61 704 LINE",
"195 704 LINE"
);
},
{
closed = 0;
nodes = (
"253 704 LINE",
"387 704 LINE"
);
},
{
closed = 0;
nodes = (
"125 832 LINE",
"323 832 LINE"
);
}
);
userData = {
com.typemytype.robofont.mark = (
0.656,
1,
0.6,
1
);
};
width = 512;
},
{
layerId = "968AADD4-6AAB-4A21-B439-CFC52095EED4";
paths = (
{
closed = 1;
nodes = (
"61 125 LINE",
"61 253 LINE",
"-3 253 LINE",
"-3 643 LINE",
"61 643 LINE",
"61 771 LINE",
"125 771 LINE",
"125 899 LINE",
"323 899 LINE",
"323 771 LINE",
"387 771 LINE",
"387 643 LINE",
"451 643 LINE",
"451 253 LINE",
"387 253 LINE",
"387 125 LINE",
"323 125 LINE",
"323 -3 LINE",
"125 -3 LINE",
"125 125 LINE"
);
},
{
closed = 1;
nodes = (
"195 765 LINE",
"195 637 LINE",
"131 637 LINE",
"131 259 LINE",
"195 259 LINE",
"195 131 LINE",
"253 131 LINE",
"253 259 LINE",
"317 259 LINE",
"317 637 LINE",
"253 637 LINE",
"253 765 LINE"
);
}
);
userData = {
com.typemytype.robofont.mark = (
0.656,
1,
0.6,
1
);
};
width = 512;
},
{
components = (
{
name = pixel.3;
transform = "{1, 0, 0, 1, 123, 54}";
},
{
name = pixel.2;
transform = "{1, 0, 0, 1, 59, 182}";
},
{
name = pixel.2;
transform = "{1, 0, 0, 1, 251, 182}";
},
{
name = pixel.2;
transform = "{1, 0, 0, 1, -5, 310}";
},
{
name = pixel.2;
transform = "{1, 0, 0, 1, 315, 310}";
},
{
name = pixel.2;
transform = "{1, 0, 0, 1, -5, 438}";
},
{
name = pixel.2;
transform = "{1, 0, 0, 1, 315, 438}";
},
{
name = pixel.2;
transform = "{1, 0, 0, 1, -5, 566}";
},
{
name = pixel.2;
transform = "{1, 0, 0, 1, 315, 566}";
},
{
name = pixel.2;
transform = "{1, 0, 0, 1, 59, 694}";
},
{
name = pixel.2;
transform = "{1, 0, 0, 1, 251, 694}";
},
{
name = pixel.3;
transform = "{1, 0, 0, 1, 123, 822}";
}
);
layerId = "EF047752-ED93-49D3-A4D1-D66A6AAE90C7";
width = 512;
},
{
components = (
{
name = pixel.3;
transform = "{1, 0, 0, 1, 65, -61}";
},
{
name = pixel.2;
transform = "{1, 0, 0, 1, 1, 67}";
},
{
name = pixel.2;
transform = "{1, 0, 0, 1, 193, 67}";
},
{
name = pixel.2;
transform = "{1, 0, 0, 1, -63, 195}";
},
{
name = pixel.2;
transform = "{1, 0, 0, 1, 257, 195}";
},
{
name = pixel.2;
transform = "{1, 0, 0, 1, -63, 323}";
},
{
name = pixel.2;
transform = "{1, 0, 0, 1, 257, 323}";
},
{
name = pixel.2;
transform = "{1, 0, 0, 1, -63, 451}";
},
{
name = pixel.2;
transform = "{1, 0, 0, 1, 257, 451}";
},
{
name = pixel.2;
transform = "{1, 0, 0, 1, 1, 579}";
},
{
name = pixel.2;
transform = "{1, 0, 0, 1, 193, 579}";
},
{
name = pixel.3;
transform = "{1, 0, 0, 1, 65, 707}";
}
);
layerId = "164C8123-3F0E-4C99-877D-0E85C432A9CE";
width = 512;
},
{
components = (
{
name = pixel.3;
transform = "{1, 0, 0, 1, 35, 54}";
},
{
name = pixel.2;
transform = "{1, 0, 0, 1, -29, 182}";
},
{
name = pixel.2;
transform = "{1, 0, 0, 1, 163, 182}";
},
{
name = pixel.2;
transform = "{1, 0, 0, 1, -93, 310}";
},
{
name = pixel.2;
transform = "{1, 0, 0, 1, 227, 310}";
},
{
name = pixel.2;
transform = "{1, 0, 0, 1, -93, 438}";
},
{
name = pixel.2;
transform = "{1, 0, 0, 1, 227, 438}";
},
{
name = pixel.2;
transform = "{1, 0, 0, 1, -93, 566}";
},
{
name = pixel.2;
transform = "{1, 0, 0, 1, 227, 566}";
},
{
name = pixel.2;
transform = "{1, 0, 0, 1, -29, 694}";
},
{
name = pixel.2;
transform = "{1, 0, 0, 1, 163, 694}";
},
{
name = pixel.3;
transform = "{1, 0, 0, 1, 35, 822}";
}
);
layerId = "EDC3ADDC-530C-4ECE-AAC6-732B149A8D4A";
width = 512;
},
{
components = (
{
name = pixel.3;
transform = "{1, 0, 0, 1, 3, -61}";
},
{
name = pixel.2;
transform = "{1, 0, 0, 1, -61, 67}";
},
{
name = pixel.2;
transform = "{1, 0, 0, 1, 131, 67}";
},
{
name = pixel.2;
transform = "{1, 0, 0, 1, -125, 195}";
},
{
name = pixel.2;
transform = "{1, 0, 0, 1, 195, 195}";
},
{
name = pixel.2;
transform = "{1, 0, 0, 1, -125, 323}";
},
{
name = pixel.2;
transform = "{1, 0, 0, 1, 195, 323}";
},
{
name = pixel.2;
transform = "{1, 0, 0, 1, -125, 451}";
},
{
name = pixel.2;
transform = "{1, 0, 0, 1, 195, 451}";
},
{
name = pixel.2;
transform = "{1, 0, 0, 1, -61, 579}";
},
{
name = pixel.2;
transform = "{1, 0, 0, 1, 131, 579}";
},
{
name = pixel.3;
transform = "{1, 0, 0, 1, 3, 707}";
}
);
layerId = "38088322-78A3-4F4F-B46E-F8355B0BCD96";
width = 512;
}
);
unicode = 004F;
},
{
color = 6;
glyphname = Oacute;
lastChange = "2019-07-27 11:38:00 +0000";
layers = (
{
components = (
{
name = O.case;
},
{
name = acute;
transform = "{1, 0, 0, 1, 64, 0}";
}
);
layerId = master01;
width = 512;
},
{
components = (
{
name = O.case;
},
{
name = acute;
transform = "{1, 0, 0, 1, 64, 0}";
}
);
layerId = "EF047752-ED93-49D3-A4D1-D66A6AAE90C7";
width = 512;
},
{
components = (
{
name = O.case;
},
{
name = acute;
transform = "{1, 0, 0, 1, 64, 0}";
}
);
layerId = "164C8123-3F0E-4C99-877D-0E85C432A9CE";
width = 512;
},
{
components = (
{
name = O.case;
},
{
name = acute;
transform = "{1, 0, 0, 1, 64, 0}";
}
);
layerId = "EDC3ADDC-530C-4ECE-AAC6-732B149A8D4A";
width = 512;
},
{
components = (
{
name = O.case;
},
{
name = acute;
transform = "{1, 0, 0, 1, 64, 0}";
}
);
layerId = "38088322-78A3-4F4F-B46E-F8355B0BCD96";
width = 512;
},
{
background = {
paths = (
{
closed = 1;
nodes = (
"128 0 LINE",
"384 0 LINE",
"384 128 LINE",
"448 128 LINE",
"448 256 LINE",
"512 256 LINE",
"512 384 LINE",
"448 384 LINE",
"448 512 LINE",
"384 512 LINE",
"384 640 LINE",
"256 640 LINE",
"256 768 LINE",
"192 768 LINE",
"192 640 LINE",
"128 640 LINE",
"128 512 LINE",
"64 512 LINE",
"64 384 LINE",
"0 384 LINE",
"0 256 LINE",
"64 256 LINE",
"64 128 LINE",
"128 128 LINE"
);
},
{
closed = 1;
nodes = (
"192 256 LINE",
"128 256 LINE",
"128 384 LINE",
"192 384 LINE",
"192 512 LINE",
"320 512 LINE",
"320 384 LINE",
"384 384 LINE",
"384 256 LINE",
"320 256 LINE",
"320 128 LINE",
"192 128 LINE"
);
},
{
closed = 1;
nodes = (
"256 768 LINE",
"384 768 LINE",
"384 896 LINE",
"256 896 LINE"
);
}
);
};
components = (
{
name = O.case;
},
{
name = acute;
transform = "{1, 0, 0, 1, 64, 0}";
}
);
layerId = "968AADD4-6AAB-4A21-B439-CFC52095EED4";
width = 512;
}
);
unicode = 00D3;
},
{
color = 6;
glyphname = Ocircumflex;
lastChange = "2019-07-27 11:38:00 +0000";
layers = (
{
components = (
{
name = O.case;
},
{
name = circumflex;
}
);
layerId = master01;
width = 512;
},
{
components = (
{
name = O.case;
},
{
name = circumflex;
}
);
layerId = "EF047752-ED93-49D3-A4D1-D66A6AAE90C7";
width = 512;
},
{
components = (
{
name = O.case;
},
{
name = circumflex;
}
);
layerId = "164C8123-3F0E-4C99-877D-0E85C432A9CE";
width = 512;
},
{
components = (
{
name = O.case;
},
{
name = circumflex;
}
);
layerId = "EDC3ADDC-530C-4ECE-AAC6-732B149A8D4A";
width = 512;
},
{
components = (
{
name = O.case;
},
{
name = circumflex;
}
);
layerId = "38088322-78A3-4F4F-B46E-F8355B0BCD96";
width = 512;
},
{
background = {
paths = (
{
closed = 1;
nodes = (
"192 768 LINE",
"128 768 LINE",
"128 512 LINE",
"64 512 LINE",
"64 384 LINE",
"0 384 LINE",
"0 256 LINE",
"64 256 LINE",
"64 128 LINE",
"128 128 LINE",
"128 0 LINE",
"384 0 LINE",
"384 128 LINE",
"448 128 LINE",
"448 256 LINE",
"512 256 LINE",
"512 384 LINE",
"448 384 LINE",
"448 512 LINE",
"384 512 LINE",
"384 768 LINE",
"320 768 LINE",
"320 896 LINE",
"192 896 LINE"
);
},
{
closed = 1;
nodes = (
"192 256 LINE",
"128 256 LINE",
"128 384 LINE",
"192 384 LINE",
"192 512 LINE",
"320 512 LINE",
"320 384 LINE",
"384 384 LINE",
"384 256 LINE",
"320 256 LINE",
"320 128 LINE",
"192 128 LINE"
);
},
{
closed = 1;
nodes = (
"192 768 LINE",
"320 768 LINE",
"320 640 LINE",
"192 640 LINE"
);
}
);
};
components = (
{
name = O.case;
},
{
name = circumflex;
}
);
layerId = "968AADD4-6AAB-4A21-B439-CFC52095EED4";
width = 512;
}
);
unicode = 00D4;
},
{
glyphname = Odieresis;
lastChange = "2019-07-27 13:36:41 +0000";
layers = (
{
background = {
paths = (
{
closed = 1;
nodes = (
"131 899 LINE",
"131 771 LINE",
"317 771 LINE",
"317 899 LINE",
"451 899 LINE",
"451 765 LINE",
"323 765 LINE",
"323 643 LINE",
"387 643 LINE",
"387 515 LINE",
"451 515 LINE",
"451 253 LINE",
"387 253 LINE",
"387 125 LINE",
"323 125 LINE",
"323 -3 LINE",
"125 -3 LINE",
"125 125 LINE",
"61 125 LINE",
"61 253 LINE",
"-3 253 LINE",
"-3 515 LINE",
"61 515 LINE",
"61 643 LINE",
"125 643 LINE",
"125 765 LINE",
"-3 765 LINE",
"-3 899 LINE"
);
},
{
closed = 1;
nodes = (
"195 637 LINE",
"195 509 LINE",
"131 509 LINE",
"131 259 LINE",
"195 259 LINE",
"195 131 LINE",
"253 131 LINE",
"253 259 LINE",
"317 259 LINE",
"317 509 LINE",
"253 509 LINE",
"253 637 LINE"
);
}
);
};
layerId = master01;
paths = (
{
closed = 0;
nodes = (
"125 64 LINE",
"387 64 LINE"
);
},
{
closed = 0;
nodes = (
"61 192 LINE",
"195 192 LINE"
);
},
{
closed = 0;
nodes = (
"317 192 LINE",
"451 192 LINE"
);
},
{
closed = 0;
nodes = (
"-3 320 LINE",
"131 320 LINE"
);
},
{
closed = 0;
nodes = (
"381 320 LINE",
"515 320 LINE"
);
},
{
closed = 0;
nodes = (
"-3 448 LINE",
"131 448 LINE"
);
},
{
closed = 0;
nodes = (
"381 448 LINE",
"515 448 LINE"
);
},
{
closed = 0;
nodes = (
"61 576 LINE",
"195 576 LINE"
);
},
{
closed = 0;
nodes = (
"317 576 LINE",
"451 576 LINE"
);
},
{
closed = 0;
nodes = (
"125 704 LINE",
"387 704 LINE"
);
},
{
closed = 0;
nodes = (
"-3 832 LINE",
"131 832 LINE"
);
},
{
closed = 0;
nodes = (
"381 832 LINE",
"515 832 LINE"
);
}
);
userData = {
com.typemytype.robofont.mark = (
0.6,
0.609,
1,
1
);
};
width = 512;
},
{
layerId = "968AADD4-6AAB-4A21-B439-CFC52095EED4";
paths = (
{
closed = 1;
nodes = (
"131 899 LINE",
"131 771 LINE",
"381 771 LINE",
"381 899 LINE",
"515 899 LINE",
"515 765 LINE",
"387 765 LINE",
"387 643 LINE",
"451 643 LINE",
"451 515 LINE",
"515 515 LINE",
"515 253 LINE",
"451 253 LINE",
"451 125 LINE",
"387 125 LINE",
"387 -3 LINE",
"125 -3 LINE",
"125 125 LINE",
"61 125 LINE",
"61 253 LINE",
"-3 253 LINE",
"-3 515 LINE",
"61 515 LINE",
"61 643 LINE",
"125 643 LINE",
"125 765 LINE",
"-3 765 LINE",
"-3 899 LINE"
);
},
{
closed = 1;
nodes = (
"195 637 LINE",
"195 509 LINE",
"131 509 LINE",
"131 259 LINE",
"195 259 LINE",
"195 131 LINE",
"317 131 LINE",
"317 259 LINE",
"381 259 LINE",
"381 509 LINE",
"317 509 LINE",
"317 637 LINE"
);
}
);
userData = {
com.typemytype.robofont.mark = (
0.6,
0.609,
1,
1
);
};
width = 512;
},
{
components = (
{
name = pixel.4;
transform = "{1, 0, 0, 1, 123, 54}";
},
{
name = pixel.2;
transform = "{1, 0, 0, 1, 59, 182}";
},
{
name = pixel.2;
transform = "{1, 0, 0, 1, 315, 182}";
},
{
name = pixel.2;
transform = "{1, 0, 0, 1, -5, 310}";
},
{
name = pixel.2;
transform = "{1, 0, 0, 1, 379, 310}";
},
{
name = pixel.2;
transform = "{1, 0, 0, 1, -5, 438}";
},
{
name = pixel.2;
transform = "{1, 0, 0, 1, 379, 438}";
},
{
name = pixel.2;
transform = "{1, 0, 0, 1, 59, 566}";
},
{
name = pixel.2;
transform = "{1, 0, 0, 1, 315, 566}";
},
{
name = pixel.4;
transform = "{1, 0, 0, 1, 123, 694}";
},
{
name = pixel.2;
transform = "{1, 0, 0, 1, -5, 822}";
},
{
name = pixel.2;
transform = "{1, 0, 0, 1, 379, 822}";
}
);
layerId = "EF047752-ED93-49D3-A4D1-D66A6AAE90C7";
width = 512;
},
{
components = (
{
name = pixel.4;
transform = "{1, 0, 0, 1, 65, -61}";
},
{
name = pixel.2;
transform = "{1, 0, 0, 1, 1, 67}";
},
{
name = pixel.2;
transform = "{1, 0, 0, 1, 257, 67}";
},
{
name = pixel.2;
transform = "{1, 0, 0, 1, -63, 195}";
},
{
name = pixel.2;
transform = "{1, 0, 0, 1, 321, 195}";
},
{
name = pixel.2;
transform = "{1, 0, 0, 1, -63, 323}";
},
{
name = pixel.2;
transform = "{1, 0, 0, 1, 321, 323}";
},
{
name = pixel.2;
transform = "{1, 0, 0, 1, 1, 451}";
},
{
name = pixel.2;
transform = "{1, 0, 0, 1, 257, 451}";
},
{
name = pixel.4;
transform = "{1, 0, 0, 1, 65, 579}";
},
{
name = pixel.2;
transform = "{1, 0, 0, 1, -63, 707}";
},
{
name = pixel.2;
transform = "{1, 0, 0, 1, 321, 707}";
}
);
layerId = "164C8123-3F0E-4C99-877D-0E85C432A9CE";
width = 512;
},
{
components = (
{
name = pixel.4;
transform = "{1, 0, 0, 1, 35, 54}";
},
{
name = pixel.2;
transform = "{1, 0, 0, 1, -29, 182}";
},
{
name = pixel.2;
transform = "{1, 0, 0, 1, 227, 182}";
},
{
name = pixel.2;
transform = "{1, 0, 0, 1, -93, 310}";
},
{
name = pixel.2;
transform = "{1, 0, 0, 1, 291, 310}";
},
{
name = pixel.2;
transform = "{1, 0, 0, 1, -93, 438}";
},
{
name = pixel.2;
transform = "{1, 0, 0, 1, 291, 438}";
},
{
name = pixel.2;
transform = "{1, 0, 0, 1, -29, 566}";
},
{
name = pixel.2;
transform = "{1, 0, 0, 1, 227, 566}";
},
{
name = pixel.4;
transform = "{1, 0, 0, 1, 35, 694}";
},
{
name = pixel.2;
transform = "{1, 0, 0, 1, -93, 822}";
},
{
name = pixel.2;
transform = "{1, 0, 0, 1, 291, 822}";
}
);
layerId = "EDC3ADDC-530C-4ECE-AAC6-732B149A8D4A";
width = 512;
},
{
components = (
{
name = pixel.4;
transform = "{1, 0, 0, 1, 3, -61}";
},
{
name = pixel.2;
transform = "{1, 0, 0, 1, -61, 67}";
},
{
name = pixel.2;
transform = "{1, 0, 0, 1, 195, 67}";
},
{
name = pixel.2;
transform = "{1, 0, 0, 1, -125, 195}";
},
{
name = pixel.2;
transform = "{1, 0, 0, 1, 259, 195}";
},
{
name = pixel.2;
transform = "{1, 0, 0, 1, -125, 323}";
},
{
name = pixel.2;
transform = "{1, 0, 0, 1, 259, 323}";
},
{
name = pixel.2;
transform = "{1, 0, 0, 1, -61, 451}";
},
{
name = pixel.2;
transform = "{1, 0, 0, 1, 195, 451}";
},
{
name = pixel.4;
transform = "{1, 0, 0, 1, 3, 579}";
},
{
name = pixel.2;
transform = "{1, 0, 0, 1, -125, 707}";
},
{
name = pixel.2;
transform = "{1, 0, 0, 1, 259, 707}";
}
);
layerId = "38088322-78A3-4F4F-B46E-F8355B0BCD96";
width = 512;
}
);
unicode = 00D6;
},
{
color = 6;
glyphname = Ograve;
lastChange = "2019-07-27 11:38:00 +0000";
layers = (
{
components = (
{
name = O.case;
},
{
name = grave;
transform = "{1, 0, 0, 1, -64, 0}";
}
);
layerId = master01;
width = 512;
},
{
components = (
{
name = O.case;
},
{
name = grave;
transform = "{1, 0, 0, 1, -64, 0}";
}
);
layerId = "EF047752-ED93-49D3-A4D1-D66A6AAE90C7";
width = 512;
},
{
components = (
{
name = O.case;
},
{
name = grave;
transform = "{1, 0, 0, 1, -64, 0}";
}
);
layerId = "164C8123-3F0E-4C99-877D-0E85C432A9CE";
width = 512;
},
{
components = (
{
name = O.case;
},
{
name = grave;
transform = "{1, 0, 0, 1, -64, 0}";
}
);
layerId = "EDC3ADDC-530C-4ECE-AAC6-732B149A8D4A";
width = 512;
},
{
components = (
{
name = O.case;
},
{
name = grave;
transform = "{1, 0, 0, 1, -64, 0}";
}
);
layerId = "38088322-78A3-4F4F-B46E-F8355B0BCD96";
width = 512;
},
{
background = {
paths = (
{
closed = 1;
nodes = (
"128 0 LINE",
"384 0 LINE",
"384 128 LINE",
"448 128 LINE",
"448 256 LINE",
"512 256 LINE",
"512 384 LINE",
"448 384 LINE",
"448 512 LINE",
"384 512 LINE",
"384 640 LINE",
"320 640 LINE",
"320 768 LINE",
"256 768 LINE",
"256 896 LINE",
"128 896 LINE",
"128 768 LINE",
"256 768 LINE",
"256 640 LINE",
"128 640 LINE",
"128 512 LINE",
"64 512 LINE",
"64 384 LINE",
"0 384 LINE",
"0 256 LINE",
"64 256 LINE",
"64 128 LINE",
"128 128 LINE"
);
},
{
closed = 1;
nodes = (
"192 256 LINE",
"128 256 LINE",
"128 384 LINE",
"192 384 LINE",
"192 512 LINE",
"320 512 LINE",
"320 384 LINE",
"384 384 LINE",
"384 256 LINE",
"320 256 LINE",
"320 128 LINE",
"192 128 LINE"
);
}
);
};
components = (
{
name = O.case;
},
{
name = grave;
transform = "{1, 0, 0, 1, -64, 0}";
}
);
layerId = "968AADD4-6AAB-4A21-B439-CFC52095EED4";
width = 512;
}
);
unicode = 00D2;
},
{
glyphname = Oslash;
lastChange = "2019-07-27 13:36:41 +0000";
layers = (
{
background = {
paths = (
{
closed = 1;
nodes = (
"67 125 LINE",
"67 -3 LINE",
"-3 -3 LINE",
"-3 131 LINE",
"61 131 LINE",
"61 253 LINE",
"-3 253 LINE",
"-3 643 LINE",
"61 643 LINE",
"61 771 LINE",
"125 771 LINE",
"125 899 LINE",
"387 899 LINE",
"387 771 LINE",
"445 771 LINE",
"445 899 LINE",
"515 899 LINE",
"515 765 LINE",
"451 765 LINE",
"451 643 LINE",
"515 643 LINE",
"515 253 LINE",
"451 253 LINE",
"451 125 LINE",
"387 125 LINE",
"387 -3 LINE",
"125 -3 LINE",
"125 125 LINE"
);
},
{
closed = 1;
nodes = (
"323 509 LINE",
"323 381 LINE",
"259 381 LINE",
"259 253 LINE",
"195 253 LINE",
"195 131 LINE",
"317 131 LINE",
"317 259 LINE",
"381 259 LINE",
"381 509 LINE"
);
},
{
closed = 1;
nodes = (
"195 765 LINE",
"195 637 LINE",
"131 637 LINE",
"131 387 LINE",
"189 387 LINE",
"189 515 LINE",
"253 515 LINE",
"253 643 LINE",
"317 643 LINE",
"317 765 LINE"
);
}
);
};
layerId = master01;
paths = (
{
closed = 0;
nodes = (
"-3 64 LINE",
"67 64 LINE"
);
},
{
closed = 0;
nodes = (
"125 64 LINE",
"387 64 LINE"
);
},
{
closed = 0;
nodes = (
"61 192 LINE",
"195 192 LINE"
);
},
{
closed = 0;
nodes = (
"317 192 LINE",
"451 192 LINE"
);
},
{
closed = 0;
nodes = (
"-3 320 LINE",
"259 320 LINE"
);
},
{
closed = 0;
nodes = (
"381 320 LINE",
"515 320 LINE"
);
},
{
closed = 0;
nodes = (
"-3 448 LINE",
"131 448 LINE"
);
},
{
closed = 0;
nodes = (
"189 448 LINE",
"323 448 LINE"
);
},
{
closed = 0;
nodes = (
"381 448 LINE",
"515 448 LINE"
);
},
{
closed = 0;
nodes = (
"-3 576 LINE",
"131 576 LINE"
);
},
{
closed = 0;
nodes = (
"253 576 LINE",
"515 576 LINE"
);
},
{
closed = 0;
nodes = (
"61 704 LINE",
"195 704 LINE"
);
},
{
closed = 0;
nodes = (
"317 704 LINE",
"451 704 LINE"
);
},
{
closed = 0;
nodes = (
"125 832 LINE",
"387 832 LINE"
);
},
{
closed = 0;
nodes = (
"445 832 LINE",
"515 832 LINE"
);
}
);
userData = {
com.typemytype.robofont.mark = (
0.656,
1,
0.6,
1
);
};
width = 512;
},
{
layerId = "968AADD4-6AAB-4A21-B439-CFC52095EED4";
paths = (
{
closed = 1;
nodes = (
"67 125 LINE",
"67 -3 LINE",
"-3 -3 LINE",
"-3 131 LINE",
"61 131 LINE",
"61 253 LINE",
"-3 253 LINE",
"-3 643 LINE",
"61 643 LINE",
"61 771 LINE",
"125 771 LINE",
"125 899 LINE",
"387 899 LINE",
"387 771 LINE",
"445 771 LINE",
"445 899 LINE",
"515 899 LINE",
"515 765 LINE",
"451 765 LINE",
"451 643 LINE",
"515 643 LINE",
"515 253 LINE",
"451 253 LINE",
"451 125 LINE",
"387 125 LINE",
"387 -3 LINE",
"125 -3 LINE",
"125 125 LINE"
);
},
{
closed = 1;
nodes = (
"323 509 LINE",
"323 381 LINE",
"259 381 LINE",
"259 253 LINE",
"195 253 LINE",
"195 131 LINE",
"317 131 LINE",
"317 259 LINE",
"381 259 LINE",
"381 509 LINE"
);
},
{
closed = 1;
nodes = (
"195 765 LINE",
"195 637 LINE",
"131 637 LINE",
"131 387 LINE",
"189 387 LINE",
"189 515 LINE",
"253 515 LINE",
"253 643 LINE",
"317 643 LINE",
"317 765 LINE"
);
}
);
userData = {
com.typemytype.robofont.mark = (
0.656,
1,
0.6,
1
);
};
width = 512;
},
{
components = (
{
name = pixel.1;
transform = "{1, 0, 0, 1, -5, 54}";
},
{
name = pixel.4;
transform = "{1, 0, 0, 1, 123, 54}";
},
{
name = pixel.2;
transform = "{1, 0, 0, 1, 59, 182}";
},
{
name = pixel.2;
transform = "{1, 0, 0, 1, 315, 182}";
},
{
name = pixel.4;
transform = "{1, 0, 0, 1, -5, 310}";
},
{
name = pixel.2;
transform = "{1, 0, 0, 1, 379, 310}";
},
{
name = pixel.2;
transform = "{1, 0, 0, 1, -5, 438}";
},
{
name = pixel.2;
transform = "{1, 0, 0, 1, 187, 438}";
},
{
name = pixel.2;
transform = "{1, 0, 0, 1, 379, 438}";
},
{
name = pixel.2;
transform = "{1, 0, 0, 1, -5, 566}";
},
{
name = pixel.4;
transform = "{1, 0, 0, 1, 251, 566}";
},
{
name = pixel.2;
transform = "{1, 0, 0, 1, 59, 694}";
},
{
name = pixel.2;
transform = "{1, 0, 0, 1, 315, 694}";
},
{
name = pixel.4;
transform = "{1, 0, 0, 1, 123, 822}";
},
{
name = pixel.1;
transform = "{1, 0, 0, 1, 443, 822}";
}
);
layerId = "EF047752-ED93-49D3-A4D1-D66A6AAE90C7";
width = 512;
},
{
background = {
paths = (
{
closed = 1;
nodes = (
"9 -61 OFFCURVE",
"-63 13 OFFCURVE",
"-63 115 OFFCURVE",
"9 189 OFFCURVE",
"62 189 QCURVE SMOOTH",
"2 189 LINE SMOOTH",
"55 189 OFFCURVE",
"127 115 OFFCURVE",
"127 13 OFFCURVE",
"55 -61 OFFCURVE",
"2 -61 QCURVE SMOOTH",
"62 -61 LINE SMOOTH"
);
},
{
closed = 1;
nodes = (
"145 -61 OFFCURVE",
"65 13 OFFCURVE",
"65 115 OFFCURVE",
"145 189 OFFCURVE",
"215 189 QCURVE SMOOTH",
"297 189 LINE SMOOTH",
"367 189 OFFCURVE",
"447 115 OFFCURVE",
"447 13 OFFCURVE",
"367 -61 OFFCURVE",
"297 -61 QCURVE SMOOTH",
"215 -61 LINE SMOOTH"
);
},
{
closed = 1;
nodes = (
"73 67 OFFCURVE",
"1 141 OFFCURVE",
"1 243 OFFCURVE",
"73 317 OFFCURVE",
"126 317 QCURVE SMOOTH",
"130 317 LINE SMOOTH",
"183 317 OFFCURVE",
"255 243 OFFCURVE",
"255 141 OFFCURVE",
"183 67 OFFCURVE",
"130 67 QCURVE SMOOTH",
"126 67 LINE SMOOTH"
);
},
{
closed = 1;
nodes = (
"329 67 OFFCURVE",
"257 141 OFFCURVE",
"257 243 OFFCURVE",
"329 317 OFFCURVE",
"382 317 QCURVE SMOOTH",
"386 317 LINE SMOOTH",
"439 317 OFFCURVE",
"511 243 OFFCURVE",
"511 141 OFFCURVE",
"439 67 OFFCURVE",
"386 67 QCURVE SMOOTH",
"382 67 LINE SMOOTH"
);
},
{
closed = 1;
nodes = (
"17 195 OFFCURVE",
"-63 269 OFFCURVE",
"-63 371 OFFCURVE",
"17 445 OFFCURVE",
"87 445 QCURVE SMOOTH",
"169 445 LINE SMOOTH",
"239 445 OFFCURVE",
"319 371 OFFCURVE",
"319 269 OFFCURVE",
"239 195 OFFCURVE",
"169 195 QCURVE SMOOTH",
"87 195 LINE SMOOTH"
);
},
{
closed = 1;
nodes = (
"393 195 OFFCURVE",
"321 269 OFFCURVE",
"321 371 OFFCURVE",
"393 445 OFFCURVE",
"446 445 QCURVE SMOOTH",
"450 445 LINE SMOOTH",
"503 445 OFFCURVE",
"575 371 OFFCURVE",
"575 269 OFFCURVE",
"503 195 OFFCURVE",
"450 195 QCURVE SMOOTH",
"446 195 LINE SMOOTH"
);
},
{
closed = 1;
nodes = (
"9 323 OFFCURVE",
"-63 397 OFFCURVE",
"-63 499 OFFCURVE",
"9 573 OFFCURVE",
"62 573 QCURVE SMOOTH",
"66 573 LINE SMOOTH",
"119 573 OFFCURVE",
"191 499 OFFCURVE",
"191 397 OFFCURVE",
"119 323 OFFCURVE",
"66 323 QCURVE SMOOTH",
"62 323 LINE SMOOTH"
);
},
{
closed = 1;
nodes = (
"201 323 OFFCURVE",
"129 397 OFFCURVE",
"129 499 OFFCURVE",
"201 573 OFFCURVE",
"254 573 QCURVE SMOOTH",
"258 573 LINE SMOOTH",
"311 573 OFFCURVE",
"383 499 OFFCURVE",
"383 397 OFFCURVE",
"311 323 OFFCURVE",
"258 323 QCURVE SMOOTH",
"254 323 LINE SMOOTH"
);
},
{
closed = 1;
nodes = (
"393 323 OFFCURVE",
"321 397 OFFCURVE",
"321 499 OFFCURVE",
"393 573 OFFCURVE",
"446 573 QCURVE SMOOTH",
"450 573 LINE SMOOTH",
"503 573 OFFCURVE",
"575 499 OFFCURVE",
"575 397 OFFCURVE",
"503 323 OFFCURVE",
"450 323 QCURVE SMOOTH",
"446 323 LINE SMOOTH"
);
},
{
closed = 1;
nodes = (
"9 451 OFFCURVE",
"-63 525 OFFCURVE",
"-63 627 OFFCURVE",
"9 701 OFFCURVE",
"62 701 QCURVE SMOOTH",
"66 701 LINE SMOOTH",
"119 701 OFFCURVE",
"191 627 OFFCURVE",
"191 525 OFFCURVE",
"119 451 OFFCURVE",
"66 451 QCURVE SMOOTH",
"62 451 LINE SMOOTH"
);
},
{
closed = 1;
nodes = (
"273 451 OFFCURVE",
"193 525 OFFCURVE",
"193 627 OFFCURVE",
"273 701 OFFCURVE",
"343 701 QCURVE SMOOTH",
"425 701 LINE SMOOTH",
"495 701 OFFCURVE",
"575 627 OFFCURVE",
"575 525 OFFCURVE",
"495 451 OFFCURVE",
"425 451 QCURVE SMOOTH",
"343 451 LINE SMOOTH"
);
},
{
closed = 1;
nodes = (
"73 579 OFFCURVE",
"1 653 OFFCURVE",
"1 755 OFFCURVE",
"73 829 OFFCURVE",
"126 829 QCURVE SMOOTH",
"130 829 LINE SMOOTH",
"183 829 OFFCURVE",
"255 755 OFFCURVE",
"255 653 OFFCURVE",
"183 579 OFFCURVE",
"130 579 QCURVE SMOOTH",
"126 579 LINE SMOOTH"
);
},
{
closed = 1;
nodes = (
"329 579 OFFCURVE",
"257 653 OFFCURVE",
"257 755 OFFCURVE",
"329 829 OFFCURVE",
"382 829 QCURVE SMOOTH",
"386 829 LINE SMOOTH",
"439 829 OFFCURVE",
"511 755 OFFCURVE",
"511 653 OFFCURVE",
"439 579 OFFCURVE",
"386 579 QCURVE SMOOTH",
"382 579 LINE SMOOTH"
);
},
{
closed = 1;
nodes = (
"145 707 OFFCURVE",
"65 781 OFFCURVE",
"65 883 OFFCURVE",
"145 957 OFFCURVE",
"215 957 QCURVE SMOOTH",
"297 957 LINE SMOOTH",
"367 957 OFFCURVE",
"447 883 OFFCURVE",
"447 781 OFFCURVE",
"367 707 OFFCURVE",
"297 707 QCURVE SMOOTH",
"215 707 LINE SMOOTH"
);
},
{
closed = 1;
nodes = (
"457 707 OFFCURVE",
"385 781 OFFCURVE",
"385 883 OFFCURVE",
"457 957 OFFCURVE",
"510 957 QCURVE SMOOTH",
"450 957 LINE SMOOTH",
"503 957 OFFCURVE",
"575 883 OFFCURVE",
"575 781 OFFCURVE",
"503 707 OFFCURVE",
"450 707 QCURVE SMOOTH",
"510 707 LINE SMOOTH"
);
}
);
};
components = (
{
name = pixel.1;
transform = "{1, 0, 0, 1, -63, -61}";
},
{
name = pixel.4;
transform = "{1, 0, 0, 1, 65, -61}";
},
{
name = pixel.2;
transform = "{1, 0, 0, 1, 1, 67}";
},
{
name = pixel.2;
transform = "{1, 0, 0, 1, 257, 67}";
},
{
name = pixel.4;
transform = "{1, 0, 0, 1, -63, 195}";
},
{
name = pixel.2;
transform = "{1, 0, 0, 1, 321, 195}";
},
{
name = pixel.2;
transform = "{1, 0, 0, 1, -63, 323}";
},
{
name = pixel.2;
transform = "{1, 0, 0, 1, 129, 323}";
},
{
name = pixel.2;
transform = "{1, 0, 0, 1, 321, 323}";
},
{
name = pixel.2;
transform = "{1, 0, 0, 1, -63, 451}";
},
{
name = pixel.4;
transform = "{1, 0, 0, 1, 193, 451}";
},
{
name = pixel.2;
transform = "{1, 0, 0, 1, 1, 579}";
},
{
name = pixel.2;
transform = "{1, 0, 0, 1, 257, 579}";
},
{
name = pixel.4;
transform = "{1, 0, 0, 1, 65, 707}";
},
{
name = pixel.1;
transform = "{1, 0, 0, 1, 385, 707}";
}
);
layerId = "164C8123-3F0E-4C99-877D-0E85C432A9CE";
width = 512;
},
{
components = (
{
name = pixel.1;
transform = "{1, 0, 0, 1, -93, 54}";
},
{
name = pixel.4;
transform = "{1, 0, 0, 1, 35, 54}";
},
{
name = pixel.2;
transform = "{1, 0, 0, 1, -29, 182}";
},
{
name = pixel.2;
transform = "{1, 0, 0, 1, 227, 182}";
},
{
name = pixel.4;
transform = "{1, 0, 0, 1, -93, 310}";
},
{
name = pixel.2;
transform = "{1, 0, 0, 1, 291, 310}";
},
{
name = pixel.2;
transform = "{1, 0, 0, 1, -93, 438}";
},
{
name = pixel.2;
transform = "{1, 0, 0, 1, 99, 438}";
},
{
name = pixel.2;
transform = "{1, 0, 0, 1, 291, 438}";
},
{
name = pixel.2;
transform = "{1, 0, 0, 1, -93, 566}";
},
{
name = pixel.4;
transform = "{1, 0, 0, 1, 163, 566}";
},
{
name = pixel.2;
transform = "{1, 0, 0, 1, -29, 694}";
},
{
name = pixel.2;
transform = "{1, 0, 0, 1, 227, 694}";
},
{
name = pixel.4;
transform = "{1, 0, 0, 1, 35, 822}";
},
{
name = pixel.1;
transform = "{1, 0, 0, 1, 355, 822}";
}
);
layerId = "EDC3ADDC-530C-4ECE-AAC6-732B149A8D4A";
width = 512;
},
{
components = (
{
name = pixel.1;
transform = "{1, 0, 0, 1, -125, -61}";
},
{
name = pixel.4;
transform = "{1, 0, 0, 1, 3, -61}";
},
{
name = pixel.2;
transform = "{1, 0, 0, 1, -61, 67}";
},
{
name = pixel.2;
transform = "{1, 0, 0, 1, 195, 67}";
},
{
name = pixel.4;
transform = "{1, 0, 0, 1, -125, 195}";
},
{
name = pixel.2;
transform = "{1, 0, 0, 1, 259, 195}";
},
{
name = pixel.2;
transform = "{1, 0, 0, 1, -125, 323}";
},
{
name = pixel.2;
transform = "{1, 0, 0, 1, 67, 323}";
},
{
name = pixel.2;
transform = "{1, 0, 0, 1, 259, 323}";
},
{
name = pixel.2;
transform = "{1, 0, 0, 1, -125, 451}";
},
{
name = pixel.4;
transform = "{1, 0, 0, 1, 131, 451}";
},
{
name = pixel.2;
transform = "{1, 0, 0, 1, -61, 579}";
},
{
name = pixel.2;
transform = "{1, 0, 0, 1, 195, 579}";
},
{
name = pixel.4;
transform = "{1, 0, 0, 1, 3, 707}";
},
{
name = pixel.1;
transform = "{1, 0, 0, 1, 323, 707}";
}
);
layerId = "38088322-78A3-4F4F-B46E-F8355B0BCD96";
width = 512;
}
);
unicode = 00D8;
},
{
color = 6;
glyphname = Otilde;
lastChange = "2019-07-27 11:38:00 +0000";
layers = (
{
components = (
{
name = O.case;
},
{
name = tilde;
}
);
layerId = master01;
width = 512;
},
{
components = (
{
name = O.case;
},
{
name = tilde;
}
);
layerId = "EF047752-ED93-49D3-A4D1-D66A6AAE90C7";
width = 512;
},
{
components = (
{
name = O.case;
},
{
name = tilde;
}
);
layerId = "164C8123-3F0E-4C99-877D-0E85C432A9CE";
width = 512;
},
{
components = (
{
name = O.case;
},
{
name = tilde;
}
);
layerId = "EDC3ADDC-530C-4ECE-AAC6-732B149A8D4A";
width = 512;
},
{
components = (
{
name = O.case;
},
{
name = tilde;
}
);
layerId = "38088322-78A3-4F4F-B46E-F8355B0BCD96";
width = 512;
},
{
background = {
paths = (
{
closed = 1;
nodes = (
"64 768 LINE",
"256 768 LINE",
"256 640 LINE",
"128 640 LINE",
"128 512 LINE",
"64 512 LINE",
"64 384 LINE",
"0 384 LINE",
"0 256 LINE",
"64 256 LINE",
"64 128 LINE",
"128 128 LINE",
"128 0 LINE",
"384 0 LINE",
"384 128 LINE",
"448 128 LINE",
"448 256 LINE",
"512 256 LINE",
"512 384 LINE",
"448 384 LINE",
"448 512 LINE",
"384 512 LINE",
"384 640 LINE",
"448 640 LINE",
"448 768 LINE",
"256 768 LINE",
"256 896 LINE",
"64 896 LINE"
);
},
{
closed = 1;
nodes = (
"192 256 LINE",
"128 256 LINE",
"128 384 LINE",
"192 384 LINE",
"192 512 LINE",
"320 512 LINE",
"320 384 LINE",
"384 384 LINE",
"384 256 LINE",
"320 256 LINE",
"320 128 LINE",
"192 128 LINE"
);
},
{
closed = 1;
nodes = (
"0 640 LINE",
"64 640 LINE",
"64 768 LINE",
"0 768 LINE"
);
},
{
closed = 1;
nodes = (
"448 768 LINE",
"512 768 LINE",
"512 896 LINE",
"448 896 LINE"
);
}
);
};
components = (
{
name = O.case;
},
{
name = tilde;
}
);
layerId = "968AADD4-6AAB-4A21-B439-CFC52095EED4";
width = 512;
}
);
unicode = 00D5;
},
{
color = 3;
glyphname = OE;
lastChange = "2019-07-27 13:36:41 +0000";
layers = (
{
background = {
paths = (
{
closed = 1;
nodes = (
"125 125 LINE",
"61 125 LINE",
"61 253 LINE",
"-3 253 LINE",
"-3 643 LINE",
"61 643 LINE",
"61 771 LINE",
"125 771 LINE",
"125 899 LINE",
"515 899 LINE",
"515 765 LINE",
"387 765 LINE",
"387 515 LINE",
"515 515 LINE",
"515 381 LINE",
"387 381 LINE",
"387 131 LINE",
"515 131 LINE",
"515 -3 LINE",
"125 -3 LINE"
);
},
{
closed = 1;
nodes = (
"253 131 LINE",
"253 765 LINE",
"195 765 LINE",
"195 637 LINE",
"131 637 LINE",
"131 259 LINE",
"195 259 LINE",
"195 131 LINE"
);
}
);
};
layerId = master01;
paths = (
{
closed = 0;
nodes = (
"125 64 LINE",
"515 64 LINE"
);
},
{
closed = 0;
nodes = (
"61 192 LINE",
"195 192 LINE"
);
},
{
closed = 0;
nodes = (
"253 192 LINE",
"387 192 LINE"
);
},
{
closed = 0;
nodes = (
"-3 320 LINE",
"131 320 LINE"
);
},
{
closed = 0;
nodes = (
"253 320 LINE",
"387 320 LINE"
);
},
{
closed = 0;
nodes = (
"-3 448 LINE",
"131 448 LINE"
);
},
{
closed = 0;
nodes = (
"253 448 LINE",
"515 448 LINE"
);
},
{
closed = 0;
nodes = (
"-3 576 LINE",
"131 576 LINE"
);
},
{
closed = 0;
nodes = (
"253 576 LINE",
"387 576 LINE"
);
},
{
closed = 0;
nodes = (
"61 704 LINE",
"195 704 LINE"
);
},
{
closed = 0;
nodes = (
"253 704 LINE",
"387 704 LINE"
);
},
{
closed = 0;
nodes = (
"125 832 LINE",
"515 832 LINE"
);
}
);
width = 512;
},
{
components = (
{
name = pixel.6;
transform = "{1, 0, 0, 1, 123, 54}";
},
{
name = pixel.2;
transform = "{1, 0, 0, 1, 59, 182}";
},
{
name = pixel.2;
transform = "{1, 0, 0, 1, 251, 182}";
},
{
name = pixel.2;
transform = "{1, 0, 0, 1, -5, 310}";
},
{
name = pixel.2;
transform = "{1, 0, 0, 1, 251, 310}";
},
{
name = pixel.2;
transform = "{1, 0, 0, 1, -5, 438}";
},
{
name = pixel.4;
transform = "{1, 0, 0, 1, 251, 438}";
},
{
name = pixel.2;
transform = "{1, 0, 0, 1, -5, 566}";
},
{
name = pixel.2;
transform = "{1, 0, 0, 1, 251, 566}";
},
{
name = pixel.2;
transform = "{1, 0, 0, 1, 59, 694}";
},
{
name = pixel.2;
transform = "{1, 0, 0, 1, 251, 694}";
},
{
name = pixel.6;
transform = "{1, 0, 0, 1, 123, 822}";
}
);
layerId = "EF047752-ED93-49D3-A4D1-D66A6AAE90C7";
width = 512;
},
{
components = (
{
name = pixel.6;
transform = "{1, 0, 0, 1, 65, -61}";
},
{
name = pixel.2;
transform = "{1, 0, 0, 1, 1, 67}";
},
{
name = pixel.2;
transform = "{1, 0, 0, 1, 193, 67}";
},
{
name = pixel.2;
transform = "{1, 0, 0, 1, -63, 195}";
},
{
name = pixel.2;
transform = "{1, 0, 0, 1, 193, 195}";
},
{
name = pixel.2;
transform = "{1, 0, 0, 1, -63, 323}";
},
{
name = pixel.4;
transform = "{1, 0, 0, 1, 193, 323}";
},
{
name = pixel.2;
transform = "{1, 0, 0, 1, -63, 451}";
},
{
name = pixel.2;
transform = "{1, 0, 0, 1, 193, 451}";
},
{
name = pixel.2;
transform = "{1, 0, 0, 1, 1, 579}";
},
{
name = pixel.2;
transform = "{1, 0, 0, 1, 193, 579}";
},
{
name = pixel.6;
transform = "{1, 0, 0, 1, 65, 707}";
}
);
layerId = "164C8123-3F0E-4C99-877D-0E85C432A9CE";
width = 512;
},
{
components = (
{
name = pixel.6;
transform = "{1, 0, 0, 1, 35, 54}";
},
{
name = pixel.2;
transform = "{1, 0, 0, 1, -29, 182}";
},
{
name = pixel.2;
transform = "{1, 0, 0, 1, 163, 182}";
},
{
name = pixel.2;
transform = "{1, 0, 0, 1, -93, 310}";
},
{
name = pixel.2;
transform = "{1, 0, 0, 1, 163, 310}";
},
{
name = pixel.2;
transform = "{1, 0, 0, 1, -93, 438}";
},
{
name = pixel.4;
transform = "{1, 0, 0, 1, 163, 438}";
},
{
name = pixel.2;
transform = "{1, 0, 0, 1, -93, 566}";
},
{
name = pixel.2;
transform = "{1, 0, 0, 1, 163, 566}";
},
{
name = pixel.2;
transform = "{1, 0, 0, 1, -29, 694}";
},
{
name = pixel.2;
transform = "{1, 0, 0, 1, 163, 694}";
},
{
name = pixel.6;
transform = "{1, 0, 0, 1, 35, 822}";
}
);
layerId = "EDC3ADDC-530C-4ECE-AAC6-732B149A8D4A";
width = 512;
},
{
components = (
{
name = pixel.6;
transform = "{1, 0, 0, 1, 3, -61}";
},
{
name = pixel.2;
transform = "{1, 0, 0, 1, -61, 67}";
},
{
name = pixel.2;
transform = "{1, 0, 0, 1, 131, 67}";
},
{
name = pixel.2;
transform = "{1, 0, 0, 1, -125, 195}";
},
{
name = pixel.2;
transform = "{1, 0, 0, 1, 131, 195}";
},
{
name = pixel.2;
transform = "{1, 0, 0, 1, -125, 323}";
},
{
name = pixel.4;
transform = "{1, 0, 0, 1, 131, 323}";
},
{
name = pixel.2;
transform = "{1, 0, 0, 1, -125, 451}";
},
{
name = pixel.2;
transform = "{1, 0, 0, 1, 131, 451}";
},
{
name = pixel.2;
transform = "{1, 0, 0, 1, -61, 579}";
},
{
name = pixel.2;
transform = "{1, 0, 0, 1, 131, 579}";
},
{
name = pixel.6;
transform = "{1, 0, 0, 1, 3, 707}";
}
);
layerId = "38088322-78A3-4F4F-B46E-F8355B0BCD96";
width = 512;
},
{
layerId = "968AADD4-6AAB-4A21-B439-CFC52095EED4";
paths = (
{
closed = 1;
nodes = (
"125 125 LINE",
"61 125 LINE",
"61 253 LINE",
"-3 253 LINE",
"-3 643 LINE",
"61 643 LINE",
"61 771 LINE",
"125 771 LINE",
"125 899 LINE",
"515 899 LINE",
"515 765 LINE",
"387 765 LINE",
"387 515 LINE",
"515 515 LINE",
"515 381 LINE",
"387 381 LINE",
"387 131 LINE",
"515 131 LINE",
"515 -3 LINE",
"125 -3 LINE"
);
},
{
closed = 1;
nodes = (
"253 131 LINE",
"253 765 LINE",
"195 765 LINE",
"195 637 LINE",
"131 637 LINE",
"131 259 LINE",
"195 259 LINE",
"195 131 LINE"
);
}
);
width = 512;
}
);
unicode = 0152;
},
{
glyphname = P;
lastChange = "2019-07-27 13:36:41 +0000";
layers = (
{
background = {
paths = (
{
closed = 1;
nodes = (
"61 131 LINE",
"61 765 LINE",
"-3 765 LINE",
"-3 899 LINE",
"387 899 LINE",
"387 771 LINE",
"451 771 LINE",
"451 509 LINE",
"387 509 LINE",
"387 381 LINE",
"195 381 LINE",
"195 131 LINE",
"259 131 LINE",
"259 -3 LINE",
"-3 -3 LINE",
"-3 131 LINE"
);
},
{
closed = 1;
nodes = (
"317 515 LINE",
"317 765 LINE",
"195 765 LINE",
"195 515 LINE"
);
}
);
};
layerId = master01;
paths = (
{
closed = 0;
nodes = (
"-3 64 LINE",
"259 64 LINE"
);
},
{
closed = 0;
nodes = (
"61 192 LINE",
"195 192 LINE"
);
},
{
closed = 0;
nodes = (
"61 320 LINE",
"195 320 LINE"
);
},
{
closed = 0;
nodes = (
"61 448 LINE",
"387 448 LINE"
);
},
{
closed = 0;
nodes = (
"61 576 LINE",
"195 576 LINE"
);
},
{
closed = 0;
nodes = (
"317 576 LINE",
"451 576 LINE"
);
},
{
closed = 0;
nodes = (
"61 704 LINE",
"195 704 LINE"
);
},
{
closed = 0;
nodes = (
"317 704 LINE",
"451 704 LINE"
);
},
{
closed = 0;
nodes = (
"-3 832 LINE",
"387 832 LINE"
);
}
);
userData = {
com.typemytype.robofont.mark = (
0.656,
1,
0.6,
1
);
};
width = 512;
},
{
layerId = "968AADD4-6AAB-4A21-B439-CFC52095EED4";
paths = (
{
closed = 1;
nodes = (
"61 131 LINE",
"61 765 LINE",
"-3 765 LINE",
"-3 899 LINE",
"387 899 LINE",
"387 771 LINE",
"451 771 LINE",
"451 509 LINE",
"387 509 LINE",
"387 381 LINE",
"195 381 LINE",
"195 131 LINE",
"259 131 LINE",
"259 -3 LINE",
"-3 -3 LINE",
"-3 131 LINE"
);
},
{
closed = 1;
nodes = (
"317 515 LINE",
"317 765 LINE",
"195 765 LINE",
"195 515 LINE"
);
}
);
userData = {
com.typemytype.robofont.mark = (
0.656,
1,
0.6,
1
);
};
width = 512;
},
{
components = (
{
name = pixel.4;
transform = "{1, 0, 0, 1, -5, 54}";
},
{
name = pixel.2;
transform = "{1, 0, 0, 1, 59, 182}";
},
{
name = pixel.2;
transform = "{1, 0, 0, 1, 59, 310}";
},
{
name = pixel.5;
transform = "{1, 0, 0, 1, 59, 438}";
},
{
name = pixel.2;
transform = "{1, 0, 0, 1, 59, 566}";
},
{
name = pixel.2;
transform = "{1, 0, 0, 1, 315, 566}";
},
{
name = pixel.2;
transform = "{1, 0, 0, 1, 59, 694}";
},
{
name = pixel.2;
transform = "{1, 0, 0, 1, 315, 694}";
},
{
name = pixel.6;
transform = "{1, 0, 0, 1, -5, 822}";
}
);
layerId = "EF047752-ED93-49D3-A4D1-D66A6AAE90C7";
width = 512;
},
{
components = (
{
name = pixel.4;
transform = "{1, 0, 0, 1, -63, -61}";
},
{
name = pixel.2;
transform = "{1, 0, 0, 1, 1, 67}";
},
{
name = pixel.2;
transform = "{1, 0, 0, 1, 1, 195}";
},
{
name = pixel.5;
transform = "{1, 0, 0, 1, 1, 323}";
},
{
name = pixel.2;
transform = "{1, 0, 0, 1, 1, 451}";
},
{
name = pixel.2;
transform = "{1, 0, 0, 1, 257, 451}";
},
{
name = pixel.2;
transform = "{1, 0, 0, 1, 1, 579}";
},
{
name = pixel.2;
transform = "{1, 0, 0, 1, 257, 579}";
},
{
name = pixel.6;
transform = "{1, 0, 0, 1, -63, 707}";
}
);
layerId = "164C8123-3F0E-4C99-877D-0E85C432A9CE";
width = 512;
},
{
components = (
{
name = pixel.4;
transform = "{1, 0, 0, 1, -93, 54}";
},
{
name = pixel.2;
transform = "{1, 0, 0, 1, -29, 182}";
},
{
name = pixel.2;
transform = "{1, 0, 0, 1, -29, 310}";
},
{
name = pixel.5;
transform = "{1, 0, 0, 1, -29, 438}";
},
{
name = pixel.2;
transform = "{1, 0, 0, 1, -29, 566}";
},
{
name = pixel.2;
transform = "{1, 0, 0, 1, 227, 566}";
},
{
name = pixel.2;
transform = "{1, 0, 0, 1, -29, 694}";
},
{
name = pixel.2;
transform = "{1, 0, 0, 1, 227, 694}";
},
{
name = pixel.6;
transform = "{1, 0, 0, 1, -93, 822}";
}
);
layerId = "EDC3ADDC-530C-4ECE-AAC6-732B149A8D4A";
width = 512;
},
{
components = (
{
name = pixel.4;
transform = "{1, 0, 0, 1, -125, -61}";
},
{
name = pixel.2;
transform = "{1, 0, 0, 1, -61, 67}";
},
{
name = pixel.2;
transform = "{1, 0, 0, 1, -61, 195}";
},
{
name = pixel.5;
transform = "{1, 0, 0, 1, -61, 323}";
},
{
name = pixel.2;
transform = "{1, 0, 0, 1, -61, 451}";
},
{
name = pixel.2;
transform = "{1, 0, 0, 1, 195, 451}";
},
{
name = pixel.2;
transform = "{1, 0, 0, 1, -61, 579}";
},
{
name = pixel.2;
transform = "{1, 0, 0, 1, 195, 579}";
},
{
name = pixel.6;
transform = "{1, 0, 0, 1, -125, 707}";
}
);
layerId = "38088322-78A3-4F4F-B46E-F8355B0BCD96";
width = 512;
}
);
unicode = 0050;
},
{
glyphname = Thorn;
lastChange = "2019-07-27 13:36:41 +0000";
layers = (
{
background = {
paths = (
{
closed = 1;
nodes = (
"61 3 LINE",
"61 765 LINE",
"-3 765 LINE",
"-3 899 LINE",
"259 899 LINE",
"259 765 LINE",
"195 765 LINE",
"195 643 LINE",
"451 643 LINE",
"451 515 LINE",
"515 515 LINE",
"515 253 LINE",
"451 253 LINE",
"451 125 LINE",
"195 125 LINE",
"195 3 LINE",
"259 3 LINE",
"259 -131 LINE",
"-3 -131 LINE",
"-3 3 LINE"
);
},
{
closed = 1;
nodes = (
"381 259 LINE",
"381 509 LINE",
"195 509 LINE",
"195 259 LINE"
);
}
);
};
layerId = master01;
paths = (
{
closed = 0;
nodes = (
"-3 -64 LINE",
"259 -64 LINE"
);
},
{
closed = 0;
nodes = (
"61 64 LINE",
"195 64 LINE"
);
},
{
closed = 0;
nodes = (
"61 192 LINE",
"451 192 LINE"
);
},
{
closed = 0;
nodes = (
"61 320 LINE",
"195 320 LINE"
);
},
{
closed = 0;
nodes = (
"381 320 LINE",
"515 320 LINE"
);
},
{
closed = 0;
nodes = (
"61 448 LINE",
"195 448 LINE"
);
},
{
closed = 0;
nodes = (
"381 448 LINE",
"515 448 LINE"
);
},
{
closed = 0;
nodes = (
"61 576 LINE",
"451 576 LINE"
);
},
{
closed = 0;
nodes = (
"61 704 LINE",
"195 704 LINE"
);
},
{
closed = 0;
nodes = (
"-3 832 LINE",
"259 832 LINE"
);
}
);
userData = {
com.typemytype.robofont.mark = (
0.656,
1,
0.6,
1
);
};
width = 512;
},
{
layerId = "968AADD4-6AAB-4A21-B439-CFC52095EED4";
paths = (
{
closed = 1;
nodes = (
"61 3 LINE",
"61 765 LINE",
"-3 765 LINE",
"-3 899 LINE",
"259 899 LINE",
"259 765 LINE",
"195 765 LINE",
"195 643 LINE",
"451 643 LINE",
"451 515 LINE",
"515 515 LINE",
"515 253 LINE",
"451 253 LINE",
"451 125 LINE",
"195 125 LINE",
"195 3 LINE",
"259 3 LINE",
"259 -131 LINE",
"-3 -131 LINE",
"-3 3 LINE"
);
},
{
closed = 1;
nodes = (
"381 259 LINE",
"381 509 LINE",
"195 509 LINE",
"195 259 LINE"
);
}
);
userData = {
com.typemytype.robofont.mark = (
0.656,
1,
0.6,
1
);
};
width = 512;
},
{
components = (
{
name = pixel.4;
transform = "{1, 0, 0, 1, -5, -74}";
},
{
name = pixel.2;
transform = "{1, 0, 0, 1, 59, 54}";
},
{
name = pixel.6;
transform = "{1, 0, 0, 1, 59, 182}";
},
{
name = pixel.2;
transform = "{1, 0, 0, 1, 59, 310}";
},
{
name = pixel.2;
transform = "{1, 0, 0, 1, 379, 310}";
},
{
name = pixel.2;
transform = "{1, 0, 0, 1, 59, 438}";
},
{
name = pixel.2;
transform = "{1, 0, 0, 1, 379, 438}";
},
{
name = pixel.6;
transform = "{1, 0, 0, 1, 59, 566}";
},
{
name = pixel.2;
transform = "{1, 0, 0, 1, 59, 694}";
},
{
name = pixel.4;
transform = "{1, 0, 0, 1, -5, 822}";
}
);
layerId = "EF047752-ED93-49D3-A4D1-D66A6AAE90C7";
width = 512;
},
{
components = (
{
name = pixel.4;
transform = "{1, 0, 0, 1, -63, -189}";
},
{
name = pixel.2;
transform = "{1, 0, 0, 1, 1, -61}";
},
{
name = pixel.6;
transform = "{1, 0, 0, 1, 1, 67}";
},
{
name = pixel.2;
transform = "{1, 0, 0, 1, 1, 195}";
},
{
name = pixel.2;
transform = "{1, 0, 0, 1, 321, 195}";
},
{
name = pixel.2;
transform = "{1, 0, 0, 1, 1, 323}";
},
{
name = pixel.2;
transform = "{1, 0, 0, 1, 321, 323}";
},
{
name = pixel.6;
transform = "{1, 0, 0, 1, 1, 451}";
},
{
name = pixel.2;
transform = "{1, 0, 0, 1, 1, 579}";
},
{
name = pixel.4;
transform = "{1, 0, 0, 1, -63, 707}";
}
);
layerId = "164C8123-3F0E-4C99-877D-0E85C432A9CE";
width = 512;
},
{
components = (
{
name = pixel.4;
transform = "{1, 0, 0, 1, -93, -74}";
},
{
name = pixel.2;
transform = "{1, 0, 0, 1, -29, 54}";
},
{
name = pixel.6;
transform = "{1, 0, 0, 1, -29, 182}";
},
{
name = pixel.2;
transform = "{1, 0, 0, 1, -29, 310}";
},
{
name = pixel.2;
transform = "{1, 0, 0, 1, 291, 310}";
},
{
name = pixel.2;
transform = "{1, 0, 0, 1, -29, 438}";
},
{
name = pixel.2;
transform = "{1, 0, 0, 1, 291, 438}";
},
{
name = pixel.6;
transform = "{1, 0, 0, 1, -29, 566}";
},
{
name = pixel.2;
transform = "{1, 0, 0, 1, -29, 694}";
},
{
name = pixel.4;
transform = "{1, 0, 0, 1, -93, 822}";
}
);
layerId = "EDC3ADDC-530C-4ECE-AAC6-732B149A8D4A";
width = 512;
},
{
components = (
{
name = pixel.4;
transform = "{1, 0, 0, 1, -125, -189}";
},
{
name = pixel.2;
transform = "{1, 0, 0, 1, -61, -61}";
},
{
name = pixel.6;
transform = "{1, 0, 0, 1, -61, 67}";
},
{
name = pixel.2;
transform = "{1, 0, 0, 1, -61, 195}";
},
{
name = pixel.2;
transform = "{1, 0, 0, 1, 259, 195}";
},
{
name = pixel.2;
transform = "{1, 0, 0, 1, -61, 323}";
},
{
name = pixel.2;
transform = "{1, 0, 0, 1, 259, 323}";
},
{
name = pixel.6;
transform = "{1, 0, 0, 1, -61, 451}";
},
{
name = pixel.2;
transform = "{1, 0, 0, 1, -61, 579}";
},
{
name = pixel.4;
transform = "{1, 0, 0, 1, -125, 707}";
}
);
layerId = "38088322-78A3-4F4F-B46E-F8355B0BCD96";
width = 512;
}
);
unicode = 00DE;
},
{
glyphname = Q;
lastChange = "2019-07-27 13:36:41 +0000";
layers = (
{
background = {
paths = (
{
closed = 1;
nodes = (
"125 -3 LINE",
"125 125 LINE",
"61 125 LINE",
"61 253 LINE",
"-3 253 LINE",
"-3 643 LINE",
"61 643 LINE",
"61 771 LINE",
"125 771 LINE",
"125 899 LINE",
"323 899 LINE",
"323 771 LINE",
"387 771 LINE",
"387 643 LINE",
"451 643 LINE",
"451 253 LINE",
"387 253 LINE",
"387 3 LINE",
"451 3 LINE",
"451 -131 LINE",
"317 -131 LINE",
"317 -3 LINE"
);
},
{
closed = 1;
nodes = (
"195 765 LINE",
"195 637 LINE",
"131 637 LINE",
"131 259 LINE",
"195 259 LINE",
"195 131 LINE",
"253 131 LINE",
"253 259 LINE",
"317 259 LINE",
"317 637 LINE",
"253 637 LINE",
"253 765 LINE"
);
}
);
};
layerId = master01;
paths = (
{
closed = 0;
nodes = (
"317 -64 LINE",
"451 -64 LINE"
);
},
{
closed = 0;
nodes = (
"125 64 LINE",
"387 64 LINE"
);
},
{
closed = 0;
nodes = (
"61 192 LINE",
"195 192 LINE"
);
},
{
closed = 0;
nodes = (
"253 192 LINE",
"387 192 LINE"
);
},
{
closed = 0;
nodes = (
"-3 320 LINE",
"131 320 LINE"
);
},
{
closed = 0;
nodes = (
"317 320 LINE",
"451 320 LINE"
);
},
{
closed = 0;
nodes = (
"-3 448 LINE",
"131 448 LINE"
);
},
{
closed = 0;
nodes = (
"317 448 LINE",
"451 448 LINE"
);
},
{
closed = 0;
nodes = (
"-3 576 LINE",
"131 576 LINE"
);
},
{
closed = 0;
nodes = (
"317 576 LINE",
"451 576 LINE"
);
},
{
closed = 0;
nodes = (
"61 704 LINE",
"195 704 LINE"
);
},
{
closed = 0;
nodes = (
"253 704 LINE",
"387 704 LINE"
);
},
{
closed = 0;
nodes = (
"125 832 LINE",
"323 832 LINE"
);
}
);
userData = {
com.typemytype.robofont.mark = (
0.656,
1,
0.6,
1
);
};
width = 512;
},
{
layerId = "968AADD4-6AAB-4A21-B439-CFC52095EED4";
paths = (
{
closed = 1;
nodes = (
"125 -3 LINE",
"125 125 LINE",
"61 125 LINE",
"61 253 LINE",
"-3 253 LINE",
"-3 643 LINE",
"61 643 LINE",
"61 771 LINE",
"125 771 LINE",
"125 899 LINE",
"323 899 LINE",
"323 771 LINE",
"387 771 LINE",
"387 643 LINE",
"451 643 LINE",
"451 253 LINE",
"387 253 LINE",
"387 3 LINE",
"451 3 LINE",
"451 -131 LINE",
"317 -131 LINE",
"317 -3 LINE"
);
},
{
closed = 1;
nodes = (
"195 765 LINE",
"195 637 LINE",
"131 637 LINE",
"131 259 LINE",
"195 259 LINE",
"195 131 LINE",
"253 131 LINE",
"253 259 LINE",
"317 259 LINE",
"317 637 LINE",
"253 637 LINE",
"253 765 LINE"
);
}
);
userData = {
com.typemytype.robofont.mark = (
0.656,
1,
0.6,
1
);
};
width = 512;
},
{
components = (
{
name = pixel.2;
transform = "{1, 0, 0, 1, 315, -74}";
},
{
name = pixel.4;
transform = "{1, 0, 0, 1, 123, 54}";
},
{
name = pixel.2;
transform = "{1, 0, 0, 1, 59, 182}";
},
{
name = pixel.2;
transform = "{1, 0, 0, 1, 251, 182}";
},
{
name = pixel.2;
transform = "{1, 0, 0, 1, -5, 310}";
},
{
name = pixel.2;
transform = "{1, 0, 0, 1, 315, 310}";
},
{
name = pixel.2;
transform = "{1, 0, 0, 1, -5, 438}";
},
{
name = pixel.2;
transform = "{1, 0, 0, 1, 315, 438}";
},
{
name = pixel.2;
transform = "{1, 0, 0, 1, -5, 566}";
},
{
name = pixel.2;
transform = "{1, 0, 0, 1, 315, 566}";
},
{
name = pixel.2;
transform = "{1, 0, 0, 1, 59, 694}";
},
{
name = pixel.2;
transform = "{1, 0, 0, 1, 251, 694}";
},
{
name = pixel.3;
transform = "{1, 0, 0, 1, 123, 822}";
}
);
layerId = "EF047752-ED93-49D3-A4D1-D66A6AAE90C7";
width = 512;
},
{
components = (
{
name = pixel.2;
transform = "{1, 0, 0, 1, 257, -189}";
},
{
name = pixel.4;
transform = "{1, 0, 0, 1, 65, -61}";
},
{
name = pixel.2;
transform = "{1, 0, 0, 1, 1, 67}";
},
{
name = pixel.2;
transform = "{1, 0, 0, 1, 193, 67}";
},
{
name = pixel.2;
transform = "{1, 0, 0, 1, -63, 195}";
},
{
name = pixel.2;
transform = "{1, 0, 0, 1, 257, 195}";
},
{
name = pixel.2;
transform = "{1, 0, 0, 1, -63, 323}";
},
{
name = pixel.2;
transform = "{1, 0, 0, 1, 257, 323}";
},
{
name = pixel.2;
transform = "{1, 0, 0, 1, -63, 451}";
},
{
name = pixel.2;
transform = "{1, 0, 0, 1, 257, 451}";
},
{
name = pixel.2;
transform = "{1, 0, 0, 1, 1, 579}";
},
{
name = pixel.2;
transform = "{1, 0, 0, 1, 193, 579}";
},
{
name = pixel.3;
transform = "{1, 0, 0, 1, 65, 707}";
}
);
layerId = "164C8123-3F0E-4C99-877D-0E85C432A9CE";
width = 512;
},
{
components = (
{
name = pixel.2;
transform = "{1, 0, 0, 1, 227, -74}";
},
{
name = pixel.4;
transform = "{1, 0, 0, 1, 35, 54}";
},
{
name = pixel.2;
transform = "{1, 0, 0, 1, -29, 182}";
},
{
name = pixel.2;
transform = "{1, 0, 0, 1, 163, 182}";
},
{
name = pixel.2;
transform = "{1, 0, 0, 1, -93, 310}";
},
{
name = pixel.2;
transform = "{1, 0, 0, 1, 227, 310}";
},
{
name = pixel.2;
transform = "{1, 0, 0, 1, -93, 438}";
},
{
name = pixel.2;
transform = "{1, 0, 0, 1, 227, 438}";
},
{
name = pixel.2;
transform = "{1, 0, 0, 1, -93, 566}";
},
{
name = pixel.2;
transform = "{1, 0, 0, 1, 227, 566}";
},
{
name = pixel.2;
transform = "{1, 0, 0, 1, -29, 694}";
},
{
name = pixel.2;
transform = "{1, 0, 0, 1, 163, 694}";
},
{
name = pixel.3;
transform = "{1, 0, 0, 1, 35, 822}";
}
);
layerId = "EDC3ADDC-530C-4ECE-AAC6-732B149A8D4A";
width = 512;
},
{
components = (
{
name = pixel.2;
transform = "{1, 0, 0, 1, 195, -189}";
},
{
name = pixel.4;
transform = "{1, 0, 0, 1, 3, -61}";
},
{
name = pixel.2;
transform = "{1, 0, 0, 1, -61, 67}";
},
{
name = pixel.2;
transform = "{1, 0, 0, 1, 131, 67}";
},
{
name = pixel.2;
transform = "{1, 0, 0, 1, -125, 195}";
},
{
name = pixel.2;
transform = "{1, 0, 0, 1, 195, 195}";
},
{
name = pixel.2;
transform = "{1, 0, 0, 1, -125, 323}";
},
{
name = pixel.2;
transform = "{1, 0, 0, 1, 195, 323}";
},
{
name = pixel.2;
transform = "{1, 0, 0, 1, -125, 451}";
},
{
name = pixel.2;
transform = "{1, 0, 0, 1, 195, 451}";
},
{
name = pixel.2;
transform = "{1, 0, 0, 1, -61, 579}";
},
{
name = pixel.2;
transform = "{1, 0, 0, 1, 131, 579}";
},
{
name = pixel.3;
transform = "{1, 0, 0, 1, 3, 707}";
}
);
layerId = "38088322-78A3-4F4F-B46E-F8355B0BCD96";
width = 512;
}
);
unicode = 0051;
},
{
glyphname = R;
lastChange = "2019-07-27 13:36:41 +0000";
layers = (
{
background = {
paths = (
{
closed = 1;
nodes = (
"61 131 LINE",
"61 765 LINE",
"-3 765 LINE",
"-3 899 LINE",
"387 899 LINE",
"387 771 LINE",
"451 771 LINE",
"451 509 LINE",
"387 509 LINE",
"387 259 LINE",
"451 259 LINE",
"451 131 LINE",
"515 131 LINE",
"515 -3 LINE",
"381 -3 LINE",
"381 125 LINE",
"317 125 LINE",
"317 253 LINE",
"253 253 LINE",
"253 381 LINE",
"195 381 LINE",
"195 -3 LINE",
"-3 -3 LINE",
"-3 131 LINE"
);
},
{
closed = 1;
nodes = (
"317 515 LINE",
"317 765 LINE",
"195 765 LINE",
"195 515 LINE"
);
}
);
};
layerId = master01;
paths = (
{
closed = 0;
nodes = (
"-3 64 LINE",
"195 64 LINE"
);
},
{
closed = 0;
nodes = (
"381 64 LINE",
"515 64 LINE"
);
},
{
closed = 0;
nodes = (
"61 192 LINE",
"195 192 LINE"
);
},
{
closed = 0;
nodes = (
"317 192 LINE",
"451 192 LINE"
);
},
{
closed = 0;
nodes = (
"61 320 LINE",
"195 320 LINE"
);
},
{
closed = 0;
nodes = (
"253 320 LINE",
"387 320 LINE"
);
},
{
closed = 0;
nodes = (
"61 448 LINE",
"387 448 LINE"
);
},
{
closed = 0;
nodes = (
"61 576 LINE",
"195 576 LINE"
);
},
{
closed = 0;
nodes = (
"317 576 LINE",
"451 576 LINE"
);
},
{
closed = 0;
nodes = (
"61 704 LINE",
"195 704 LINE"
);
},
{
closed = 0;
nodes = (
"317 704 LINE",
"451 704 LINE"
);
},
{
closed = 0;
nodes = (
"-3 832 LINE",
"387 832 LINE"
);
}
);
userData = {
com.typemytype.robofont.mark = (
0.656,
1,
0.6,
1
);
};
width = 512;
},
{
layerId = "968AADD4-6AAB-4A21-B439-CFC52095EED4";
paths = (
{
closed = 1;
nodes = (
"61 131 LINE",
"61 765 LINE",
"-3 765 LINE",
"-3 899 LINE",
"387 899 LINE",
"387 771 LINE",
"451 771 LINE",
"451 509 LINE",
"387 509 LINE",
"387 259 LINE",
"451 259 LINE",
"451 131 LINE",
"515 131 LINE",
"515 -3 LINE",
"381 -3 LINE",
"381 125 LINE",
"317 125 LINE",
"317 253 LINE",
"253 253 LINE",
"253 381 LINE",
"195 381 LINE",
"195 -3 LINE",
"-3 -3 LINE",
"-3 131 LINE"
);
},
{
closed = 1;
nodes = (
"317 515 LINE",
"317 765 LINE",
"195 765 LINE",
"195 515 LINE"
);
}
);
userData = {
com.typemytype.robofont.mark = (
0.656,
1,
0.6,
1
);
};
width = 512;
},
{
components = (
{
name = pixel.3;
transform = "{1, 0, 0, 1, -5, 54}";
},
{
name = pixel.2;
transform = "{1, 0, 0, 1, 379, 54}";
},
{
name = pixel.2;
transform = "{1, 0, 0, 1, 59, 182}";
},
{
name = pixel.2;
transform = "{1, 0, 0, 1, 315, 182}";
},
{
name = pixel.2;
transform = "{1, 0, 0, 1, 59, 310}";
},
{
name = pixel.2;
transform = "{1, 0, 0, 1, 251, 310}";
},
{
name = pixel.5;
transform = "{1, 0, 0, 1, 59, 438}";
},
{
name = pixel.2;
transform = "{1, 0, 0, 1, 59, 566}";
},
{
name = pixel.2;
transform = "{1, 0, 0, 1, 315, 566}";
},
{
name = pixel.2;
transform = "{1, 0, 0, 1, 59, 694}";
},
{
name = pixel.2;
transform = "{1, 0, 0, 1, 315, 694}";
},
{
name = pixel.6;
transform = "{1, 0, 0, 1, -5, 822}";
}
);
layerId = "EF047752-ED93-49D3-A4D1-D66A6AAE90C7";
width = 512;
},
{
components = (
{
name = pixel.3;
transform = "{1, 0, 0, 1, -63, -61}";
},
{
name = pixel.2;
transform = "{1, 0, 0, 1, 321, -61}";
},
{
name = pixel.2;
transform = "{1, 0, 0, 1, 1, 67}";
},
{
name = pixel.2;
transform = "{1, 0, 0, 1, 257, 67}";
},
{
name = pixel.2;
transform = "{1, 0, 0, 1, 1, 195}";
},
{
name = pixel.2;
transform = "{1, 0, 0, 1, 193, 195}";
},
{
name = pixel.5;
transform = "{1, 0, 0, 1, 1, 323}";
},
{
name = pixel.2;
transform = "{1, 0, 0, 1, 1, 451}";
},
{
name = pixel.2;
transform = "{1, 0, 0, 1, 257, 451}";
},
{
name = pixel.2;
transform = "{1, 0, 0, 1, 1, 579}";
},
{
name = pixel.2;
transform = "{1, 0, 0, 1, 257, 579}";
},
{
name = pixel.6;
transform = "{1, 0, 0, 1, -63, 707}";
}
);
layerId = "164C8123-3F0E-4C99-877D-0E85C432A9CE";
width = 512;
},
{
components = (
{
name = pixel.3;
transform = "{1, 0, 0, 1, -93, 54}";
},
{
name = pixel.2;
transform = "{1, 0, 0, 1, 291, 54}";
},
{
name = pixel.2;
transform = "{1, 0, 0, 1, -29, 182}";
},
{
name = pixel.2;
transform = "{1, 0, 0, 1, 227, 182}";
},
{
name = pixel.2;
transform = "{1, 0, 0, 1, -29, 310}";
},
{
name = pixel.2;
transform = "{1, 0, 0, 1, 163, 310}";
},
{
name = pixel.5;
transform = "{1, 0, 0, 1, -29, 438}";
},
{
name = pixel.2;
transform = "{1, 0, 0, 1, -29, 566}";
},
{
name = pixel.2;
transform = "{1, 0, 0, 1, 227, 566}";
},
{
name = pixel.2;
transform = "{1, 0, 0, 1, -29, 694}";
},
{
name = pixel.2;
transform = "{1, 0, 0, 1, 227, 694}";
},
{
name = pixel.6;
transform = "{1, 0, 0, 1, -93, 822}";
}
);
layerId = "EDC3ADDC-530C-4ECE-AAC6-732B149A8D4A";
width = 512;
},
{
components = (
{
name = pixel.3;
transform = "{1, 0, 0, 1, -125, -61}";
},
{
name = pixel.2;
transform = "{1, 0, 0, 1, 259, -61}";
},
{
name = pixel.2;
transform = "{1, 0, 0, 1, -61, 67}";
},
{
name = pixel.2;
transform = "{1, 0, 0, 1, 195, 67}";
},
{
name = pixel.2;
transform = "{1, 0, 0, 1, -61, 195}";
},
{
name = pixel.2;
transform = "{1, 0, 0, 1, 131, 195}";
},
{
name = pixel.5;
transform = "{1, 0, 0, 1, -61, 323}";
},
{
name = pixel.2;
transform = "{1, 0, 0, 1, -61, 451}";
},
{
name = pixel.2;
transform = "{1, 0, 0, 1, 195, 451}";
},
{
name = pixel.2;
transform = "{1, 0, 0, 1, -61, 579}";
},
{
name = pixel.2;
transform = "{1, 0, 0, 1, 195, 579}";
},
{
name = pixel.6;
transform = "{1, 0, 0, 1, -125, 707}";
}
);
layerId = "38088322-78A3-4F4F-B46E-F8355B0BCD96";
width = 512;
}
);
unicode = 0052;
},
{
glyphname = S;
lastChange = "2019-07-27 13:36:41 +0000";
layers = (
{
background = {
paths = (
{
closed = 1;
nodes = (
"61 125 LINE",
"61 259 LINE",
"195 259 LINE",
"195 131 LINE",
"317 131 LINE",
"317 253 LINE",
"253 253 LINE",
"253 381 LINE",
"125 381 LINE",
"125 509 LINE",
"61 509 LINE",
"61 771 LINE",
"125 771 LINE",
"125 899 LINE",
"387 899 LINE",
"387 771 LINE",
"451 771 LINE",
"451 637 LINE",
"317 637 LINE",
"317 765 LINE",
"195 765 LINE",
"195 643 LINE",
"259 643 LINE",
"259 515 LINE",
"323 515 LINE",
"323 387 LINE",
"451 387 LINE",
"451 125 LINE",
"387 125 LINE",
"387 -3 LINE",
"125 -3 LINE",
"125 125 LINE"
);
}
);
};
layerId = master01;
paths = (
{
closed = 0;
nodes = (
"125 64 LINE",
"387 64 LINE"
);
},
{
closed = 0;
nodes = (
"61 192 LINE",
"195 192 LINE"
);
},
{
closed = 0;
nodes = (
"317 192 LINE",
"451 192 LINE"
);
},
{
closed = 0;
nodes = (
"253 320 LINE",
"451 320 LINE"
);
},
{
closed = 0;
nodes = (
"125 448 LINE",
"323 448 LINE"
);
},
{
closed = 0;
nodes = (
"61 576 LINE",
"259 576 LINE"
);
},
{
closed = 0;
nodes = (
"61 704 LINE",
"195 704 LINE"
);
},
{
closed = 0;
nodes = (
"317 704 LINE",
"451 704 LINE"
);
},
{
closed = 0;
nodes = (
"125 832 LINE",
"387 832 LINE"
);
}
);
userData = {
com.typemytype.robofont.mark = (
0.656,
1,
0.6,
1
);
};
width = 512;
},
{
layerId = "968AADD4-6AAB-4A21-B439-CFC52095EED4";
paths = (
{
closed = 1;
nodes = (
"61 125 LINE",
"61 259 LINE",
"195 259 LINE",
"195 131 LINE",
"317 131 LINE",
"317 253 LINE",
"253 253 LINE",
"253 381 LINE",
"125 381 LINE",
"125 509 LINE",
"61 509 LINE",
"61 771 LINE",
"125 771 LINE",
"125 899 LINE",
"387 899 LINE",
"387 771 LINE",
"451 771 LINE",
"451 637 LINE",
"317 637 LINE",
"317 765 LINE",
"195 765 LINE",
"195 643 LINE",
"259 643 LINE",
"259 515 LINE",
"323 515 LINE",
"323 387 LINE",
"451 387 LINE",
"451 125 LINE",
"387 125 LINE",
"387 -3 LINE",
"125 -3 LINE",
"125 125 LINE"
);
}
);
userData = {
com.typemytype.robofont.mark = (
0.656,
1,
0.6,
1
);
};
width = 512;
},
{
components = (
{
name = pixel.4;
transform = "{1, 0, 0, 1, 123, 54}";
},
{
name = pixel.2;
transform = "{1, 0, 0, 1, 59, 182}";
},
{
name = pixel.2;
transform = "{1, 0, 0, 1, 315, 182}";
},
{
name = pixel.3;
transform = "{1, 0, 0, 1, 251, 310}";
},
{
name = pixel.3;
transform = "{1, 0, 0, 1, 123, 438}";
},
{
name = pixel.3;
transform = "{1, 0, 0, 1, 59, 566}";
},
{
name = pixel.2;
transform = "{1, 0, 0, 1, 59, 694}";
},
{
name = pixel.2;
transform = "{1, 0, 0, 1, 315, 694}";
},
{
name = pixel.4;
transform = "{1, 0, 0, 1, 123, 822}";
}
);
layerId = "EF047752-ED93-49D3-A4D1-D66A6AAE90C7";
width = 512;
},
{
components = (
{
name = pixel.4;
transform = "{1, 0, 0, 1, 65, -61}";
},
{
name = pixel.2;
transform = "{1, 0, 0, 1, 1, 67}";
},
{
name = pixel.2;
transform = "{1, 0, 0, 1, 257, 67}";
},
{
name = pixel.3;
transform = "{1, 0, 0, 1, 193, 195}";
},
{
name = pixel.3;
transform = "{1, 0, 0, 1, 65, 323}";
},
{
name = pixel.3;
transform = "{1, 0, 0, 1, 1, 451}";
},
{
name = pixel.2;
transform = "{1, 0, 0, 1, 1, 579}";
},
{
name = pixel.2;
transform = "{1, 0, 0, 1, 257, 579}";
},
{
name = pixel.4;
transform = "{1, 0, 0, 1, 65, 707}";
}
);
layerId = "164C8123-3F0E-4C99-877D-0E85C432A9CE";
width = 512;
},
{
components = (
{
name = pixel.4;
transform = "{1, 0, 0, 1, 35, 54}";
},
{
name = pixel.2;
transform = "{1, 0, 0, 1, -29, 182}";
},
{
name = pixel.2;
transform = "{1, 0, 0, 1, 227, 182}";
},
{
name = pixel.3;
transform = "{1, 0, 0, 1, 163, 310}";
},
{
name = pixel.3;
transform = "{1, 0, 0, 1, 35, 438}";
},
{
name = pixel.3;
transform = "{1, 0, 0, 1, -29, 566}";
},
{
name = pixel.2;
transform = "{1, 0, 0, 1, -29, 694}";
},
{
name = pixel.2;
transform = "{1, 0, 0, 1, 227, 694}";
},
{
name = pixel.4;
transform = "{1, 0, 0, 1, 35, 822}";
}
);
layerId = "EDC3ADDC-530C-4ECE-AAC6-732B149A8D4A";
width = 512;
},
{
components = (
{
name = pixel.4;
transform = "{1, 0, 0, 1, 3, -61}";
},
{
name = pixel.2;
transform = "{1, 0, 0, 1, -61, 67}";
},
{
name = pixel.2;
transform = "{1, 0, 0, 1, 195, 67}";
},
{
name = pixel.3;
transform = "{1, 0, 0, 1, 131, 195}";
},
{
name = pixel.3;
transform = "{1, 0, 0, 1, 3, 323}";
},
{
name = pixel.3;
transform = "{1, 0, 0, 1, -61, 451}";
},
{
name = pixel.2;
transform = "{1, 0, 0, 1, -61, 579}";
},
{
name = pixel.2;
transform = "{1, 0, 0, 1, 195, 579}";
},
{
name = pixel.4;
transform = "{1, 0, 0, 1, 3, 707}";
}
);
layerId = "38088322-78A3-4F4F-B46E-F8355B0BCD96";
width = 512;
}
);
unicode = 0053;
},
{
glyphname = T;
lastChange = "2019-07-27 13:36:41 +0000";
layers = (
{
background = {
paths = (
{
closed = 1;
nodes = (
"189 131 LINE",
"189 765 LINE",
"131 765 LINE",
"131 637 LINE",
"61 637 LINE",
"61 899 LINE",
"451 899 LINE",
"451 637 LINE",
"381 637 LINE",
"381 765 LINE",
"323 765 LINE",
"323 131 LINE",
"387 131 LINE",
"387 -3 LINE",
"125 -3 LINE",
"125 131 LINE"
);
}
);
};
layerId = master01;
paths = (
{
closed = 0;
nodes = (
"125 64 LINE",
"387 64 LINE"
);
},
{
closed = 0;
nodes = (
"189 192 LINE",
"323 192 LINE"
);
},
{
closed = 0;
nodes = (
"189 320 LINE",
"323 320 LINE"
);
},
{
closed = 0;
nodes = (
"189 448 LINE",
"323 448 LINE"
);
},
{
closed = 0;
nodes = (
"189 576 LINE",
"323 576 LINE"
);
},
{
closed = 0;
nodes = (
"61 704 LINE",
"131 704 LINE"
);
},
{
closed = 0;
nodes = (
"189 704 LINE",
"323 704 LINE"
);
},
{
closed = 0;
nodes = (
"381 704 LINE",
"451 704 LINE"
);
},
{
closed = 0;
nodes = (
"61 832 LINE",
"451 832 LINE"
);
}
);
userData = {
com.typemytype.robofont.mark = (
0.656,
1,
0.6,
1
);
};
width = 512;
},
{
layerId = "968AADD4-6AAB-4A21-B439-CFC52095EED4";
paths = (
{
closed = 1;
nodes = (
"189 131 LINE",
"189 765 LINE",
"131 765 LINE",
"131 637 LINE",
"61 637 LINE",
"61 899 LINE",
"451 899 LINE",
"451 637 LINE",
"381 637 LINE",
"381 765 LINE",
"323 765 LINE",
"323 131 LINE",
"387 131 LINE",
"387 -3 LINE",
"125 -3 LINE",
"125 131 LINE"
);
}
);
userData = {
com.typemytype.robofont.mark = (
0.656,
1,
0.6,
1
);
};
width = 512;
},
{
components = (
{
name = pixel.4;
transform = "{1, 0, 0, 1, 123, 54}";
},
{
name = pixel.2;
transform = "{1, 0, 0, 1, 187, 182}";
},
{
name = pixel.2;
transform = "{1, 0, 0, 1, 187, 310}";
},
{
name = pixel.2;
transform = "{1, 0, 0, 1, 187, 438}";
},
{
name = pixel.2;
transform = "{1, 0, 0, 1, 187, 566}";
},
{
name = pixel.1;
transform = "{1, 0, 0, 1, 59, 694}";
},
{
name = pixel.2;
transform = "{1, 0, 0, 1, 187, 694}";
},
{
name = pixel.1;
transform = "{1, 0, 0, 1, 379, 694}";
},
{
name = pixel.6;
transform = "{1, 0, 0, 1, 59, 822}";
}
);
layerId = "EF047752-ED93-49D3-A4D1-D66A6AAE90C7";
width = 512;
},
{
background = {
paths = (
{
closed = 1;
nodes = (
"145 -61 OFFCURVE",
"65 13 OFFCURVE",
"65 115 OFFCURVE",
"145 189 OFFCURVE",
"215 189 QCURVE SMOOTH",
"297 189 LINE SMOOTH",
"367 189 OFFCURVE",
"447 115 OFFCURVE",
"447 13 OFFCURVE",
"367 -61 OFFCURVE",
"297 -61 QCURVE SMOOTH",
"215 -61 LINE SMOOTH"
);
},
{
closed = 1;
nodes = (
"201 67 OFFCURVE",
"129 141 OFFCURVE",
"129 243 OFFCURVE",
"201 317 OFFCURVE",
"254 317 QCURVE SMOOTH",
"258 317 LINE SMOOTH",
"311 317 OFFCURVE",
"383 243 OFFCURVE",
"383 141 OFFCURVE",
"311 67 OFFCURVE",
"258 67 QCURVE SMOOTH",
"254 67 LINE SMOOTH"
);
},
{
closed = 1;
nodes = (
"201 195 OFFCURVE",
"129 269 OFFCURVE",
"129 371 OFFCURVE",
"201 445 OFFCURVE",
"254 445 QCURVE SMOOTH",
"258 445 LINE SMOOTH",
"311 445 OFFCURVE",
"383 371 OFFCURVE",
"383 269 OFFCURVE",
"311 195 OFFCURVE",
"258 195 QCURVE SMOOTH",
"254 195 LINE SMOOTH"
);
},
{
closed = 1;
nodes = (
"201 323 OFFCURVE",
"129 397 OFFCURVE",
"129 499 OFFCURVE",
"201 573 OFFCURVE",
"254 573 QCURVE SMOOTH",
"258 573 LINE SMOOTH",
"311 573 OFFCURVE",
"383 499 OFFCURVE",
"383 397 OFFCURVE",
"311 323 OFFCURVE",
"258 323 QCURVE SMOOTH",
"254 323 LINE SMOOTH"
);
},
{
closed = 1;
nodes = (
"201 451 OFFCURVE",
"129 525 OFFCURVE",
"129 627 OFFCURVE",
"201 701 OFFCURVE",
"254 701 QCURVE SMOOTH",
"258 701 LINE SMOOTH",
"311 701 OFFCURVE",
"383 627 OFFCURVE",
"383 525 OFFCURVE",
"311 451 OFFCURVE",
"258 451 QCURVE SMOOTH",
"254 451 LINE SMOOTH"
);
},
{
closed = 1;
nodes = (
"73 579 OFFCURVE",
"1 653 OFFCURVE",
"1 755 OFFCURVE",
"73 829 OFFCURVE",
"126 829 QCURVE SMOOTH",
"66 829 LINE SMOOTH",
"119 829 OFFCURVE",
"191 755 OFFCURVE",
"191 653 OFFCURVE",
"119 579 OFFCURVE",
"66 579 QCURVE SMOOTH",
"126 579 LINE SMOOTH"
);
},
{
closed = 1;
nodes = (
"201 579 OFFCURVE",
"129 653 OFFCURVE",
"129 755 OFFCURVE",
"201 829 OFFCURVE",
"254 829 QCURVE SMOOTH",
"258 829 LINE SMOOTH",
"311 829 OFFCURVE",
"383 755 OFFCURVE",
"383 653 OFFCURVE",
"311 579 OFFCURVE",
"258 579 QCURVE SMOOTH",
"254 579 LINE SMOOTH"
);
},
{
closed = 1;
nodes = (
"393 579 OFFCURVE",
"321 653 OFFCURVE",
"321 755 OFFCURVE",
"393 829 OFFCURVE",
"446 829 QCURVE SMOOTH",
"386 829 LINE SMOOTH",
"439 829 OFFCURVE",
"511 755 OFFCURVE",
"511 653 OFFCURVE",
"439 579 OFFCURVE",
"386 579 QCURVE SMOOTH",
"446 579 LINE SMOOTH"
);
},
{
closed = 1;
nodes = (
"81 707 OFFCURVE",
"1 781 OFFCURVE",
"1 883 OFFCURVE",
"81 957 OFFCURVE",
"151 957 QCURVE SMOOTH",
"361 957 LINE SMOOTH",
"431 957 OFFCURVE",
"511 883 OFFCURVE",
"511 781 OFFCURVE",
"431 707 OFFCURVE",
"361 707 QCURVE SMOOTH",
"151 707 LINE SMOOTH"
);
}
);
};
components = (
{
name = pixel.4;
transform = "{1, 0, 0, 1, 65, -61}";
},
{
name = pixel.2;
transform = "{1, 0, 0, 1, 129, 67}";
},
{
name = pixel.2;
transform = "{1, 0, 0, 1, 129, 195}";
},
{
name = pixel.2;
transform = "{1, 0, 0, 1, 129, 323}";
},
{
name = pixel.2;
transform = "{1, 0, 0, 1, 129, 451}";
},
{
name = pixel.1;
transform = "{1, 0, 0, 1, 1, 579}";
},
{
name = pixel.2;
transform = "{1, 0, 0, 1, 129, 579}";
},
{
name = pixel.1;
transform = "{1, 0, 0, 1, 321, 579}";
},
{
name = pixel.6;
transform = "{1, 0, 0, 1, 1, 707}";
}
);
layerId = "164C8123-3F0E-4C99-877D-0E85C432A9CE";
width = 512;
},
{
components = (
{
name = pixel.4;
transform = "{1, 0, 0, 1, 35, 54}";
},
{
name = pixel.2;
transform = "{1, 0, 0, 1, 99, 182}";
},
{
name = pixel.2;
transform = "{1, 0, 0, 1, 99, 310}";
},
{
name = pixel.2;
transform = "{1, 0, 0, 1, 99, 438}";
},
{
name = pixel.2;
transform = "{1, 0, 0, 1, 99, 566}";
},
{
name = pixel.1;
transform = "{1, 0, 0, 1, -29, 694}";
},
{
name = pixel.2;
transform = "{1, 0, 0, 1, 99, 694}";
},
{
name = pixel.1;
transform = "{1, 0, 0, 1, 291, 694}";
},
{
name = pixel.6;
transform = "{1, 0, 0, 1, -29, 822}";
}
);
layerId = "EDC3ADDC-530C-4ECE-AAC6-732B149A8D4A";
width = 512;
},
{
components = (
{
name = pixel.4;
transform = "{1, 0, 0, 1, 3, -61}";
},
{
name = pixel.2;
transform = "{1, 0, 0, 1, 67, 67}";
},
{
name = pixel.2;
transform = "{1, 0, 0, 1, 67, 195}";
},
{
name = pixel.2;
transform = "{1, 0, 0, 1, 67, 323}";
},
{
name = pixel.2;
transform = "{1, 0, 0, 1, 67, 451}";
},
{
name = pixel.1;
transform = "{1, 0, 0, 1, -61, 579}";
},
{
name = pixel.2;
transform = "{1, 0, 0, 1, 67, 579}";
},
{
name = pixel.1;
transform = "{1, 0, 0, 1, 259, 579}";
},
{
name = pixel.6;
transform = "{1, 0, 0, 1, -61, 707}";
}
);
layerId = "38088322-78A3-4F4F-B46E-F8355B0BCD96";
width = 512;
}
);
unicode = 0054;
},
{
glyphname = U;
lastChange = "2019-07-27 13:36:41 +0000";
layers = (
{
background = {
paths = (
{
closed = 1;
nodes = (
"195 899 LINE",
"195 131 LINE",
"317 131 LINE",
"317 899 LINE",
"451 899 LINE",
"451 -3 LINE",
"125 -3 LINE",
"125 125 LINE",
"61 125 LINE",
"61 899 LINE"
);
}
);
};
layerId = master01;
paths = (
{
closed = 0;
nodes = (
"125 64 LINE",
"451 64 LINE"
);
},
{
closed = 0;
nodes = (
"61 192 LINE",
"195 192 LINE"
);
},
{
closed = 0;
nodes = (
"317 192 LINE",
"451 192 LINE"
);
},
{
closed = 0;
nodes = (
"61 320 LINE",
"195 320 LINE"
);
},
{
closed = 0;
nodes = (
"317 320 LINE",
"451 320 LINE"
);
},
{
closed = 0;
nodes = (
"61 448 LINE",
"195 448 LINE"
);
},
{
closed = 0;
nodes = (
"317 448 LINE",
"451 448 LINE"
);
},
{
closed = 0;
nodes = (
"61 576 LINE",
"195 576 LINE"
);
},
{
closed = 0;
nodes = (
"317 576 LINE",
"451 576 LINE"
);
},
{
closed = 0;
nodes = (
"61 704 LINE",
"195 704 LINE"
);
},
{
closed = 0;
nodes = (
"317 704 LINE",
"451 704 LINE"
);
},
{
closed = 0;
nodes = (
"61 832 LINE",
"195 832 LINE"
);
},
{
closed = 0;
nodes = (
"317 832 LINE",
"451 832 LINE"
);
}
);
userData = {
com.typemytype.robofont.mark = (
0.656,
1,
0.6,
1
);
};
width = 512;
},
{
layerId = "968AADD4-6AAB-4A21-B439-CFC52095EED4";
paths = (
{
closed = 1;
nodes = (
"195 899 LINE",
"195 131 LINE",
"317 131 LINE",
"317 899 LINE",
"451 899 LINE",
"451 -3 LINE",
"125 -3 LINE",
"125 125 LINE",
"61 125 LINE",
"61 899 LINE"
);
}
);
userData = {
com.typemytype.robofont.mark = (
0.656,
1,
0.6,
1
);
};
width = 512;
},
{
components = (
{
name = pixel.5;
transform = "{1, 0, 0, 1, 123, 54}";
},
{
name = pixel.2;
transform = "{1, 0, 0, 1, 59, 182}";
},
{
name = pixel.2;
transform = "{1, 0, 0, 1, 315, 182}";
},
{
name = pixel.2;
transform = "{1, 0, 0, 1, 59, 310}";
},
{
name = pixel.2;
transform = "{1, 0, 0, 1, 315, 310}";
},
{
name = pixel.2;
transform = "{1, 0, 0, 1, 59, 438}";
},
{
name = pixel.2;
transform = "{1, 0, 0, 1, 315, 438}";
},
{
name = pixel.2;
transform = "{1, 0, 0, 1, 59, 566}";
},
{
name = pixel.2;
transform = "{1, 0, 0, 1, 315, 566}";
},
{
name = pixel.2;
transform = "{1, 0, 0, 1, 59, 694}";
},
{
name = pixel.2;
transform = "{1, 0, 0, 1, 315, 694}";
},
{
name = pixel.2;
transform = "{1, 0, 0, 1, 59, 822}";
},
{
name = pixel.2;
transform = "{1, 0, 0, 1, 315, 822}";
}
);
layerId = "EF047752-ED93-49D3-A4D1-D66A6AAE90C7";
width = 512;
},
{
components = (
{
name = pixel.5;
transform = "{1, 0, 0, 1, 65, -61}";
},
{
name = pixel.2;
transform = "{1, 0, 0, 1, 1, 67}";
},
{
name = pixel.2;
transform = "{1, 0, 0, 1, 257, 67}";
},
{
name = pixel.2;
transform = "{1, 0, 0, 1, 1, 195}";
},
{
name = pixel.2;
transform = "{1, 0, 0, 1, 257, 195}";
},
{
name = pixel.2;
transform = "{1, 0, 0, 1, 1, 323}";
},
{
name = pixel.2;
transform = "{1, 0, 0, 1, 257, 323}";
},
{
name = pixel.2;
transform = "{1, 0, 0, 1, 1, 451}";
},
{
name = pixel.2;
transform = "{1, 0, 0, 1, 257, 451}";
},
{
name = pixel.2;
transform = "{1, 0, 0, 1, 1, 579}";
},
{
name = pixel.2;
transform = "{1, 0, 0, 1, 257, 579}";
},
{
name = pixel.2;
transform = "{1, 0, 0, 1, 1, 707}";
},
{
name = pixel.2;
transform = "{1, 0, 0, 1, 257, 707}";
}
);
layerId = "164C8123-3F0E-4C99-877D-0E85C432A9CE";
width = 512;
},
{
components = (
{
name = pixel.5;
transform = "{1, 0, 0, 1, 35, 54}";
},
{
name = pixel.2;
transform = "{1, 0, 0, 1, -29, 182}";
},
{
name = pixel.2;
transform = "{1, 0, 0, 1, 227, 182}";
},
{
name = pixel.2;
transform = "{1, 0, 0, 1, -29, 310}";
},
{
name = pixel.2;
transform = "{1, 0, 0, 1, 227, 310}";
},
{
name = pixel.2;
transform = "{1, 0, 0, 1, -29, 438}";
},
{
name = pixel.2;
transform = "{1, 0, 0, 1, 227, 438}";
},
{
name = pixel.2;
transform = "{1, 0, 0, 1, -29, 566}";
},
{
name = pixel.2;
transform = "{1, 0, 0, 1, 227, 566}";
},
{
name = pixel.2;
transform = "{1, 0, 0, 1, -29, 694}";
},
{
name = pixel.2;
transform = "{1, 0, 0, 1, 227, 694}";
},
{
name = pixel.2;
transform = "{1, 0, 0, 1, -29, 822}";
},
{
name = pixel.2;
transform = "{1, 0, 0, 1, 227, 822}";
}
);
layerId = "EDC3ADDC-530C-4ECE-AAC6-732B149A8D4A";
width = 512;
},
{
components = (
{
name = pixel.5;
transform = "{1, 0, 0, 1, 3, -61}";
},
{
name = pixel.2;
transform = "{1, 0, 0, 1, -61, 67}";
},
{
name = pixel.2;
transform = "{1, 0, 0, 1, 195, 67}";
},
{
name = pixel.2;
transform = "{1, 0, 0, 1, -61, 195}";
},
{
name = pixel.2;
transform = "{1, 0, 0, 1, 195, 195}";
},
{
name = pixel.2;
transform = "{1, 0, 0, 1, -61, 323}";
},
{
name = pixel.2;
transform = "{1, 0, 0, 1, 195, 323}";
},
{
name = pixel.2;
transform = "{1, 0, 0, 1, -61, 451}";
},
{
name = pixel.2;
transform = "{1, 0, 0, 1, 195, 451}";
},
{
name = pixel.2;
transform = "{1, 0, 0, 1, -61, 579}";
},
{
name = pixel.2;
transform = "{1, 0, 0, 1, 195, 579}";
},
{
name = pixel.2;
transform = "{1, 0, 0, 1, -61, 707}";
},
{
name = pixel.2;
transform = "{1, 0, 0, 1, 195, 707}";
}
);
layerId = "38088322-78A3-4F4F-B46E-F8355B0BCD96";
width = 512;
}
);
unicode = 0055;
},
{
color = 6;
glyphname = Uacute;
lastChange = "2019-07-27 11:38:00 +0000";
layers = (
{
components = (
{
name = U.case;
},
{
name = acute;
transform = "{1, 0, 0, 1, 64, 0}";
}
);
layerId = master01;
width = 512;
},
{
components = (
{
name = U.case;
},
{
name = acute;
transform = "{1, 0, 0, 1, 64, 0}";
}
);
layerId = "EF047752-ED93-49D3-A4D1-D66A6AAE90C7";
width = 512;
},
{
components = (
{
name = U.case;
},
{
name = acute;
transform = "{1, 0, 0, 1, 64, 0}";
}
);
layerId = "164C8123-3F0E-4C99-877D-0E85C432A9CE";
width = 512;
},
{
components = (
{
name = U.case;
},
{
name = acute;
transform = "{1, 0, 0, 1, 64, 0}";
}
);
layerId = "EDC3ADDC-530C-4ECE-AAC6-732B149A8D4A";
width = 512;
},
{
components = (
{
name = U.case;
},
{
name = acute;
transform = "{1, 0, 0, 1, 64, 0}";
}
);
layerId = "38088322-78A3-4F4F-B46E-F8355B0BCD96";
width = 512;
},
{
background = {
paths = (
{
closed = 1;
nodes = (
"64 128 LINE",
"128 128 LINE",
"128 0 LINE",
"448 0 LINE",
"448 640 LINE",
"320 640 LINE",
"320 128 LINE",
"192 128 LINE",
"192 640 LINE",
"64 640 LINE"
);
},
{
closed = 1;
nodes = (
"256 768 LINE",
"384 768 LINE",
"384 896 LINE",
"256 896 LINE"
);
},
{
closed = 1;
nodes = (
"192 640 LINE",
"256 640 LINE",
"256 768 LINE",
"192 768 LINE"
);
}
);
};
components = (
{
name = U.case;
},
{
name = acute;
transform = "{1, 0, 0, 1, 64, 0}";
}
);
layerId = "968AADD4-6AAB-4A21-B439-CFC52095EED4";
width = 512;
}
);
unicode = 00DA;
},
{
color = 6;
glyphname = Ucircumflex;
lastChange = "2019-07-27 11:38:00 +0000";
layers = (
{
components = (
{
name = U.case;
},
{
name = circumflex;
}
);
layerId = master01;
width = 512;
},
{
components = (
{
name = U.case;
},
{
name = circumflex;
}
);
layerId = "EF047752-ED93-49D3-A4D1-D66A6AAE90C7";
width = 512;
},
{
components = (
{
name = U.case;
},
{
name = circumflex;
}
);
layerId = "164C8123-3F0E-4C99-877D-0E85C432A9CE";
width = 512;
},
{
components = (
{
name = U.case;
},
{
name = circumflex;
}
);
layerId = "EDC3ADDC-530C-4ECE-AAC6-732B149A8D4A";
width = 512;
},
{
components = (
{
name = U.case;
},
{
name = circumflex;
}
);
layerId = "38088322-78A3-4F4F-B46E-F8355B0BCD96";
width = 512;
},
{
background = {
paths = (
{
closed = 1;
nodes = (
"192 768 LINE",
"128 768 LINE",
"128 640 LINE",
"64 640 LINE",
"64 128 LINE",
"128 128 LINE",
"128 0 LINE",
"448 0 LINE",
"448 640 LINE",
"384 640 LINE",
"384 768 LINE",
"320 768 LINE",
"320 896 LINE",
"192 896 LINE"
);
},
{
closed = 1;
nodes = (
"192 768 LINE",
"320 768 LINE",
"320 128 LINE",
"192 128 LINE"
);
}
);
};
components = (
{
name = U.case;
},
{
name = circumflex;
}
);
layerId = "968AADD4-6AAB-4A21-B439-CFC52095EED4";
width = 512;
}
);
unicode = 00DB;
},
{
color = 6;
glyphname = Udieresis;
lastChange = "2019-07-27 11:38:00 +0000";
layers = (
{
background = {
paths = (
{
closed = 1;
nodes = (
"195 643 LINE",
"195 131 LINE",
"317 131 LINE",
"317 643 LINE",
"451 643 LINE",
"451 -3 LINE",
"125 -3 LINE",
"125 125 LINE",
"61 125 LINE",
"61 643 LINE"
);
},
{
closed = 1;
nodes = (
"451 899 LINE",
"451 765 LINE",
"317 765 LINE",
"317 899 LINE"
);
},
{
closed = 1;
nodes = (
"195 899 LINE",
"195 765 LINE",
"61 765 LINE",
"61 899 LINE"
);
}
);
};
components = (
{
name = U.case;
},
{
name = dieresis;
}
);
layerId = master01;
userData = {
com.typemytype.robofont.mark = (
0.6,
0.609,
1,
1
);
};
width = 512;
},
{
background = {
paths = (
{
closed = 1;
nodes = (
"64 128 LINE",
"128 128 LINE",
"128 0 LINE",
"448 0 LINE",
"448 640 LINE",
"320 640 LINE",
"320 128 LINE",
"192 128 LINE",
"192 640 LINE",
"64 640 LINE"
);
},
{
closed = 1;
nodes = (
"320 768 LINE",
"448 768 LINE",
"448 896 LINE",
"320 896 LINE"
);
},
{
closed = 1;
nodes = (
"64 768 LINE",
"192 768 LINE",
"192 896 LINE",
"64 896 LINE"
);
}
);
};
components = (
{
name = U.case;
},
{
name = dieresis;
}
);
layerId = "968AADD4-6AAB-4A21-B439-CFC52095EED4";
userData = {
com.typemytype.robofont.mark = (
0.6,
0.609,
1,
1
);
};
width = 512;
},
{
components = (
{
name = U.case;
},
{
name = dieresis;
}
);
layerId = "EF047752-ED93-49D3-A4D1-D66A6AAE90C7";
width = 512;
},
{
components = (
{
name = U.case;
},
{
name = dieresis;
}
);
layerId = "164C8123-3F0E-4C99-877D-0E85C432A9CE";
width = 512;
},
{
components = (
{
name = U.case;
},
{
name = dieresis;
}
);
layerId = "EDC3ADDC-530C-4ECE-AAC6-732B149A8D4A";
width = 512;
},
{
components = (
{
name = U.case;
},
{
name = dieresis;
}
);
layerId = "38088322-78A3-4F4F-B46E-F8355B0BCD96";
width = 512;
}
);
unicode = 00DC;
},
{
color = 6;
glyphname = Ugrave;
lastChange = "2019-07-27 11:38:00 +0000";
layers = (
{
components = (
{
name = U.case;
},
{
name = grave;
transform = "{1, 0, 0, 1, -64, 0}";
}
);
layerId = master01;
width = 512;
},
{
components = (
{
name = U.case;
},
{
name = grave;
transform = "{1, 0, 0, 1, -64, 0}";
}
);
layerId = "EF047752-ED93-49D3-A4D1-D66A6AAE90C7";
width = 512;
},
{
components = (
{
name = U.case;
},
{
name = grave;
transform = "{1, 0, 0, 1, -64, 0}";
}
);
layerId = "164C8123-3F0E-4C99-877D-0E85C432A9CE";
width = 512;
},
{
components = (
{
name = U.case;
},
{
name = grave;
transform = "{1, 0, 0, 1, -64, 0}";
}
);
layerId = "EDC3ADDC-530C-4ECE-AAC6-732B149A8D4A";
width = 512;
},
{
components = (
{
name = U.case;
},
{
name = grave;
transform = "{1, 0, 0, 1, -64, 0}";
}
);
layerId = "38088322-78A3-4F4F-B46E-F8355B0BCD96";
width = 512;
},
{
background = {
paths = (
{
closed = 1;
nodes = (
"128 768 LINE",
"256 768 LINE",
"256 640 LINE",
"320 640 LINE",
"320 128 LINE",
"192 128 LINE",
"192 640 LINE",
"64 640 LINE",
"64 128 LINE",
"128 128 LINE",
"128 0 LINE",
"448 0 LINE",
"448 640 LINE",
"320 640 LINE",
"320 768 LINE",
"256 768 LINE",
"256 896 LINE",
"128 896 LINE"
);
}
);
};
components = (
{
name = U.case;
},
{
name = grave;
transform = "{1, 0, 0, 1, -64, 0}";
}
);
layerId = "968AADD4-6AAB-4A21-B439-CFC52095EED4";
width = 512;
}
);
unicode = 00D9;
},
{
glyphname = V;
lastChange = "2019-07-27 13:36:41 +0000";
layers = (
{
background = {
paths = (
{
closed = 1;
nodes = (
"131 899 LINE",
"131 643 LINE",
"195 643 LINE",
"195 387 LINE",
"317 387 LINE",
"317 643 LINE",
"381 643 LINE",
"381 899 LINE",
"515 899 LINE",
"515 637 LINE",
"451 637 LINE",
"451 381 LINE",
"387 381 LINE",
"387 125 LINE",
"323 125 LINE",
"323 -3 LINE",
"189 -3 LINE",
"189 125 LINE",
"125 125 LINE",
"125 381 LINE",
"61 381 LINE",
"61 637 LINE",
"-3 637 LINE",
"-3 899 LINE"
);
}
);
};
layerId = master01;
paths = (
{
closed = 0;
nodes = (
"189 64 LINE",
"323 64 LINE"
);
},
{
closed = 0;
nodes = (
"125 192 LINE",
"387 192 LINE"
);
},
{
closed = 0;
nodes = (
"125 320 LINE",
"387 320 LINE"
);
},
{
closed = 0;
nodes = (
"61 448 LINE",
"195 448 LINE"
);
},
{
closed = 0;
nodes = (
"317 448 LINE",
"451 448 LINE"
);
},
{
closed = 0;
nodes = (
"61 576 LINE",
"195 576 LINE"
);
},
{
closed = 0;
nodes = (
"317 576 LINE",
"451 576 LINE"
);
},
{
closed = 0;
nodes = (
"-3 704 LINE",
"131 704 LINE"
);
},
{
closed = 0;
nodes = (
"381 704 LINE",
"515 704 LINE"
);
},
{
closed = 0;
nodes = (
"-3 832 LINE",
"131 832 LINE"
);
},
{
closed = 0;
nodes = (
"381 832 LINE",
"515 832 LINE"
);
}
);
userData = {
com.typemytype.robofont.mark = (
0.656,
1,
0.6,
1
);
};
width = 512;
},
{
layerId = "968AADD4-6AAB-4A21-B439-CFC52095EED4";
paths = (
{
closed = 1;
nodes = (
"131 899 LINE",
"131 643 LINE",
"195 643 LINE",
"195 387 LINE",
"317 387 LINE",
"317 643 LINE",
"381 643 LINE",
"381 899 LINE",
"515 899 LINE",
"515 637 LINE",
"451 637 LINE",
"451 381 LINE",
"387 381 LINE",
"387 125 LINE",
"323 125 LINE",
"323 -3 LINE",
"189 -3 LINE",
"189 125 LINE",
"125 125 LINE",
"125 381 LINE",
"61 381 LINE",
"61 637 LINE",
"-3 637 LINE",
"-3 899 LINE"
);
}
);
userData = {
com.typemytype.robofont.mark = (
0.656,
1,
0.6,
1
);
};
width = 512;
},
{
components = (
{
name = pixel.2;
transform = "{1, 0, 0, 1, 187, 54}";
},
{
name = pixel.4;
transform = "{1, 0, 0, 1, 123, 182}";
},
{
name = pixel.4;
transform = "{1, 0, 0, 1, 123, 310}";
},
{
name = pixel.2;
transform = "{1, 0, 0, 1, 59, 438}";
},
{
name = pixel.2;
transform = "{1, 0, 0, 1, 315, 438}";
},
{
name = pixel.2;
transform = "{1, 0, 0, 1, 59, 566}";
},
{
name = pixel.2;
transform = "{1, 0, 0, 1, 315, 566}";
},
{
name = pixel.2;
transform = "{1, 0, 0, 1, -5, 694}";
},
{
name = pixel.2;
transform = "{1, 0, 0, 1, 379, 694}";
},
{
name = pixel.2;
transform = "{1, 0, 0, 1, -5, 822}";
},
{
name = pixel.2;
transform = "{1, 0, 0, 1, 379, 822}";
}
);
layerId = "EF047752-ED93-49D3-A4D1-D66A6AAE90C7";
width = 512;
},
{
components = (
{
name = pixel.2;
transform = "{1, 0, 0, 1, 129, -61}";
},
{
name = pixel.4;
transform = "{1, 0, 0, 1, 65, 67}";
},
{
name = pixel.4;
transform = "{1, 0, 0, 1, 65, 195}";
},
{
name = pixel.2;
transform = "{1, 0, 0, 1, 1, 323}";
},
{
name = pixel.2;
transform = "{1, 0, 0, 1, 257, 323}";
},
{
name = pixel.2;
transform = "{1, 0, 0, 1, 1, 451}";
},
{
name = pixel.2;
transform = "{1, 0, 0, 1, 257, 451}";
},
{
name = pixel.2;
transform = "{1, 0, 0, 1, -63, 579}";
},
{
name = pixel.2;
transform = "{1, 0, 0, 1, 321, 579}";
},
{
name = pixel.2;
transform = "{1, 0, 0, 1, -63, 707}";
},
{
name = pixel.2;
transform = "{1, 0, 0, 1, 321, 707}";
}
);
layerId = "164C8123-3F0E-4C99-877D-0E85C432A9CE";
width = 512;
},
{
components = (
{
name = pixel.2;
transform = "{1, 0, 0, 1, 99, 54}";
},
{
name = pixel.4;
transform = "{1, 0, 0, 1, 35, 182}";
},
{
name = pixel.4;
transform = "{1, 0, 0, 1, 35, 310}";
},
{
name = pixel.2;
transform = "{1, 0, 0, 1, -29, 438}";
},
{
name = pixel.2;
transform = "{1, 0, 0, 1, 227, 438}";
},
{
name = pixel.2;
transform = "{1, 0, 0, 1, -29, 566}";
},
{
name = pixel.2;
transform = "{1, 0, 0, 1, 227, 566}";
},
{
name = pixel.2;
transform = "{1, 0, 0, 1, -93, 694}";
},
{
name = pixel.2;
transform = "{1, 0, 0, 1, 291, 694}";
},
{
name = pixel.2;
transform = "{1, 0, 0, 1, -93, 822}";
},
{
name = pixel.2;
transform = "{1, 0, 0, 1, 291, 822}";
}
);
layerId = "EDC3ADDC-530C-4ECE-AAC6-732B149A8D4A";
width = 512;
},
{
components = (
{
name = pixel.2;
transform = "{1, 0, 0, 1, 67, -61}";
},
{
name = pixel.4;
transform = "{1, 0, 0, 1, 3, 67}";
},
{
name = pixel.4;
transform = "{1, 0, 0, 1, 3, 195}";
},
{
name = pixel.2;
transform = "{1, 0, 0, 1, -61, 323}";
},
{
name = pixel.2;
transform = "{1, 0, 0, 1, 195, 323}";
},
{
name = pixel.2;
transform = "{1, 0, 0, 1, -61, 451}";
},
{
name = pixel.2;
transform = "{1, 0, 0, 1, 195, 451}";
},
{
name = pixel.2;
transform = "{1, 0, 0, 1, -125, 579}";
},
{
name = pixel.2;
transform = "{1, 0, 0, 1, 259, 579}";
},
{
name = pixel.2;
transform = "{1, 0, 0, 1, -125, 707}";
},
{
name = pixel.2;
transform = "{1, 0, 0, 1, 259, 707}";
}
);
layerId = "38088322-78A3-4F4F-B46E-F8355B0BCD96";
width = 512;
}
);
unicode = 0056;
},
